<svg width="283" height="229" viewBox="0 0 283 229" fill="none" xmlns="http://www.w3.org/2000/svg">
<path d="M185.219 201.858C183.262 199.118 180.613 197.113 177.283 196.363C174.379 195.708 171.393 195.82 168.441 195.843L131.114 196.13C127.917 196.155 124.852 198.925 125.001 202.244C125.148 205.535 127.687 208.384 131.114 208.357C142.048 208.273 152.982 208.189 163.916 208.104C166.494 208.084 169.073 208.038 171.651 208.046C172.23 208.048 172.807 208.079 173.385 208.085C173.525 208.087 173.626 208.086 173.698 208.083C173.716 208.088 173.731 208.093 173.754 208.1C174.056 208.182 174.365 208.239 174.669 208.318C174.562 208.321 174.866 208.51 175.018 208.575C175.039 208.616 175.083 208.689 175.158 208.802C175.262 208.997 175.569 209.588 175.582 209.57C176.044 210.739 176.426 211.938 176.723 213.159C177.434 215.851 177.59 216.414 177.692 218.94C177.821 222.132 180.411 225.206 183.805 225.054C187.007 224.91 190.057 222.363 189.919 218.94C189.685 213.173 188.673 206.695 185.219 201.858Z" fill="#359225"/>
<path d="M133.308 215.654C132.607 211.405 131.919 207.154 131.205 202.908C130.479 198.6 128.998 194.655 125.646 191.828C124.75 191.073 123.822 190.368 122.889 189.664C122.561 189.417 122.234 189.17 121.91 188.917C121.89 188.902 121.878 188.893 121.861 188.88C121.825 188.849 121.783 188.812 121.725 188.764C120.328 187.581 118.978 186.346 117.692 185.034C116.55 183.868 115.458 182.652 114.416 181.386C114.155 181.07 113.898 180.752 113.644 180.43C113.601 180.375 113.366 180.071 113.211 179.873C113.067 179.674 112.804 179.316 112.759 179.253C112.463 178.834 112.172 178.411 111.886 177.984C109.939 175.067 108.253 171.983 106.847 168.77C106.708 168.451 106.572 168.131 106.439 167.808C106.404 167.71 106.357 167.583 106.296 167.415C106.013 166.636 105.73 165.858 105.471 165.07C104.921 163.396 104.448 161.698 104.052 159.975C103.857 159.124 103.681 158.269 103.524 157.409C103.443 156.967 103.368 156.524 103.297 156.08C103.286 156.007 103.217 155.528 103.176 155.257C103.147 154.985 103.091 154.504 103.084 154.429C103.039 153.982 102.999 153.534 102.964 153.086C102.886 152.077 102.833 151.067 102.806 150.055C102.759 148.256 102.791 146.457 102.902 144.659C102.966 143.648 103.056 142.641 103.167 141.635C103.174 141.573 103.179 141.524 103.184 141.479C103.191 141.434 103.199 141.383 103.208 141.32C103.29 140.764 103.377 140.209 103.474 139.655C103.84 137.554 104.317 135.473 104.902 133.422C105.179 132.452 105.48 131.49 105.805 130.535C105.95 130.112 106.099 129.69 106.253 129.269C106.243 129.296 106.705 128.117 106.711 128.077C108.543 123.749 111.54 119.802 111.544 114.885C111.547 111.556 108.73 108.367 105.431 108.521C103.785 108.583 102.229 109.281 101.088 110.468C99.9478 111.655 99.3129 113.239 99.3172 114.885C99.3172 114.96 99.3168 115.024 99.3167 115.086C99.2859 115.189 99.2601 115.276 99.237 115.352C98.8797 116.129 98.442 116.866 98.0499 117.624C96.976 119.696 96.0594 121.836 95.1887 124.008C93.7633 127.544 92.6722 131.206 91.9298 134.946C90.316 143.14 90.1908 151.558 91.56 159.797C93.9303 174.245 101.747 188.075 112.614 197.371C113.557 198.178 114.523 198.957 115.498 199.721C115.902 200.037 116.309 200.347 116.718 200.656C116.911 200.801 117.712 201.433 117.36 201.127C118.117 201.773 118.436 202.099 118.63 202.575C118.659 202.685 118.697 202.834 118.749 203.037C118.886 203.574 119.016 204.11 119.125 204.655C120.071 209.412 120.728 214.249 121.518 219.038C122.061 222.328 126.112 224.469 129.038 223.483C132.445 222.335 133.89 219.179 133.308 215.654Z" fill="#359225"/>
<path d="M185.838 227.993C183.27 228 180.805 226.988 178.983 225.179C177.16 223.371 176.13 220.913 176.117 218.346V211.372C168.816 212.189 143.815 212 136.648 210.849V218.067C136.629 220.632 135.596 223.086 133.775 224.893C131.955 226.7 129.493 227.714 126.928 227.714C124.362 227.714 121.901 226.7 120.08 224.893C118.259 223.086 117.227 220.632 117.207 218.067V203.895C107.501 198.502 99.4089 190.617 93.767 181.054C88.125 171.49 85.1373 160.594 85.1122 149.49C85.1122 130.451 93.7408 112.69 108.786 100.761C118.568 92.9792 130.453 88.2991 142.915 87.322C144.606 87.1894 146.308 87.1222 147.973 87.1222C153.839 87.1222 180.304 88.0284 186.945 89.9388L202.086 74.9145C202.309 74.6907 202.593 74.5382 202.902 74.4765C203.212 74.4147 203.533 74.4467 203.825 74.5681C204.118 74.6849 204.37 74.8878 204.546 75.1501C204.722 75.4124 204.815 75.7219 204.812 76.0379V78.4266L207.76 75.5067C207.982 75.2826 208.266 75.1299 208.576 75.0681C208.885 75.0062 209.206 75.0381 209.497 75.1597C209.791 75.2765 210.043 75.4794 210.219 75.7418C210.396 76.0042 210.489 76.3138 210.486 76.63V103.324C218.084 110.174 223.874 118.792 227.345 128.414C230.816 138.037 231.859 148.367 230.383 158.489C228.906 168.611 224.956 178.213 218.881 186.443C212.806 194.674 204.795 201.278 195.558 205.672V218.346C195.545 220.913 194.515 223.371 192.693 225.179C190.87 226.988 188.405 228 185.838 227.993ZM176.882 210.505V218.346C176.901 220.708 177.853 222.968 179.53 224.631C181.208 226.295 183.475 227.229 185.838 227.229C188.2 227.229 190.467 226.295 192.145 224.631C193.822 222.968 194.774 220.708 194.794 218.346V205.189L195.012 205.086C205.377 200.167 214.176 192.473 220.432 182.856C228.404 170.584 231.72 155.863 229.779 141.358C227.837 126.853 220.767 113.523 209.849 103.779L209.722 103.665V76.63C209.725 76.4657 209.677 76.3046 209.585 76.1682C209.494 76.0319 209.362 75.927 209.209 75.8675C209.057 75.8024 208.889 75.7848 208.726 75.8171C208.564 75.8494 208.415 75.93 208.299 76.0483L204.048 80.2591V76.0378C204.051 75.8736 204.003 75.7124 203.911 75.5761C203.82 75.4398 203.688 75.3348 203.535 75.2753C203.383 75.2104 203.214 75.193 203.051 75.2255C202.889 75.258 202.74 75.3388 202.624 75.4574L187.158 90.8034L186.939 90.7345C180.766 88.8024 153.883 87.8864 147.973 87.8864C146.328 87.8864 144.646 87.9528 142.975 88.084C130.664 89.0491 118.924 93.6723 109.261 101.36C94.3995 113.143 85.8763 130.685 85.8763 149.49C85.9017 160.496 88.8734 171.294 94.4828 180.762C100.092 190.231 108.134 198.025 117.774 203.335L117.972 203.445V218.067C117.991 220.429 118.943 222.688 120.621 224.352C122.298 226.015 124.565 226.949 126.928 226.949C129.29 226.949 131.557 226.015 133.234 224.352C134.912 222.688 135.864 220.429 135.884 218.067V209.934L136.337 210.019C142.777 211.231 169.896 211.422 176.45 210.562L176.882 210.505Z" fill="#3F3D56"/>
<path d="M134.038 45.5131L91.7262 58.2289C90.3804 58.635 89.2508 59.5587 88.5856 60.7971C87.9204 62.0354 87.774 63.4872 88.1785 64.8335C88.5831 66.1798 89.5055 67.3104 90.7431 67.977C91.9808 68.6436 93.4324 68.7916 94.7791 68.3886L131.807 57.2584L132.583 57.0253C132.74 53.0282 133.824 49.1223 135.75 45.6163C135.508 45.5075 135.25 45.4403 134.986 45.4176C134.667 45.3867 134.345 45.4192 134.038 45.5131Z" fill="#E6E6E6"/>
<path d="M94.0473 71.0996C93.4857 71.0982 92.9386 70.9203 92.4835 70.5912C92.0284 70.262 91.6882 69.7981 91.5111 69.2651L88.8652 61.281C88.7547 60.9476 88.711 60.5957 88.7365 60.2454C88.762 59.895 88.8563 59.5532 89.0139 59.2393C89.1716 58.9254 89.3895 58.6456 89.6553 58.416C89.9211 58.1863 90.2295 58.0113 90.5629 57.9008L125.001 46.4879C125.334 46.3774 125.686 46.3336 126.036 46.3591C126.387 46.3846 126.728 46.4788 127.042 46.6364C127.356 46.794 127.636 47.0119 127.866 47.2776C128.095 47.5433 128.27 47.8517 128.381 48.1851L131.027 56.1691C131.247 56.8258 131.203 57.5424 130.904 58.1671C130.605 58.7918 130.074 59.2756 129.425 59.5159C129.393 59.5279 129.361 59.5391 129.328 59.5497L94.8913 70.9623C94.6192 71.053 94.3342 71.0993 94.0473 71.0996Z" fill="#2F2E41"/>
<path d="M158.541 31.334C151.591 31.3367 144.914 34.0438 139.924 38.8824C134.935 43.721 132.023 50.3113 131.807 57.2585C131.799 57.5298 131.795 57.8049 131.795 58.08C131.795 63.3698 133.364 68.5409 136.303 72.9392C139.242 77.3376 143.419 80.7657 148.306 82.79C153.193 84.8144 158.571 85.344 163.759 84.312C168.948 83.28 173.713 80.7327 177.454 76.9922C181.194 73.2517 183.742 68.4861 184.774 63.2978C185.806 58.1096 185.276 52.7319 183.252 47.8447C181.227 42.9575 177.799 38.7804 173.401 35.8415C169.002 32.9026 163.831 31.334 158.541 31.334ZM158.541 84.0618C151.653 84.0546 145.048 81.3149 140.177 76.444C135.306 71.573 132.567 64.9686 132.56 58.08C132.56 57.7246 132.567 57.3731 132.583 57.0254C132.789 51.936 134.488 47.0196 137.467 42.8876C140.445 38.7557 144.573 35.5905 149.336 33.7855C154.099 31.9806 159.288 31.6156 164.256 32.7359C169.225 33.8562 173.755 36.4124 177.283 40.0866C180.811 43.7608 183.181 48.391 184.098 53.4014C185.016 58.4117 184.44 63.5812 182.443 68.2671C180.446 72.9529 177.116 76.9483 172.866 79.7566C168.616 82.5648 163.635 84.0619 158.541 84.0618Z" fill="#3F3D56"/>
<path d="M181.084 58.0798C181.084 64.0586 178.709 69.7925 174.482 74.0202C170.254 78.2478 164.52 80.6229 158.541 80.6229C152.563 80.6229 146.829 78.2478 142.601 74.0202C138.373 69.7925 135.998 64.0586 135.998 58.0798C135.998 57.3653 136.033 56.6623 136.098 55.9669C136.641 50.1967 139.386 44.8575 143.762 41.0578C148.138 37.258 153.81 35.2898 159.599 35.5617C165.388 35.8336 170.851 38.3248 174.851 42.518C178.852 46.7112 181.084 52.2842 181.084 58.0798Z" fill="#E6E6E6"/>
<path d="M165.255 59.5777C164.708 58.8592 163.989 58.2902 163.165 57.9232C162.148 57.4946 161.097 57.1495 160.024 56.8916V50.7553C161.674 51.004 163.221 51.7095 164.49 52.7918L165.736 50.1363C165.02 49.4981 164.197 48.9899 163.306 48.6347C162.318 48.2347 161.281 47.9687 160.223 47.8438V44.7336H157.338V47.8744C156.224 47.9995 155.149 48.3603 154.186 48.9328C153.315 49.448 152.582 50.1664 152.05 51.0266C151.542 51.866 151.278 52.8308 151.289 53.812C151.24 54.8753 151.548 55.9246 152.164 56.7923C152.732 57.5435 153.481 58.1379 154.342 58.5193C155.376 58.9606 156.444 59.3146 157.537 59.5777V65.458C155.59 65.3111 153.735 64.571 152.222 63.3374L150.976 65.9967C151.822 66.6962 152.784 67.2419 153.819 67.6091C154.952 68.0148 156.137 68.2616 157.338 68.3427V71.4261H160.223V68.2854C161.825 68.1103 163.327 67.4213 164.506 66.3215C165.025 65.8238 165.435 65.2239 165.709 64.5596C165.984 63.8953 166.118 63.1812 166.103 62.4624C166.151 61.433 165.852 60.4173 165.255 59.5777ZM157.537 56.2421C156.834 56.029 156.181 55.6783 155.615 55.2104C155.39 55.0109 155.213 54.7642 155.096 54.4881C154.978 54.212 154.923 53.9132 154.935 53.6133C154.914 52.9328 155.164 52.2718 155.63 51.7755C156.147 51.2548 156.813 50.9088 157.537 50.7859V56.2421ZM161.835 64.3728C161.348 64.8727 160.713 65.2035 160.024 65.3166V60.2578C160.682 60.4345 161.299 60.7425 161.835 61.1633C162.038 61.337 162.2 61.5543 162.308 61.7991C162.416 62.0438 162.467 62.3097 162.458 62.577C162.484 63.2328 162.262 63.8743 161.835 64.3728Z" fill="#47A138"/>
<path d="M95.2754 103.458C94.6847 103.457 94.1109 103.261 93.6429 102.901C93.1748 102.54 92.8387 102.036 92.6867 101.465L91.2462 96.0126C91.0659 95.3273 91.1648 94.5985 91.5211 93.986C91.8775 93.3734 92.4623 92.9273 93.1471 92.7453L138.593 80.7365C139.278 80.5576 140.007 80.6575 140.619 81.0145C141.232 81.3714 141.678 81.9564 141.86 82.6413L143.08 87.2607L142.852 87.2784C131.196 88.1847 120.044 92.4105 110.715 99.4559L110.649 99.488L95.9539 103.37C95.7325 103.428 95.5044 103.458 95.2754 103.458Z" fill="#2F2E41"/>
<path d="M87.7487 130.39C82.4177 129.602 77.3192 127.674 72.8007 124.738C70.5622 123.284 68.4898 121.589 66.6209 119.683C64.7762 117.802 63.0115 115.663 62.0978 113.158C61.2187 110.839 61.2641 108.272 62.2244 105.986C63.1716 103.714 64.9811 101.911 67.256 100.971C69.5445 100.059 72.3095 99.9609 74.5368 100.96C75.5981 101.426 76.5165 102.165 77.1978 103.102C77.5144 103.535 77.7489 104.021 77.8894 104.538C78.0199 105.007 78.0318 105.5 77.924 105.975C77.7934 106.448 77.563 106.888 77.2484 107.265C76.9339 107.642 76.5423 107.948 76.0999 108.161C75.1264 108.661 74.0716 108.982 72.9851 109.111C71.8923 109.26 70.3225 109.396 69.444 108.519C69.2631 108.345 69.1209 108.135 69.0265 107.903C68.9605 107.725 68.9379 107.534 68.9606 107.346C68.9478 107.429 69.0136 107.166 69.0099 107.176C68.996 107.215 68.9358 107.31 69.0213 107.164C69.0481 107.116 69.0778 107.07 69.1104 107.025C69.0814 107.063 69.0176 107.126 69.1315 107.018C69.2256 106.915 69.3466 106.84 69.4808 106.802C69.5337 106.787 69.5874 106.775 69.6404 106.76C69.7752 106.723 69.506 106.762 69.6439 106.758C69.6971 106.756 69.751 106.757 69.804 106.755C69.9393 106.749 69.6706 106.718 69.8002 106.751C69.8506 106.763 69.9004 106.776 69.95 106.791C70.0578 106.825 69.8737 106.712 69.9467 106.797C70.0323 106.896 69.8568 106.701 69.9541 106.796C70.0025 106.844 70.0482 106.894 70.0908 106.947C70.2595 107.114 70.487 107.207 70.7241 107.207C70.9612 107.207 71.1887 107.114 71.3574 106.947C71.5204 106.777 71.6113 106.55 71.6113 106.314C71.6113 106.078 71.5204 105.851 71.3574 105.681C70.4742 104.586 68.7298 104.856 67.8364 105.782C66.697 106.962 67.1482 108.832 68.2565 109.861C69.5111 111.027 71.2881 111.108 72.902 110.913C74.266 110.782 75.5951 110.406 76.8257 109.804C78.0484 109.203 79.0048 108.17 79.5095 106.904C79.7374 106.229 79.8192 105.513 79.7496 104.804C79.68 104.094 79.4606 103.408 79.1058 102.79C77.6809 100.111 74.7304 98.7375 71.814 98.4996C70.3125 98.382 68.8025 98.5633 67.3716 99.0331C65.9406 99.5029 64.617 100.252 63.4774 101.236C61.2807 103.214 59.9281 105.96 59.6992 108.907C59.4446 111.962 60.63 114.929 62.3582 117.395C64.1675 119.9 66.3265 122.133 68.7694 124.025C73.5452 127.838 79.1473 130.48 85.1272 131.74C85.8385 131.887 86.5536 132.012 87.2726 132.117C87.5013 132.172 87.7426 132.139 87.9473 132.022C88.152 131.906 88.3047 131.716 88.3743 131.491C88.4357 131.262 88.4045 131.018 88.2874 130.812C88.1703 130.606 87.9768 130.454 87.7487 130.39L87.7487 130.39Z" fill="#3F3D56"/>
<path d="M173.101 91.4644C165.29 91.3541 157.504 91.5523 149.743 92.059C147.09 92.2322 144.795 93.1699 144.795 94.7459C144.795 96.0635 147.072 97.6071 149.743 97.4327C157.5 96.9261 165.286 96.7279 173.101 96.838C179.472 96.928 179.468 91.5542 173.101 91.4644Z" fill="#CCCCCC"/>
<path d="M161.557 96.5718C160.713 96.5718 140.884 96.5403 140.884 93.8013C140.884 91.0625 160.713 91.031 161.557 91.031C162.401 91.031 182.23 91.0625 182.23 93.8013C182.23 96.5403 162.401 96.5718 161.557 96.5718ZM141.659 93.8013C142.202 94.6317 149.49 95.8076 161.557 95.8076C173.623 95.8076 180.912 94.6317 181.454 93.8013C180.912 92.9711 173.623 91.7952 161.557 91.7952C149.49 91.7952 142.202 92.9711 141.659 93.8013V93.8013Z" fill="#3F3D56"/>
<path d="M101.747 115.672C101.111 115.67 100.496 115.441 100.012 115.027C99.5288 114.612 99.2088 114.039 99.1093 113.411L98.2364 107.839C98.1273 107.139 98.3007 106.423 98.7185 105.85C99.1362 105.277 99.7643 104.893 100.465 104.783L146.9 97.5069C147.601 97.3979 148.316 97.5713 148.889 97.9891C149.462 98.4068 149.846 99.0348 149.956 99.7353L150.829 105.307C150.938 106.008 150.765 106.723 150.347 107.296C149.93 107.869 149.302 108.253 148.601 108.363L102.166 115.639C102.027 115.661 101.887 115.672 101.747 115.672Z" fill="#2F2E41"/>
<path d="M82.53 50.3797C93.292 50.3797 102.016 41.6554 102.016 30.8933C102.016 20.1313 93.292 11.407 82.53 11.407C71.768 11.407 63.0437 20.1313 63.0437 30.8933C63.0437 41.6554 71.768 50.3797 82.53 50.3797Z" fill="#E6E6E6"/>
<path d="M93.5628 35.9354C94.1856 35.7175 94.7545 35.3689 95.2313 34.9129C95.5468 34.5877 95.7874 34.1975 95.9362 33.7697C96.085 33.3418 96.1385 32.8865 96.0928 32.4358C96.0663 32.1146 95.9659 31.8038 95.7994 31.5278C95.6329 31.2518 95.4048 31.018 95.133 30.8447C94.4278 30.4111 93.4959 30.4274 92.5551 30.8636L92.4465 23.2571L91.6825 23.268L91.8101 32.2102L92.3917 31.8287C93.0662 31.3871 94.0354 31.0668 94.7326 31.4957C94.9051 31.6092 95.049 31.761 95.1532 31.9393C95.2575 32.1175 95.3192 32.3174 95.3336 32.5233C95.3658 32.8591 95.3252 33.1979 95.2147 33.5166C95.1042 33.8353 94.9263 34.1264 94.6931 34.3702C93.8648 35.1921 92.6387 35.4675 91.2394 35.7194L91.3748 36.4714C92.1187 36.3584 92.851 36.179 93.5628 35.9354Z" fill="#2F2E41"/>
<path d="M100.315 22.7231L96.2458 23.3394L96.3603 24.0948L100.43 23.4786L100.315 22.7231Z" fill="#2F2E41"/>
<path d="M87.4706 24.6679L83.4013 25.2842L83.5157 26.0396L87.585 25.4234L87.4706 24.6679Z" fill="#2F2E41"/>
<path d="M95.4074 115.331C94.7066 115.329 94.0229 115.115 93.4472 114.715C92.8715 114.315 92.4312 113.75 92.1847 113.094L78.7494 77.1133C77.1073 72.7005 77.2827 67.8165 79.237 63.5328C81.1914 59.2492 84.7652 55.9157 89.1743 54.2637L100.099 50.1845C100.521 50.0257 100.971 49.952 101.422 49.9676C101.873 49.9833 102.316 50.088 102.727 50.2757C103.136 50.4586 103.505 50.7213 103.812 51.0484C104.118 51.3755 104.357 51.7604 104.513 52.1807L129.401 99.1711C129.562 99.5948 129.639 100.046 129.625 100.5C129.612 100.953 129.508 101.399 129.322 101.812C129.135 102.226 128.869 102.598 128.537 102.908C128.206 103.218 127.817 103.459 127.392 103.618L96.6092 115.113C96.2249 115.257 95.8179 115.331 95.4074 115.331Z" fill="#2F2E41"/>
<path d="M96.7844 51.4221L121.478 84.4441L104.769 51.7687C104.631 51.3874 104.419 51.0371 104.146 50.7377C103.872 50.4383 103.543 50.1957 103.175 50.0237C102.808 49.8518 102.411 49.7539 102.006 49.7356C101.601 49.7173 101.196 49.779 100.815 49.9171L96.7844 51.4221Z" fill="#E6E6E6"/>
<path d="M135.884 76.5001L91.7931 73.66C91.0981 73.6152 90.4188 73.434 89.7938 73.1267C89.1689 72.8194 88.6106 72.392 88.1508 71.8689C87.691 71.3459 87.3388 70.7373 87.1142 70.0781C86.8896 69.4189 86.797 68.7219 86.8418 68.027C86.8866 67.332 87.0678 66.6526 87.3751 66.0277C87.6824 65.4027 88.1098 64.8444 88.6329 64.3847C89.1559 63.9249 89.7645 63.5727 90.4237 63.3481C91.0829 63.1235 91.7799 63.0309 92.4748 63.0757L136.566 65.9155C136.891 65.9365 137.209 66.0213 137.502 66.1652C137.795 66.3091 138.056 66.5093 138.271 66.7542C138.487 66.9992 138.652 67.2842 138.757 67.5929C138.862 67.9016 138.905 68.228 138.885 68.5535L138.522 74.1813C138.48 74.8386 138.178 75.4522 137.683 75.887C137.188 76.3219 136.541 76.5424 135.884 76.5001Z" fill="#E6E6E6"/>
<path d="M124.102 78.321C124.044 78.321 123.986 78.3191 123.927 78.3154H123.927L87.7221 75.9833C87.3716 75.9608 87.029 75.8694 86.7138 75.7144C86.3986 75.5595 86.117 75.3439 85.8851 75.0801C85.6532 74.8163 85.4755 74.5094 85.3623 74.177C85.249 73.8445 85.2023 73.493 85.2249 73.1425L85.844 63.5299C85.8666 63.1794 85.958 62.8367 86.113 62.5215C86.268 62.2064 86.4836 61.9248 86.7474 61.6929C87.0113 61.4611 87.3182 61.2834 87.6507 61.1702C87.9832 61.0569 88.3347 61.0103 88.6852 61.0329L124.89 63.3648C125.598 63.4111 126.258 63.7363 126.726 64.2688C127.194 64.8014 127.432 65.4979 127.387 66.2056L126.768 75.8184C126.734 76.3334 126.552 76.8277 126.244 77.2419C125.936 77.656 125.515 77.9725 125.031 78.1532C124.734 78.2644 124.419 78.3212 124.102 78.321Z" fill="#2F2E41"/>
<path d="M82.3067 17.9353C84.8702 15.7305 88.3905 17.7028 91.3303 17.3576C94.1429 17.0272 96.3638 14.5043 96.9311 11.8241C97.593 8.69707 95.97 5.56428 93.5777 3.61466C90.9575 1.47934 87.4826 0.866346 84.1897 1.2614C80.4156 1.71417 76.964 3.47342 73.8669 5.60133C70.8774 7.59165 68.1283 9.92121 65.6743 12.5435C63.4769 14.9704 61.6151 17.8632 61.0206 21.1289C60.4804 24.0967 60.8929 27.3855 62.6474 29.8997C63.5777 31.1883 64.8245 32.2155 66.2673 32.882C67.7717 33.6207 69.3766 34.1488 70.8341 34.9841C73.0378 36.247 75.1797 38.8657 74.4894 41.5907C74.3414 42.186 74.0493 42.7358 73.6389 43.1917C73.1457 43.7391 72.2562 43.0157 72.7507 42.4668C73.6191 41.5028 73.5849 40.2171 73.1221 39.0662C72.5717 37.7692 71.5973 36.6976 70.3583 36.027C68.8326 35.1547 67.1482 34.6163 65.5845 33.8217C64.0878 33.0959 62.7886 32.0192 61.7975 30.6833C59.9259 28.0825 59.3661 24.6976 59.7906 21.5664C60.2499 18.1779 61.9909 15.0987 64.1733 12.5184C66.5485 9.71031 69.4659 7.33332 72.4464 5.19792C75.6445 2.90661 79.1778 0.969462 83.0875 0.268828C86.4767 -0.338513 90.1503 0.0354044 93.114 1.88235C95.8804 3.60635 98.0017 6.57198 98.2127 9.88578C98.2884 11.3935 97.961 12.8943 97.2642 14.2335C96.5674 15.5727 95.5263 16.7021 94.2481 17.5054C92.9365 18.2902 91.4116 18.6435 89.8885 18.5153C88.2602 18.4111 86.6303 17.9125 84.9916 18.0509C84.2501 18.0959 83.5435 18.3814 82.9788 18.8642C82.4187 19.3459 81.7512 18.4131 82.3067 17.9353V17.9353Z" fill="#2F2E41"/>
<path d="M282.545 228.172H0.453505C0.333075 228.172 0.2177 228.124 0.132666 228.038C0.0476319 227.953 -0.00012207 227.838 -0.00012207 227.717C-0.00012207 227.597 0.0476319 227.481 0.132666 227.396C0.2177 227.311 0.333075 227.263 0.453505 227.262H282.545C282.666 227.262 282.781 227.31 282.867 227.395C282.952 227.481 283 227.596 283 227.717C283 227.838 282.952 227.954 282.867 228.039C282.781 228.124 282.666 228.172 282.545 228.172Z" fill="#3F3D56"/>
<path d="M230 138.5L236.638 137.897C238.98 137.684 241 139.528 241 141.88V153.707C241 156.203 238.74 158.089 236.284 157.643L230 156.5" stroke="#3F3D56" stroke-width="0.75"/>
</svg>
