<svg width="474" height="354" viewBox="0 0 474 354" fill="none" xmlns="http://www.w3.org/2000/svg">
<path d="M462.974 207.017C512.607 261.906 368.729 341.009 252.471 341.009C136.214 341.009 55.7815 279.718 41.9682 207.017C8.47565 30.7407 327.333 -81.2995 252.471 73.0245C143.351 297.97 423.887 163.791 462.974 207.017Z" fill="#E6E6E6"/>
<path d="M440.705 220.008C490.338 274.897 346.459 354 230.202 354C113.944 354 33.5122 292.709 19.6989 220.008C-13.7937 43.7314 305.064 -68.3087 230.202 86.0152C121.082 310.96 401.617 176.781 440.705 220.008Z" fill="#3F3D56"/>
<mask id="path-3-outside-1_475_2215" maskUnits="userSpaceOnUse" x="-0.0485535" y="71.5342" width="191" height="46" fill="black">
<rect fill="white" x="-0.0485535" y="71.5342" width="191" height="46"/>
<path d="M94.9311 115.036C42.8259 112.744 2.42586 101.514 2.95662 89.4695C3.27483 82.2485 18.0211 76.4419 43.4142 73.5392C43.5051 73.5282 43.5972 73.5353 43.6854 73.56C43.7735 73.5848 43.8559 73.6266 43.9277 73.6833C43.9996 73.74 44.0595 73.8103 44.1041 73.8902C44.1486 73.9701 44.1769 74.058 44.1873 74.1489C44.1977 74.2398 44.19 74.3318 44.1647 74.4197C44.1393 74.5076 44.0968 74.5896 44.0396 74.661C43.9824 74.7325 43.9117 74.7919 43.8314 74.8358C43.7511 74.8798 43.663 74.9075 43.5719 74.9173C19.6517 77.6519 4.6202 83.2514 4.34348 89.5305C3.86352 100.422 45.3755 111.468 94.9922 113.651C144.609 115.833 186.932 108.476 187.412 97.5844C187.69 91.2789 173.115 84.3617 149.376 79.5327C149.286 79.5147 149.201 79.4793 149.126 79.4284C149.05 79.3776 148.985 79.3122 148.934 79.2362C148.884 79.1602 148.849 79.0749 148.831 78.9854C148.814 78.8958 148.814 78.8037 148.832 78.7143C148.851 78.6248 148.886 78.5399 148.937 78.4643C148.989 78.3887 149.054 78.3239 149.13 78.2737C149.207 78.2234 149.292 78.1887 149.382 78.1715C149.471 78.1543 149.564 78.1549 149.653 78.1734C174.85 83.2991 189.118 90.3963 188.799 97.6454C188.268 109.69 147.036 117.329 94.9311 115.036Z"/>
</mask>
<path d="M94.9311 115.036C42.8259 112.744 2.42586 101.514 2.95662 89.4695C3.27483 82.2485 18.0211 76.4419 43.4142 73.5392C43.5051 73.5282 43.5972 73.5353 43.6854 73.56C43.7735 73.5848 43.8559 73.6266 43.9277 73.6833C43.9996 73.74 44.0595 73.8103 44.1041 73.8902C44.1486 73.9701 44.1769 74.058 44.1873 74.1489C44.1977 74.2398 44.19 74.3318 44.1647 74.4197C44.1393 74.5076 44.0968 74.5896 44.0396 74.661C43.9824 74.7325 43.9117 74.7919 43.8314 74.8358C43.7511 74.8798 43.663 74.9075 43.5719 74.9173C19.6517 77.6519 4.6202 83.2514 4.34348 89.5305C3.86352 100.422 45.3755 111.468 94.9922 113.651C144.609 115.833 186.932 108.476 187.412 97.5844C187.69 91.2789 173.115 84.3617 149.376 79.5327C149.286 79.5147 149.201 79.4793 149.126 79.4284C149.05 79.3776 148.985 79.3122 148.934 79.2362C148.884 79.1602 148.849 79.0749 148.831 78.9854C148.814 78.8958 148.814 78.8037 148.832 78.7143C148.851 78.6248 148.886 78.5399 148.937 78.4643C148.989 78.3887 149.054 78.3239 149.13 78.2737C149.207 78.2234 149.292 78.1887 149.382 78.1715C149.471 78.1543 149.564 78.1549 149.653 78.1734C174.85 83.2991 189.118 90.3963 188.799 97.6454C188.268 109.69 147.036 117.329 94.9311 115.036Z" fill="#47A138"/>
<path d="M2.95662 89.4695L0.958555 89.3814V89.3814L2.95662 89.4695ZM43.4142 73.5392L43.6413 75.5263L43.6546 75.5247L43.4142 73.5392ZM43.5719 74.9173L43.3581 72.9287L43.3448 72.9302L43.5719 74.9173ZM4.34348 89.5305L2.34542 89.4424L2.34542 89.4424L4.34348 89.5305ZM187.412 97.5844L185.414 97.4963V97.4963L187.412 97.5844ZM149.376 79.5327L149.775 77.5728L149.769 77.5717L149.376 79.5327ZM149.653 78.1734L149.249 80.1321L149.254 80.1333L149.653 78.1734ZM188.799 97.6454L186.801 97.5574V97.5574L188.799 97.6454ZM95.019 113.038C69.0667 111.897 46.0996 108.53 29.741 103.983C21.5458 101.705 15.1211 99.1605 10.8237 96.5192C6.37007 93.782 4.87464 91.3737 4.95468 89.5575L0.958555 89.3814C0.773213 93.5874 4.12876 97.0995 8.72918 99.927C13.4857 102.85 20.3182 105.515 28.6697 107.837C45.4049 112.489 68.6903 115.884 94.8432 117.034L95.019 113.038ZM4.95468 89.5575C5.00234 88.476 5.58851 87.229 7.16274 85.8436C8.74537 84.4508 11.1769 83.0604 14.5151 81.7459C21.1814 79.121 31.0195 76.9691 43.6413 75.5263L43.187 71.5522C30.4158 73.012 20.1842 75.2148 13.0496 78.0241C9.48731 79.4267 6.5855 81.0233 4.52017 82.8408C2.44644 84.6658 1.07 86.8525 0.958555 89.3814L4.95468 89.5575ZM43.6546 75.5247C43.4837 75.5454 43.3105 75.5321 43.145 75.4856L44.2257 71.6344C43.8839 71.5385 43.5264 71.511 43.1738 71.5537L43.6546 75.5247ZM43.145 75.4856C42.9794 75.4392 42.8245 75.3604 42.6892 75.2537L45.1662 72.1129C44.8872 71.8929 44.5676 71.7303 44.2257 71.6344L43.145 75.4856ZM42.6892 75.2537C42.5541 75.1471 42.4412 75.0148 42.3572 74.8641L45.8509 72.9163C45.6778 72.6058 45.4451 72.3328 45.1662 72.1129L42.6892 75.2537ZM42.3572 74.8641C42.2732 74.7135 42.2199 74.5477 42.2003 74.3764L46.1743 73.9214C46.1339 73.5684 46.024 73.2268 45.8509 72.9163L42.3572 74.8641ZM42.2003 74.3764C42.1807 74.2051 42.1951 74.0315 42.243 73.8656L46.0864 74.9738C46.1849 74.6322 46.2147 74.2745 46.1743 73.9214L42.2003 74.3764ZM42.243 73.8656C42.2907 73.6999 42.3709 73.5453 42.4786 73.4108L45.6007 75.9112C45.8228 75.6339 45.9879 75.3154 46.0864 74.9738L42.243 73.8656ZM42.4786 73.4108C42.5863 73.2763 42.7195 73.1645 42.8704 73.0818L44.7924 76.5898C45.1038 76.4192 45.3786 76.1886 45.6007 75.9112L42.4786 73.4108ZM42.8704 73.0818C43.0215 72.9991 43.1872 72.9471 43.3581 72.9287L43.7857 76.9058C44.1387 76.8679 44.4808 76.7605 44.7924 76.5898L42.8704 73.0818ZM43.3448 72.9302C31.3048 74.3067 21.3886 76.4146 14.3932 79.0205C10.9042 80.3202 8.03369 81.7829 5.98006 83.4181C3.94989 85.0347 2.45117 87.0429 2.34542 89.4424L6.34154 89.6185C6.37415 88.8785 6.85814 87.8321 8.4717 86.5473C10.0618 85.2812 12.4961 83.9957 15.7895 82.7689C22.3591 80.3216 31.9188 78.2625 43.7991 76.9043L43.3448 72.9302ZM2.34542 89.4424C2.25519 91.4899 3.16846 93.3386 4.56384 94.9252C5.95386 96.5058 7.93981 97.969 10.3429 99.3281C15.1561 102.05 22.0368 104.572 30.3673 106.789C47.0599 111.231 69.9907 114.553 94.9043 115.649L95.0801 111.653C70.377 110.566 47.7435 107.273 31.3958 102.924C23.2063 100.744 16.6979 98.3268 12.3121 95.8463C10.1157 94.6042 8.54963 93.4004 7.56752 92.2837C6.59076 91.173 6.31177 90.294 6.34154 89.6185L2.34542 89.4424ZM94.9043 115.649C119.818 116.745 142.952 115.449 159.971 112.491C168.464 111.014 175.54 109.106 180.574 106.817C183.087 105.674 185.194 104.391 186.718 102.939C188.247 101.481 189.32 99.7198 189.41 97.6724L185.414 97.4963C185.384 98.1719 185.029 99.0231 183.958 100.044C182.881 101.07 181.215 102.132 178.918 103.176C174.331 105.262 167.635 107.099 159.286 108.55C142.619 111.447 119.783 112.739 95.0801 111.653L94.9043 115.649ZM189.41 97.6724C189.516 95.2642 188.192 93.1253 186.301 91.3316C184.387 89.5171 181.64 87.8032 178.258 86.198C171.477 82.9796 161.723 80.0033 149.775 77.5728L148.977 81.4926C160.768 83.8911 170.172 86.7879 176.543 89.8117C179.737 91.3276 182.065 92.8272 183.548 94.2339C185.053 95.6615 185.447 96.7519 185.414 97.4963L189.41 97.6724ZM149.769 77.5717C149.937 77.6054 150.097 77.672 150.24 77.7677L148.011 81.0892C148.305 81.2867 148.636 81.4241 148.983 81.4937L149.769 77.5717ZM150.24 77.7677C150.383 77.8634 150.505 77.9864 150.6 78.1296L147.268 80.3429C147.464 80.6381 147.717 80.8917 148.011 81.0892L150.24 77.7677ZM150.6 78.1296C150.695 78.2729 150.761 78.4335 150.794 78.6024L146.868 79.3684C146.936 79.7163 147.072 80.0475 147.268 80.3429L150.6 78.1296ZM150.794 78.6024C150.827 78.7711 150.826 78.9449 150.792 79.1136L146.873 78.3149C146.802 78.6625 146.8 79.0205 146.868 79.3684L150.794 78.6024ZM150.792 79.1136C150.758 79.2823 150.69 79.4424 150.594 79.5848L147.281 77.3438C147.082 77.6374 146.943 77.9674 146.873 78.3149L150.792 79.1136ZM150.594 79.5848C150.498 79.7272 150.374 79.8492 150.231 79.9436L148.03 76.6037C147.734 76.7986 147.479 77.0501 147.281 77.3438L150.594 79.5848ZM150.231 79.9436C150.088 80.0381 149.927 80.1034 149.758 80.1357L149.005 76.2073C148.657 76.274 148.326 76.4088 148.03 76.6037L150.231 79.9436ZM149.758 80.1357C149.59 80.168 149.417 80.1668 149.249 80.1321L150.057 76.2147C149.71 76.1431 149.353 76.1406 149.005 76.2073L149.758 80.1357ZM149.254 80.1333C161.779 82.6812 171.452 85.6946 177.904 88.9038C181.135 90.5109 183.45 92.1149 184.914 93.6472C186.371 95.1715 186.848 96.4707 186.801 97.5574L190.797 97.7334C190.909 95.1955 189.723 92.8892 187.806 90.8838C185.898 88.8864 183.131 87.0365 179.685 85.3224C172.783 81.8893 162.724 78.7913 150.052 76.2135L149.254 80.1333ZM186.801 97.5574C186.721 99.3737 185.019 101.641 180.342 103.977C175.829 106.231 169.205 108.201 160.841 109.751C144.146 112.844 120.971 114.18 95.019 113.038L94.8432 117.034C120.996 118.185 144.49 116.848 161.57 113.684C170.093 112.105 177.134 110.05 182.129 107.556C186.96 105.143 190.611 101.939 190.797 97.7334L186.801 97.5574Z" fill="#47A138" mask="url(#path-3-outside-1_475_2215)"/>
<path d="M48.5043 116.96C52.8621 125.241 59.3175 132.232 67.2247 137.234C75.1318 142.236 84.2133 145.072 93.5607 145.46C102.908 145.849 112.193 143.774 120.488 139.445C128.782 135.117 135.794 128.685 140.823 120.793C110.003 121.209 79.1838 119.929 48.5043 116.96Z" fill="#47A138"/>
<path d="M146.59 106.209C149.206 98.342 149.959 89.9729 148.791 81.7636C147.623 73.5544 144.565 65.7305 139.86 58.9109C135.154 52.0914 128.929 46.4635 121.679 42.4727C114.429 38.4819 106.351 36.2377 98.0861 35.9177C89.821 35.5977 81.595 37.2108 74.0593 40.6291C66.5235 44.0475 59.8847 49.1774 54.6684 55.6127C49.4521 62.0481 45.8015 69.6124 44.0054 77.7068C42.2093 85.8013 42.317 94.2038 44.3201 102.249C78.0957 107.998 112.472 109.328 146.59 106.209Z" fill="#47A138"/>
<path d="M108.177 70.4973C111.615 70.4973 114.402 67.7101 114.402 64.2718C114.402 60.8336 111.615 58.0464 108.177 58.0464C104.739 58.0464 101.951 60.8336 101.951 64.2718C101.951 67.7101 104.739 70.4973 108.177 70.4973Z" fill="white"/>
<path d="M76.1387 94.7918C81.8412 94.7918 86.4639 90.1011 86.4639 84.3149C86.4639 78.5286 81.8412 73.8379 76.1387 73.8379C70.4363 73.8379 65.8136 78.5286 65.8136 84.3149C65.8136 90.1011 70.4363 94.7918 76.1387 94.7918Z" fill="white"/>
<path d="M74.2455 212.905C75.7829 212.905 77.0293 211.659 77.0293 210.122C77.0293 208.584 75.7829 207.338 74.2455 207.338C72.7081 207.338 71.4618 208.584 71.4618 210.122C71.4618 211.659 72.7081 212.905 74.2455 212.905Z" fill="#E6E6E6"/>
<path d="M268.722 321.135C270.26 321.135 271.506 319.889 271.506 318.351C271.506 316.814 270.26 315.567 268.722 315.567C267.185 315.567 265.939 316.814 265.939 318.351C265.939 319.889 267.185 321.135 268.722 321.135Z" fill="#E6E6E6"/>
<path d="M96.0544 179.873C96.8231 179.873 97.4462 179.25 97.4462 178.481C97.4462 177.713 96.8231 177.089 96.0544 177.089C95.2856 177.089 94.6625 177.713 94.6625 178.481C94.6625 179.25 95.2856 179.873 96.0544 179.873Z" fill="#E6E6E6"/>
<path d="M202.76 263.012C203.529 263.012 204.152 262.389 204.152 261.62C204.152 260.851 203.529 260.228 202.76 260.228C201.991 260.228 201.368 260.851 201.368 261.62C201.368 262.389 201.991 263.012 202.76 263.012Z" fill="#E6E6E6"/>
<path d="M391.536 249.416C392.305 249.416 392.928 248.792 392.928 248.024C392.928 247.255 392.305 246.632 391.536 246.632C390.767 246.632 390.144 247.255 390.144 248.024C390.144 248.792 390.767 249.416 391.536 249.416Z" fill="#E6E6E6"/>
<path d="M346.585 290.849C347.354 290.849 347.977 290.226 347.977 289.457C347.977 288.689 347.354 288.065 346.585 288.065C345.816 288.065 345.193 288.689 345.193 289.457C345.193 290.226 345.816 290.849 346.585 290.849Z" fill="#E6E6E6"/>
<path d="M181.085 197.486C181.854 197.486 182.477 196.863 182.477 196.095C182.477 195.326 181.854 194.703 181.085 194.703C180.317 194.703 179.693 195.326 179.693 196.095C179.693 196.863 180.317 197.486 181.085 197.486Z" fill="#E6E6E6"/>
<path d="M192.017 129.462C192.786 129.462 193.409 128.839 193.409 128.07C193.409 127.301 192.786 126.678 192.017 126.678C191.248 126.678 190.625 127.301 190.625 128.07C190.625 128.839 191.248 129.462 192.017 129.462Z" fill="#E6E6E6"/>
<path d="M201.368 34.7491C202.136 34.7491 202.76 34.1259 202.76 33.3572C202.76 32.5885 202.136 31.9653 201.368 31.9653C200.599 31.9653 199.976 32.5885 199.976 33.3572C199.976 34.1259 200.599 34.7491 201.368 34.7491Z" fill="#E6E6E6"/>
<path d="M198.699 336.269C199.467 336.269 200.091 335.645 200.091 334.877C200.091 334.108 199.467 333.485 198.699 333.485C197.93 333.485 197.307 334.108 197.307 334.877C197.307 335.645 197.93 336.269 198.699 336.269Z" fill="#E6E6E6"/>
<path d="M126.208 294.561C126.977 294.561 127.6 293.937 127.6 293.169C127.6 292.4 126.977 291.777 126.208 291.777C125.439 291.777 124.816 292.4 124.816 293.169C124.816 293.937 125.439 294.561 126.208 294.561Z" fill="#E6E6E6"/>
<path d="M343.8 244.454C344.569 244.454 345.192 243.831 345.192 243.062C345.192 242.293 344.569 241.67 343.8 241.67C343.032 241.67 342.409 242.293 342.409 243.062C342.409 243.831 343.032 244.454 343.8 244.454Z" fill="#E6E6E6"/>
<path d="M94.0558 140.648C97.5778 140.648 100.433 137.86 100.433 134.422C100.433 130.984 97.5778 128.197 94.0558 128.197C90.5337 128.197 87.6785 130.984 87.6785 134.422C87.6785 137.86 90.5337 140.648 94.0558 140.648Z" fill="white"/>
<path d="M404.353 164.189L383.169 146.738C384.427 144.292 385.181 141.618 385.387 138.875C385.593 136.132 385.246 133.375 384.367 130.768C383.488 128.162 382.095 125.758 380.27 123.699C378.445 121.641 376.226 119.97 373.743 118.785C369.07 116.573 363.737 116.196 358.799 117.73C353.862 119.263 349.68 122.595 347.083 127.065C344.695 131.205 343.825 136.046 344.62 140.758C345.415 145.47 347.827 149.757 351.441 152.883C355.055 156.009 359.645 157.778 364.422 157.887C369.2 157.995 373.865 156.436 377.617 153.477L398.802 170.928C399.696 171.664 400.845 172.014 401.997 171.903C403.149 171.791 404.21 171.226 404.945 170.333C405.681 169.44 406.032 168.291 405.921 167.139C405.81 165.987 405.246 164.926 404.353 164.189ZM376.232 146.681C374.07 149.306 371.065 151.1 367.728 151.757C364.391 152.415 360.93 151.895 357.933 150.286C354.937 148.677 352.591 146.079 351.295 142.935C349.999 139.791 349.834 136.294 350.827 133.042C351.82 129.789 353.911 126.981 356.742 125.097C359.573 123.213 362.97 122.369 366.354 122.708C369.738 123.048 372.899 124.55 375.3 126.959C377.7 129.368 379.191 132.535 379.518 135.921C379.706 137.842 379.513 139.782 378.949 141.629C378.385 143.475 377.462 145.192 376.232 146.681Z" fill="#47A138"/>
<path d="M424.277 133.069C417.983 133.069 412.882 127.968 412.882 121.674C412.882 115.381 417.983 110.279 424.277 110.279C430.57 110.279 435.672 115.381 435.672 121.674C435.672 127.968 430.57 133.069 424.277 133.069Z" fill="#47A138"/>
<path d="M417.886 127.383C417.529 127.28 417.203 127.114 416.93 126.897C416.749 126.743 416.611 126.557 416.526 126.354C416.441 126.151 416.41 125.935 416.436 125.721C416.451 125.568 416.509 125.42 416.604 125.289C416.7 125.158 416.83 125.047 416.986 124.965C417.39 124.759 417.924 124.767 418.463 124.974L418.525 121.36L418.963 121.366L418.89 125.613L418.557 125.432C418.17 125.222 417.615 125.07 417.216 125.274C417.117 125.328 417.034 125.4 416.975 125.485C416.915 125.569 416.88 125.664 416.871 125.762C416.853 125.922 416.876 126.083 416.939 126.234C417.003 126.385 417.105 126.524 417.238 126.639C417.713 127.03 418.415 127.161 419.217 127.28L419.14 127.638C418.713 127.584 418.294 127.499 417.886 127.383Z" fill="black"/>
<path d="M413.016 122.149L415.715 122.558L415.64 123.059L412.94 122.65L413.016 122.149Z" fill="black"/>
<path d="M426.813 122.149L424.114 122.558L424.19 123.059L426.889 122.65L426.813 122.149Z" fill="black"/>
<path d="M396.373 147.482C396.302 147.265 396.213 147.054 396.109 146.85L396.108 146.849C395.696 146.063 395.055 145.421 394.269 145.008C393.483 144.595 392.59 144.432 391.71 144.539C390.829 144.646 390.001 145.019 389.337 145.607C388.673 146.196 388.204 146.973 387.993 147.835C387.781 148.697 387.837 149.603 388.153 150.432C388.469 151.262 389.029 151.975 389.761 152.478C390.492 152.981 391.359 153.249 392.246 153.247C393.134 153.245 394 152.973 394.729 152.467L394.959 152.307L395.216 152.42L419.163 162.991C419.799 163.272 420.509 163.339 421.186 163.182C421.863 163.025 422.47 162.652 422.918 162.121L428.985 154.908L423.048 150.24L419.367 153.843L419.161 154.045L418.883 153.967L396.714 147.808L396.457 147.736L396.373 147.482Z" stroke="black"/>
<path d="M419.796 153.847L428.117 160.323C428.354 160.508 428.628 160.639 428.92 160.708C429.212 160.777 429.515 160.782 429.809 160.723C430.103 160.664 430.382 160.543 430.624 160.367C430.867 160.191 431.07 159.964 431.217 159.703L436.389 150.551C437.325 149.334 437.74 147.796 437.544 146.273C437.348 144.75 436.556 143.368 435.341 142.429C434.127 141.489 432.59 141.07 431.067 141.262C429.544 141.454 428.159 142.243 427.217 143.455L419.637 150.689C419.42 150.897 419.25 151.148 419.139 151.427C419.028 151.706 418.978 152.005 418.993 152.305C419.009 152.604 419.088 152.897 419.227 153.163C419.365 153.429 419.56 153.663 419.796 153.847V153.847Z" fill="#47A138"/>
<path d="M408.799 228.417L411.381 249.356L416.127 249.356L416.128 228.417L408.799 228.417Z" stroke="black"/>
<path d="M418.078 247.999L406.876 247.999H406.876C405.938 247.999 405.01 248.184 404.144 248.542C403.278 248.901 402.491 249.427 401.828 250.09C401.165 250.753 400.639 251.54 400.281 252.406C399.922 253.272 399.737 254.2 399.737 255.137V255.369L418.077 255.37L418.078 247.999Z" fill="#CBCBCB"/>
<path d="M393.952 227.025L396.535 247.964L401.281 247.965L401.282 227.025L393.952 227.025Z" stroke="black"/>
<path d="M403.231 246.607L392.03 246.607H392.029C391.092 246.607 390.164 246.792 389.298 247.15C388.431 247.509 387.645 248.035 386.982 248.698C386.319 249.361 385.793 250.147 385.434 251.014C385.075 251.88 384.891 252.808 384.891 253.745V253.977L403.231 253.978L403.231 246.607Z" fill="#CBCBCB"/>
<path d="M442.14 198.374C440.928 201.966 438.63 205.093 435.563 207.322C432.495 209.55 428.811 210.77 425.02 210.813L424.733 210.817C421.796 210.901 418.349 209.954 414.967 208.595C408.286 205.909 401.869 201.608 400.167 200.425L403.052 228.164L404.222 239.41C404.251 239.701 404.219 239.995 404.128 240.273C404.037 240.551 403.889 240.807 403.694 241.024C403.498 241.241 403.259 241.415 402.992 241.534C402.725 241.654 402.435 241.716 402.143 241.716H394.938C394.476 241.717 394.027 241.564 393.661 241.282C393.295 241 393.033 240.604 392.915 240.157L381.02 194.853C380.663 193.497 380.634 192.075 380.936 190.706C381.237 189.337 381.861 188.059 382.755 186.978C383.648 185.898 384.787 185.046 386.075 184.492C387.363 183.939 388.765 183.701 390.164 183.797L414.874 185.49L413.148 178.587L435.204 177.121L435.269 177.167C435.798 177.552 436.313 177.956 436.805 178.378C438.034 179.418 439.124 180.612 440.048 181.932C441.7 184.299 442.753 187.032 443.117 189.895C443.482 192.759 443.146 195.668 442.14 198.374Z" fill="#2F2E41"/>
<path d="M442.14 198.374C440.928 201.967 438.63 205.094 435.563 207.322C432.495 209.55 428.811 210.77 425.02 210.813C421.395 208.978 417.897 206.903 414.549 204.601L414.967 208.595L418.604 243.586C418.634 243.877 418.602 244.171 418.511 244.449C418.42 244.727 418.272 244.983 418.076 245.2C417.88 245.417 417.641 245.591 417.374 245.71C417.107 245.83 416.818 245.891 416.525 245.892H409.32C408.858 245.892 408.409 245.74 408.043 245.458C407.677 245.176 407.415 244.78 407.298 244.333L403.052 228.165L395.402 199.029C395.045 197.673 395.016 196.251 395.318 194.882C395.62 193.512 396.243 192.235 397.137 191.154C398.031 190.074 399.169 189.222 400.457 188.668C401.746 188.115 403.148 187.877 404.546 187.973L429.256 189.666L427.53 182.763L440.048 181.932C441.7 184.3 442.753 187.032 443.117 189.896C443.482 192.759 443.146 195.669 442.14 198.374Z" fill="#2F2E41"/>
<path d="M436.837 179.978L437.003 179.958L440.851 161.036C440.884 160.872 444.031 144.551 434.385 136.018L434.218 134.85C434.175 134.551 434.067 134.265 433.903 134.012C433.739 133.759 433.522 133.544 433.266 133.383C433.011 133.221 432.724 133.117 432.425 133.078C432.125 133.038 431.821 133.064 431.533 133.153L422.446 135.972C421.932 136.13 421.499 136.481 421.238 136.952C420.977 137.423 420.908 137.976 421.046 138.496L421.929 141.856C420.704 143.294 406.287 160.652 411.309 174.024L413.558 182.817L436.837 179.978Z" fill="#47A138"/>
<path d="M422.803 159.619L433.261 160.966C433.558 161.004 433.861 160.978 434.147 160.889C434.434 160.8 434.698 160.65 434.921 160.45C435.145 160.249 435.322 160.003 435.442 159.728C435.562 159.453 435.621 159.155 435.615 158.856L435.416 148.345C435.603 146.821 435.179 145.286 434.236 144.074C433.293 142.863 431.908 142.075 430.385 141.884C428.862 141.692 427.325 142.112 426.111 143.052C424.897 143.992 424.106 145.375 423.91 146.897L421.06 156.981C420.979 157.269 420.961 157.572 421.007 157.869C421.053 158.165 421.162 158.448 421.328 158.699C421.493 158.949 421.71 159.161 421.965 159.319C422.219 159.478 422.505 159.58 422.803 159.619Z" fill="#47A138"/>
<path d="M444.427 125.644L445.995 127.424L448.068 126.281L448.375 124.531L448.467 124.003L448.988 124.132L449.866 124.35L443.162 112.185C443.162 112.184 443.161 112.184 443.161 112.183C439.715 106.052 435.533 104.215 432.261 103.863C430.61 103.685 429.168 103.884 428.139 104.127C427.625 104.248 427.216 104.38 426.937 104.481C426.798 104.531 426.692 104.574 426.623 104.603C426.588 104.617 426.562 104.629 426.545 104.636L426.528 104.644L426.525 104.645L426.525 104.645L426.525 104.645L426.524 104.645L426.413 104.697L426.29 104.691C422.3 104.502 419.481 105.345 417.482 106.672C415.482 108.001 414.26 109.844 413.518 111.734C412.775 113.627 412.521 115.553 412.455 117.014C412.421 117.743 412.435 118.351 412.457 118.776C412.461 118.862 412.466 118.941 412.471 119.011L426.058 119.628L427.335 117.303L427.953 116.178L428.259 117.425C429.634 123.027 429.106 128.141 428.238 131.848C427.804 133.703 427.283 135.209 426.871 136.255C426.816 136.392 426.764 136.522 426.713 136.644L443.71 128.727L443.553 126.004L443.47 124.557L444.427 125.644Z" stroke="black"/>
<path d="M399.596 166.222L399.854 166.153L422.076 160.188L422.354 160.113L422.429 159.835L423.768 154.861L431.253 155.862L429.695 165.158C429.58 165.843 429.246 166.473 428.743 166.952C428.24 167.431 427.595 167.735 426.905 167.816L400.909 170.887L400.63 170.92L400.513 171.175C400.142 171.981 399.535 172.656 398.772 173.109C398.009 173.561 397.126 173.771 396.24 173.71C395.355 173.649 394.509 173.319 393.816 172.766C393.122 172.212 392.614 171.46 392.358 170.611C392.102 169.761 392.11 168.853 392.383 168.009C392.655 167.164 393.178 166.422 393.883 165.882C394.587 165.342 395.439 165.029 396.325 164.985C397.211 164.941 398.09 165.168 398.844 165.636L399.596 166.222ZM399.596 166.222L399.395 166.046C399.223 165.895 399.038 165.758 398.844 165.636L399.596 166.222Z" stroke="black"/>
<path d="M165.857 272.397C165.752 272.089 165.575 271.811 165.341 271.586C165.255 271.506 165.161 271.434 165.062 271.37C164.269 270.842 163.085 270.723 162.331 271.37C162.256 271.436 162.186 271.508 162.122 271.586C161.897 271.862 161.666 272.133 161.43 272.397C161.041 272.84 160.643 273.268 160.227 273.684C160.109 273.8 159.99 273.918 159.869 274.034C159.799 274.103 159.729 274.17 159.659 274.237C159.392 274.492 159.119 274.738 158.842 274.981C158.696 275.112 158.551 275.239 158.402 275.364C158.18 275.549 157.959 275.734 157.734 275.913C157.713 275.929 157.691 275.944 157.67 275.962C157.664 275.965 157.661 275.971 157.655 275.974C157.652 275.974 157.649 275.974 157.646 275.98C157.637 275.983 157.63 275.989 157.624 275.995C157.558 276.041 157.512 276.071 157.479 276.099C157.491 276.093 157.503 276.083 157.515 276.077C157.46 276.12 157.403 276.162 157.348 276.205C156.817 276.597 156.273 276.973 155.717 277.326C154.342 278.205 152.898 278.972 151.399 279.618C151.299 279.658 151.196 279.7 151.092 279.74C147.167 281.348 142.909 281.975 138.687 281.568C138.256 281.535 137.824 281.489 137.393 281.431C136.895 281.358 136.4 281.27 135.908 281.17C134.035 280.796 132.203 280.243 130.436 279.518C128.226 278.506 126.124 277.273 124.162 275.837C123.858 275.622 123.552 275.406 123.245 275.197C123.594 274.34 123.937 273.484 124.271 272.621C124.438 272.205 124.599 271.789 124.757 271.37C125.999 268.142 127.165 264.884 128.283 261.613C129.413 258.3 130.478 254.968 131.481 251.616C131.584 251.276 131.684 250.936 131.781 250.596C132.307 248.825 132.811 247.051 133.294 245.272C133.339 245.099 133.388 244.929 133.43 244.756C133.57 244.246 133.707 243.735 133.84 243.225C134.144 242.074 133.458 240.699 132.249 240.422C131.667 240.273 131.05 240.356 130.528 240.652C130.005 240.949 129.619 241.437 129.449 242.014C129.318 242.506 129.188 242.994 129.054 243.486C128.413 245.864 127.739 248.234 127.032 250.596C126.928 250.936 126.825 251.276 126.722 251.616C125.161 256.76 123.447 261.853 121.581 266.894C121.356 267.504 121.128 268.113 120.897 268.719C120.785 269.017 120.673 269.314 120.557 269.612C120.336 270.198 120.108 270.784 119.88 271.37C119.749 271.713 119.616 272.057 119.482 272.397C119.394 272.612 119.309 272.828 119.224 273.041C118.358 272.73 117.461 272.514 116.549 272.397L116.403 272.379C115.695 272.293 114.98 272.3 114.274 272.397C113.218 272.52 112.201 272.874 111.296 273.433C110.392 273.993 109.621 274.744 109.039 275.634C107.59 277.915 107.608 281.176 109.64 283.114C111.732 285.109 114.9 285.094 117.362 283.846C118.668 283.139 119.768 282.108 120.557 280.851C120.86 280.396 121.137 279.924 121.389 279.439C121.453 279.482 121.517 279.524 121.581 279.57C121.824 279.74 122.067 279.913 122.306 280.083C123.704 281.096 125.177 282 126.713 282.789C130.014 284.43 133.568 285.505 137.226 285.968C137.308 285.977 137.387 285.99 137.469 285.999C137.873 286.05 138.28 286.09 138.687 286.123C144.524 286.563 150.369 285.368 155.565 282.673C156.006 282.446 156.442 282.207 156.874 281.957C157.545 281.568 158.201 281.155 158.842 280.718C159.191 280.481 159.532 280.241 159.869 279.989C161.342 278.904 162.715 277.689 163.971 276.36C164.448 275.859 164.905 275.341 165.341 274.808C165.754 274.372 165.991 273.799 166.009 273.198C166.007 272.924 165.955 272.653 165.857 272.397ZM115.571 279.63C115.635 279.585 115.698 279.536 115.759 279.488C115.741 279.533 115.653 279.585 115.571 279.63H115.571ZM116.546 278.65C116.476 278.729 116.412 278.807 116.342 278.886C116.13 279.124 115.901 279.347 115.659 279.555C115.625 279.585 115.589 279.615 115.553 279.643C115.552 279.643 115.552 279.643 115.551 279.643C115.551 279.643 115.551 279.643 115.55 279.643C115.55 279.644 115.55 279.644 115.55 279.644C115.55 279.645 115.55 279.645 115.55 279.646C115.506 279.665 115.463 279.688 115.422 279.712C115.291 279.791 115.158 279.864 115.021 279.931C114.754 280.03 114.478 280.106 114.198 280.159C113.983 280.175 113.767 280.177 113.551 280.165H113.545C113.396 280.132 113.25 280.091 113.105 280.043C113.032 280.007 112.962 279.965 112.892 279.922C112.865 279.898 112.841 279.873 112.826 279.858C112.796 279.831 112.768 279.802 112.744 279.77C112.744 279.77 112.743 279.769 112.743 279.769C112.743 279.769 112.743 279.768 112.743 279.768C112.742 279.768 112.742 279.767 112.742 279.767C112.741 279.767 112.741 279.767 112.74 279.767C112.707 279.706 112.671 279.646 112.637 279.585C112.636 279.583 112.634 279.581 112.634 279.579C112.61 279.503 112.589 279.424 112.57 279.345C112.564 279.206 112.565 279.067 112.573 278.929C112.614 278.735 112.669 278.544 112.737 278.358C112.799 278.226 112.869 278.098 112.947 277.975C112.953 277.963 112.983 277.915 113.017 277.86C113.02 277.857 113.02 277.857 113.02 277.854C113.065 277.802 113.111 277.748 113.16 277.699C113.242 277.608 113.33 277.529 113.418 277.447C113.589 277.335 113.766 277.232 113.949 277.14C114.239 277.037 114.537 276.957 114.839 276.9C115.285 276.865 115.733 276.869 116.178 276.913C116.6 276.986 117.016 277.088 117.423 277.219C117.176 277.698 116.895 278.159 116.582 278.598C116.57 278.616 116.558 278.634 116.546 278.65ZM113.169 277.65C113.142 277.693 113.11 277.733 113.075 277.769C113.099 277.724 113.131 277.684 113.169 277.65Z" fill="white"/>
<path d="M156.728 241.382C156.701 242.335 156.674 243.289 156.646 244.242C156.588 246.359 156.529 248.477 156.467 250.595C156.403 252.979 156.336 255.362 156.267 257.744C156.233 258.974 156.199 260.204 156.163 261.434C156.069 264.747 155.976 268.059 155.884 271.37C155.875 271.713 155.863 272.053 155.854 272.396C155.808 274.039 155.762 275.682 155.717 277.325C155.665 279.108 155.615 280.89 155.565 282.673C155.529 284.009 155.491 285.346 155.453 286.685C155.179 296.381 154.906 306.078 154.633 315.774C154.621 316.375 154.378 316.947 153.953 317.372C153.528 317.797 152.956 318.04 152.355 318.052C151.753 318.047 151.176 317.805 150.75 317.379C150.324 316.953 150.082 316.377 150.078 315.774C150.229 310.32 150.383 304.866 150.539 299.412C150.676 294.48 150.815 289.548 150.955 284.617C151.001 282.992 151.046 281.366 151.092 279.739C151.162 277.292 151.231 274.844 151.298 272.396C151.307 272.053 151.32 271.713 151.329 271.37C151.335 271.069 151.344 270.772 151.353 270.471C151.487 265.719 151.62 260.965 151.754 256.21C151.809 254.34 151.861 252.468 151.912 250.595C151.973 248.46 152.033 246.327 152.094 244.194C152.121 243.255 152.146 242.32 152.173 241.382C152.185 240.781 152.428 240.209 152.853 239.784C153.277 239.359 153.85 239.116 154.451 239.104C155.053 239.109 155.63 239.35 156.056 239.776C156.482 240.203 156.723 240.779 156.728 241.382Z" fill="white"/>
<path d="M281.671 242.014C279.283 251.057 276.428 259.971 273.119 268.72C272.206 271.133 271.272 273.541 270.273 275.92L270.503 275.376C270.057 276.51 269.488 277.59 268.805 278.599C268.759 278.664 268.712 278.728 268.664 278.792C268.9 278.49 268.944 278.431 268.798 278.613C268.721 278.705 268.645 278.796 268.565 278.885C268.352 279.123 268.124 279.347 267.882 279.554C267.821 279.607 267.759 279.658 267.696 279.707L267.981 279.486C267.948 279.564 267.716 279.668 267.644 279.712C267.41 279.853 267.166 279.977 266.913 280.082L267.458 279.852C267.044 280.019 266.613 280.137 266.173 280.205L266.778 280.123C266.345 280.183 265.907 280.188 265.473 280.137L266.078 280.219C265.723 280.17 265.376 280.076 265.044 279.94L265.588 280.17C265.412 280.093 265.241 280.002 265.079 279.898C264.996 279.844 264.743 279.652 265.074 279.905C265.418 280.168 265.118 279.928 265.047 279.858C264.988 279.8 264.935 279.736 264.877 279.677C264.61 279.402 265.18 280.15 264.998 279.828C264.901 279.667 264.812 279.502 264.731 279.331L264.961 279.875C264.856 279.617 264.782 279.346 264.74 279.07L264.821 279.676C264.778 279.332 264.777 278.985 264.82 278.642L264.739 279.247C264.795 278.864 264.896 278.489 265.041 278.13L264.811 278.674C264.912 278.432 265.032 278.199 265.169 277.976C265.232 277.86 265.306 277.751 265.39 277.65C265.405 277.655 265.005 278.11 265.217 277.88C265.273 277.82 265.325 277.757 265.381 277.697C265.471 277.602 265.567 277.515 265.662 277.425C265.979 277.123 265.218 277.718 265.584 277.479C265.85 277.305 266.129 277.152 266.419 277.024L265.875 277.253C266.361 277.054 266.871 276.917 267.392 276.847L266.787 276.928C267.439 276.853 268.098 276.861 268.749 276.951L268.143 276.87C268.967 276.995 269.772 277.221 270.54 277.544L269.996 277.314C271.632 278.017 273.082 279.06 274.529 280.083C275.927 281.095 277.399 282 278.934 282.788C282.236 284.43 285.79 285.505 289.448 285.969C294.695 286.611 300.018 285.926 304.931 283.976C309.843 282.026 314.187 278.874 317.565 274.808C317.977 274.371 318.214 273.798 318.232 273.197C318.227 272.594 317.988 272.016 317.565 271.587C316.729 270.82 315.151 270.603 314.344 271.587C313.579 272.521 312.757 273.406 311.882 274.237C311.473 274.625 311.054 275 310.624 275.364C310.378 275.571 310.129 275.775 309.877 275.974C309.757 276.069 309.385 276.32 309.956 275.914C309.826 276.007 309.7 276.109 309.571 276.204C307.658 277.614 305.586 278.793 303.396 279.716L303.94 279.487C301.591 280.472 299.123 281.148 296.6 281.498L297.205 281.417C294.609 281.758 291.98 281.754 289.385 281.405L289.99 281.486C287.396 281.13 284.858 280.439 282.441 279.43L282.985 279.66C280.653 278.628 278.44 277.346 276.385 275.836C275.315 275.044 274.187 274.334 273.01 273.712C271.639 273.012 270.154 272.561 268.625 272.38C265.759 272.042 262.838 273.159 261.262 275.635C259.812 277.914 259.831 281.175 261.862 283.113C263.953 285.109 267.121 285.092 269.586 283.844C271.96 282.641 273.386 280.143 274.389 277.788C276.645 272.487 278.643 267.064 280.505 261.613C282.346 256.22 284.016 250.773 285.515 245.271C285.7 244.59 285.883 243.907 286.064 243.225C286.368 242.074 285.681 240.698 284.473 240.423C283.891 240.273 283.273 240.355 282.75 240.652C282.228 240.949 281.841 241.437 281.671 242.014L281.671 242.014Z" fill="white"/>
<path d="M304.396 241.381L303.577 270.472L302.761 299.411L302.3 315.774C302.305 316.376 302.547 316.953 302.973 317.379C303.399 317.805 303.975 318.046 304.577 318.052C305.178 318.04 305.751 317.796 306.175 317.372C306.6 316.947 306.843 316.374 306.855 315.774L307.675 286.684L308.49 257.745L308.952 241.381C308.946 240.779 308.705 240.202 308.279 239.776C307.853 239.35 307.276 239.109 306.674 239.104C306.074 239.115 305.501 239.359 305.076 239.783C304.652 240.208 304.408 240.781 304.396 241.381Z" fill="white"/>
<path d="M222.263 294.184C221.077 299.554 218.235 304.4 214.151 308.02C213.852 308.283 213.552 308.537 213.241 308.788C212.484 308.858 211.733 308.929 210.987 309.001C210.368 309.059 209.757 309.12 209.151 309.178L209.041 309.19L208.965 308.517L208.657 305.791C207.464 303.815 206.725 301.591 206.494 299.286C206.263 296.98 206.546 294.651 207.322 292.472C208.39 289.549 210.324 286.966 212.225 284.404C214.851 280.865 217.404 277.367 217.497 273.052C218.789 274.73 219.863 276.569 220.693 278.525C219.91 278.899 219.206 279.425 218.622 280.073C218.456 280.258 218.29 280.516 218.403 280.738C218.5 280.927 218.743 280.972 218.953 280.997C219.459 281.05 219.969 281.103 220.475 281.157C220.879 281.202 221.284 281.243 221.688 281.288C222.178 282.918 222.51 284.593 222.679 286.289C222.952 288.926 222.811 291.591 222.263 294.184Z" fill="white"/>
<path d="M235.874 283.412C233.471 285.154 232.066 287.66 230.974 290.421C229.856 290.778 228.849 291.419 228.054 292.281C227.887 292.464 227.72 292.72 227.834 292.939C227.932 293.126 228.176 293.171 228.388 293.195C228.897 293.248 229.41 293.301 229.92 293.353C228.828 296.618 227.826 299.997 225.896 302.755C224.612 304.575 222.938 306.088 220.996 307.185C220.467 307.486 219.92 307.756 219.359 307.993C217.29 308.152 215.261 308.321 213.27 308.501C212.509 308.57 211.753 308.64 211.002 308.712C210.379 308.769 209.764 308.83 209.153 308.887C209.149 308.663 209.149 308.44 209.153 308.217C209.282 302.267 211.477 296.546 215.364 292.029C215.547 291.818 215.734 291.611 215.926 291.404C217.895 289.307 220.211 287.562 222.772 286.247C226.808 284.154 231.331 283.176 235.874 283.412Z" fill="#47A138"/>
<path d="M211.62 306.703L211.152 308.089L210.916 308.795C210.294 308.852 209.68 308.913 209.07 308.97L208.96 308.982C208.285 309.052 207.613 309.121 206.942 309.19C206.767 308.986 206.593 308.778 206.422 308.566C202.176 303.413 200.139 296.785 200.754 290.131C201.369 283.476 204.586 277.336 209.704 273.052C209.167 275.869 209.794 278.568 210.823 281.247C210.713 281.292 210.607 281.337 210.505 281.386C209.718 281.757 209.011 282.279 208.423 282.922C208.256 283.106 208.089 283.363 208.203 283.583C208.301 283.771 208.545 283.815 208.756 283.84C209.265 283.893 209.777 283.946 210.286 283.999C210.692 284.044 211.099 284.084 211.506 284.129C211.697 284.15 211.888 284.17 212.079 284.19C212.108 284.252 212.132 284.309 212.161 284.37C213.32 286.889 214.568 289.421 215.272 292.047C215.449 292.705 215.587 293.374 215.687 294.048C216 296.329 215.797 298.65 215.093 300.841C214.389 303.032 213.202 305.035 211.62 306.703Z" fill="#47A138"/>
<path d="M243.872 263.353C241.258 258.254 237.207 253.963 232.444 250.81C227.665 247.662 222.181 245.744 216.482 245.229C215.735 245.161 214.986 245.121 214.235 245.109C213.348 245.096 200.002 248.945 195.532 252.089C191.064 255.194 187.388 259.305 184.802 264.092C182.22 268.905 180.95 274.313 181.12 279.772C181.341 285.264 182.872 290.624 185.585 295.404C188.26 300.169 192.06 304.209 196.652 307.171C201.31 310.143 205.989 318.023 211.488 318.301C217.029 318.581 223.348 311.148 228.402 308.891C233.455 306.615 237.824 303.055 241.073 298.564C244.23 294.164 246.272 289.063 247.025 283.7C247.806 278.208 247.442 272.545 245.567 267.296C245.085 265.948 244.519 264.631 243.872 263.353C243.332 262.289 241.748 261.897 240.756 262.536C240.245 262.851 239.875 263.35 239.723 263.931C239.571 264.511 239.648 265.128 239.939 265.653C240.256 266.278 240.551 266.913 240.824 267.559L240.595 267.015C241.627 269.497 242.329 272.105 242.683 274.77L242.601 274.165C242.978 277.056 242.971 279.985 242.581 282.875L242.663 282.27C242.269 285.159 241.498 287.985 240.368 290.674L240.598 290.13C240.017 291.502 239.34 292.831 238.572 294.107C238.183 294.752 237.77 295.382 237.333 295.997C237.141 296.266 236.943 296.532 236.744 296.796C236.484 297.141 237.098 296.345 236.83 296.684C236.784 296.741 236.738 296.799 236.693 296.856C236.555 297.029 236.415 297.2 236.273 297.369C235.326 298.499 234.293 299.553 233.183 300.522C232.906 300.764 232.625 301 232.339 301.23C232.197 301.345 232.056 301.465 231.907 301.572C231.913 301.568 232.387 301.208 232.107 301.417C232.018 301.482 231.931 301.549 231.842 301.615C231.253 302.051 230.649 302.465 230.028 302.857C228.6 303.757 227.101 304.54 225.547 305.2L226.091 304.97C223.41 306.099 220.593 306.87 217.711 307.263L218.316 307.182C215.436 307.571 212.516 307.576 209.634 307.197L210.24 307.279C207.62 306.927 205.058 306.234 202.619 305.218L203.163 305.448C201.75 304.851 200.387 304.141 199.089 303.325C198.446 302.92 197.82 302.49 197.211 302.035C197.124 301.97 197.038 301.904 196.951 301.839C196.673 301.629 197.151 301.994 197.155 301.996C196.993 301.88 196.837 301.756 196.689 301.624C196.394 301.385 196.105 301.14 195.82 300.889C194.679 299.884 193.614 298.797 192.633 297.637C192.387 297.346 192.147 297.052 191.912 296.753C191.81 296.623 191.625 296.361 192.035 296.913C191.981 296.841 191.925 296.769 191.87 296.697C191.739 296.523 191.61 296.349 191.483 296.172C191.037 295.555 190.613 294.923 190.211 294.276C189.303 292.81 188.511 291.276 187.841 289.687L188.07 290.232C186.974 287.624 186.225 284.884 185.841 282.082L185.923 282.687C185.576 280.104 185.571 277.486 185.908 274.902L185.827 275.507C186.172 273.005 186.845 270.558 187.829 268.232L187.6 268.776C188.219 267.319 188.949 265.912 189.785 264.568C190.203 263.895 190.646 263.239 191.114 262.598C191.22 262.453 191.328 262.309 191.437 262.165C191.535 262.035 191.806 261.711 191.344 262.283C191.389 262.227 191.433 262.169 191.477 262.113C191.734 261.787 191.997 261.467 192.267 261.152C193.287 259.958 194.391 258.839 195.572 257.805C195.87 257.543 196.173 257.287 196.481 257.037C196.621 256.923 196.762 256.81 196.904 256.699C196.96 256.654 197.018 256.61 197.074 256.566C196.468 257.048 196.906 256.697 197.043 256.594C197.678 256.118 198.329 255.667 198.998 255.239C200.484 254.289 202.047 253.465 203.67 252.777L203.126 253.006C205.483 252.017 215.924 249.681 217.823 249.936L217.217 249.855C220.008 250.244 222.736 250.998 225.331 252.097L224.787 251.867C226.102 252.426 227.381 253.068 228.614 253.789C229.23 254.15 229.834 254.531 230.426 254.932C230.706 255.121 230.983 255.315 231.257 255.513C231.394 255.612 231.531 255.712 231.666 255.814C231.742 255.87 231.816 255.927 231.891 255.983C232.207 256.22 231.457 255.64 231.788 255.902C232.895 256.772 233.946 257.711 234.936 258.712C235.422 259.207 235.891 259.718 236.344 260.244C236.576 260.514 236.804 260.788 237.026 261.066C237.137 261.205 237.514 261.705 237.052 261.092C237.165 261.242 237.279 261.391 237.39 261.541C238.35 262.84 239.202 264.215 239.939 265.653C240.483 266.715 242.061 267.111 243.055 266.47C243.566 266.155 243.936 265.656 244.088 265.075C244.241 264.495 244.163 263.878 243.872 263.353Z" fill="white"/>
<path d="M114.918 281.555C116.763 281.555 118.258 280.06 118.258 278.215C118.258 276.37 116.763 274.875 114.918 274.875C113.073 274.875 111.577 276.37 111.577 278.215C111.577 280.06 113.073 281.555 114.918 281.555Z" fill="white"/>
<path d="M155.003 317.997C156.848 317.997 158.344 316.501 158.344 314.656C158.344 312.812 156.848 311.316 155.003 311.316C153.158 311.316 151.663 312.812 151.663 314.656C151.663 316.501 153.158 317.997 155.003 317.997Z" fill="white"/>
<path d="M307.148 317.997C308.993 317.997 310.488 316.501 310.488 314.656C310.488 312.812 308.993 311.316 307.148 311.316C305.303 311.316 303.807 312.812 303.807 314.656C303.807 316.501 305.303 317.997 307.148 317.997Z" fill="white"/>
<path d="M315.346 275.482C317.191 275.482 318.687 273.986 318.687 272.141C318.687 270.296 317.191 268.801 315.346 268.801C313.501 268.801 312.006 270.296 312.006 272.141C312.006 273.986 313.501 275.482 315.346 275.482Z" fill="white"/>
<path d="M305.629 244.507C307.474 244.507 308.969 243.011 308.969 241.166C308.969 239.321 307.474 237.826 305.629 237.826C303.784 237.826 302.288 239.321 302.288 241.166C302.288 243.011 303.784 244.507 305.629 244.507Z" fill="white"/>
<path d="M166.24 272.141C166.238 272.995 165.908 273.815 165.318 274.431C164.728 275.048 163.924 275.415 163.072 275.455C162.219 275.495 161.384 275.206 160.739 274.648C160.094 274.09 159.688 273.305 159.605 272.455C159.523 271.606 159.77 270.758 160.295 270.085C160.821 269.413 161.585 268.969 162.429 268.844C163.273 268.72 164.133 268.924 164.83 269.416C165.528 269.908 166.009 270.649 166.176 271.485C166.219 271.701 166.24 271.921 166.24 272.141Z" fill="white"/>
<path d="M156.825 241.166C156.823 242.02 156.493 242.839 155.904 243.456C155.314 244.073 154.51 244.439 153.658 244.48C152.805 244.52 151.97 244.231 151.325 243.673C150.68 243.115 150.274 242.33 150.191 241.48C150.108 240.631 150.356 239.782 150.881 239.11C151.407 238.438 152.171 237.994 153.015 237.869C153.859 237.745 154.719 237.949 155.416 238.441C156.114 238.933 156.595 239.673 156.762 240.51C156.804 240.726 156.826 240.946 156.825 241.166Z" fill="white"/>
<path d="M267.973 282.77C269.818 282.77 271.313 281.275 271.313 279.43C271.313 277.585 269.818 276.089 267.973 276.089C266.128 276.089 264.632 277.585 264.632 279.43C264.632 281.275 266.128 282.77 267.973 282.77Z" fill="white"/>
</svg>
