<svg width="181" height="178" viewBox="0 0 181 178" fill="none" xmlns="http://www.w3.org/2000/svg">
<g opacity="0.3">
<rect width="45.0107" height="45.0107" transform="matrix(1 -8.74228e-08 -8.74228e-08 -1 3.05176e-05 132.497)" fill="#D9D9D9"/>
<rect width="45.0107" height="45.0107" transform="matrix(1 -8.74228e-08 -8.74228e-08 -1 45.0107 132.497)" fill="#D9D9D9" fill-opacity="0.5"/>
<rect width="45.0107" height="45.0107" transform="matrix(1 -8.74228e-08 -8.74228e-08 -1 45.0107 87.4858)" fill="#D9D9D9" fill-opacity="0.9"/>
<rect width="45.0107" height="45.0107" transform="matrix(1 -8.74228e-08 -8.74228e-08 -1 90.0216 132.497)" fill="#D9D9D9" fill-opacity="0.9"/>
<rect width="45.0107" height="45.0107" transform="matrix(1 -8.74228e-08 -8.74228e-08 -1 135.032 132.497)" fill="#D9D9D9" fill-opacity="0.5"/>
<rect width="45.0107" height="45.0107" transform="matrix(1 -8.74228e-08 -8.74228e-08 -1 135.032 177.507)" fill="#D9D9D9" fill-opacity="0.9"/>
<rect width="45.0107" height="45.0107" transform="matrix(1 -8.74228e-08 -8.74228e-08 -1 1.52588e-05 45.0107)" fill="#D9D9D9" fill-opacity="0.9"/>
</g>
</svg>
