<svg width="327" height="164" viewBox="0 0 327 164" fill="none" xmlns="http://www.w3.org/2000/svg">
<rect width="327" height="164" rx="8" fill="#47A138"/>
<mask id="mask0_481_1119" style="mask-type:alpha" maskUnits="userSpaceOnUse" x="0" y="0" width="327" height="164">
<rect width="327" height="164" rx="8" fill="#2567F9"/>
</mask>
<g mask="url(#mask0_481_1119)">
<g style="mix-blend-mode:overlay" opacity="0.5">
<rect x="197.078" y="164.314" width="41.0785" height="41.0785" transform="rotate(-90 197.078 164.314)" fill="#D9D9D9"/>
<rect x="197.079" y="123.236" width="41.0785" height="41.0785" transform="rotate(-90 197.079 123.236)" fill="#D9D9D9" fill-opacity="0.5"/>
<rect x="238.157" y="123.236" width="41.0785" height="41.0785" transform="rotate(-90 238.157 123.236)" fill="#D9D9D9" fill-opacity="0.9"/>
<rect x="197.079" y="82.1572" width="41.0785" height="41.0785" transform="rotate(-90 197.079 82.1572)" fill="#D9D9D9" fill-opacity="0.9"/>
<rect x="197.079" y="41.0791" width="41.0785" height="41.0785" transform="rotate(-90 197.079 41.0791)" fill="#D9D9D9" fill-opacity="0.5"/>
<rect x="156" y="41.0791" width="41.0785" height="41.0785" transform="rotate(-90 156 41.0791)" fill="#D9D9D9" fill-opacity="0.9"/>
<rect x="276.922" y="164.314" width="41.0785" height="41.0785" transform="rotate(-90 276.922 164.314)" fill="#D9D9D9" fill-opacity="0.9"/>
</g>
</g>
<path d="M18.448 138.572C18.088 138.572 17.756 138.488 17.452 138.32C17.148 138.144 16.908 137.904 16.732 137.6C16.564 137.296 16.48 136.956 16.48 136.58C16.48 136.204 16.564 135.868 16.732 135.572C16.908 135.268 17.144 135.032 17.44 134.864C17.744 134.696 18.08 134.612 18.448 134.612C18.816 134.612 19.152 134.696 19.456 134.864C19.76 135.032 20 135.268 20.176 135.572C20.352 135.868 20.44 136.204 20.44 136.58C20.44 136.956 20.352 137.296 20.176 137.6C20 137.904 19.76 138.144 19.456 138.32C19.152 138.488 18.816 138.572 18.448 138.572ZM27.4235 138.572C27.0635 138.572 26.7315 138.488 26.4275 138.32C26.1235 138.144 25.8835 137.904 25.7075 137.6C25.5395 137.296 25.4555 136.956 25.4555 136.58C25.4555 136.204 25.5395 135.868 25.7075 135.572C25.8835 135.268 26.1195 135.032 26.4155 134.864C26.7195 134.696 27.0555 134.612 27.4235 134.612C27.7915 134.612 28.1275 134.696 28.4315 134.864C28.7355 135.032 28.9755 135.268 29.1515 135.572C29.3275 135.868 29.4155 136.204 29.4155 136.58C29.4155 136.956 29.3275 137.296 29.1515 137.6C28.9755 137.904 28.7355 138.144 28.4315 138.32C28.1275 138.488 27.7915 138.572 27.4235 138.572ZM36.3991 138.572C36.0391 138.572 35.7071 138.488 35.4031 138.32C35.0991 138.144 34.8591 137.904 34.6831 137.6C34.5151 137.296 34.4311 136.956 34.4311 136.58C34.4311 136.204 34.5151 135.868 34.6831 135.572C34.8591 135.268 35.0951 135.032 35.3911 134.864C35.6951 134.696 36.0311 134.612 36.3991 134.612C36.7671 134.612 37.1031 134.696 37.4071 134.864C37.7111 135.032 37.9511 135.268 38.1271 135.572C38.3031 135.868 38.3911 136.204 38.3911 136.58C38.3911 136.956 38.3031 137.296 38.1271 137.6C37.9511 137.904 37.7111 138.144 37.4071 138.32C37.1031 138.488 36.7671 138.572 36.3991 138.572ZM45.3746 138.572C45.0146 138.572 44.6826 138.488 44.3786 138.32C44.0746 138.144 43.8346 137.904 43.6586 137.6C43.4906 137.296 43.4066 136.956 43.4066 136.58C43.4066 136.204 43.4906 135.868 43.6586 135.572C43.8346 135.268 44.0706 135.032 44.3666 134.864C44.6706 134.696 45.0066 134.612 45.3746 134.612C45.7426 134.612 46.0786 134.696 46.3826 134.864C46.6866 135.032 46.9266 135.268 47.1026 135.572C47.2786 135.868 47.3666 136.204 47.3666 136.58C47.3666 136.956 47.2786 137.296 47.1026 137.6C46.9266 137.904 46.6866 138.144 46.3826 138.32C46.0786 138.488 45.7426 138.572 45.3746 138.572Z" fill="white"/>
<path d="M55.448 138.572C55.088 138.572 54.756 138.488 54.452 138.32C54.148 138.144 53.908 137.904 53.732 137.6C53.564 137.296 53.48 136.956 53.48 136.58C53.48 136.204 53.564 135.868 53.732 135.572C53.908 135.268 54.144 135.032 54.44 134.864C54.744 134.696 55.08 134.612 55.448 134.612C55.816 134.612 56.152 134.696 56.456 134.864C56.76 135.032 57 135.268 57.176 135.572C57.352 135.868 57.44 136.204 57.44 136.58C57.44 136.956 57.352 137.296 57.176 137.6C57 137.904 56.76 138.144 56.456 138.32C56.152 138.488 55.816 138.572 55.448 138.572ZM64.4235 138.572C64.0635 138.572 63.7315 138.488 63.4275 138.32C63.1235 138.144 62.8835 137.904 62.7075 137.6C62.5395 137.296 62.4555 136.956 62.4555 136.58C62.4555 136.204 62.5395 135.868 62.7075 135.572C62.8835 135.268 63.1195 135.032 63.4155 134.864C63.7195 134.696 64.0555 134.612 64.4235 134.612C64.7915 134.612 65.1275 134.696 65.4315 134.864C65.7355 135.032 65.9755 135.268 66.1515 135.572C66.3275 135.868 66.4155 136.204 66.4155 136.58C66.4155 136.956 66.3275 137.296 66.1515 137.6C65.9755 137.904 65.7355 138.144 65.4315 138.32C65.1275 138.488 64.7915 138.572 64.4235 138.572ZM73.3991 138.572C73.0391 138.572 72.7071 138.488 72.4031 138.32C72.0991 138.144 71.8591 137.904 71.6831 137.6C71.5151 137.296 71.4311 136.956 71.4311 136.58C71.4311 136.204 71.5151 135.868 71.6831 135.572C71.8591 135.268 72.0951 135.032 72.3911 134.864C72.6951 134.696 73.0311 134.612 73.3991 134.612C73.7671 134.612 74.1031 134.696 74.4071 134.864C74.7111 135.032 74.9511 135.268 75.1271 135.572C75.3031 135.868 75.3911 136.204 75.3911 136.58C75.3911 136.956 75.3031 137.296 75.1271 137.6C74.9511 137.904 74.7111 138.144 74.4071 138.32C74.1031 138.488 73.7671 138.572 73.3991 138.572ZM82.3746 138.572C82.0146 138.572 81.6826 138.488 81.3786 138.32C81.0746 138.144 80.8346 137.904 80.6586 137.6C80.4906 137.296 80.4066 136.956 80.4066 136.58C80.4066 136.204 80.4906 135.868 80.6586 135.572C80.8346 135.268 81.0706 135.032 81.3666 134.864C81.6706 134.696 82.0066 134.612 82.3746 134.612C82.7426 134.612 83.0786 134.696 83.3826 134.864C83.6866 135.032 83.9266 135.268 84.1026 135.572C84.2786 135.868 84.3666 136.204 84.3666 136.58C84.3666 136.956 84.2786 137.296 84.1026 137.6C83.9266 137.904 83.6866 138.144 83.3826 138.32C83.0786 138.488 82.7426 138.572 82.3746 138.572Z" fill="white"/>
<path d="M18.268 112.072C17.796 112.072 17.352 111.968 16.936 111.76C16.528 111.552 16.2 111.256 15.952 110.872L16.468 110.272C16.7 110.608 16.968 110.864 17.272 111.04C17.576 111.216 17.912 111.304 18.28 111.304C19.32 111.304 19.84 110.688 19.84 109.456V104.368H16.768V103.6H20.716V109.42C20.716 110.308 20.508 110.972 20.092 111.412C19.684 111.852 19.076 112.072 18.268 112.072ZM26.9677 112.06C26.3597 112.06 25.8117 111.924 25.3237 111.652C24.8437 111.372 24.4637 110.992 24.1837 110.512C23.9037 110.024 23.7637 109.468 23.7637 108.844C23.7637 108.212 23.9037 107.656 24.1837 107.176C24.4637 106.696 24.8437 106.32 25.3237 106.048C25.8037 105.776 26.3517 105.64 26.9677 105.64C27.5917 105.64 28.1437 105.776 28.6237 106.048C29.1117 106.32 29.4917 106.696 29.7637 107.176C30.0437 107.656 30.1837 108.212 30.1837 108.844C30.1837 109.468 30.0437 110.024 29.7637 110.512C29.4917 110.992 29.1117 111.372 28.6237 111.652C28.1357 111.924 27.5837 112.06 26.9677 112.06ZM26.9677 111.304C27.4237 111.304 27.8277 111.204 28.1797 111.004C28.5317 110.796 28.8077 110.508 29.0077 110.14C29.2157 109.764 29.3197 109.332 29.3197 108.844C29.3197 108.348 29.2157 107.916 29.0077 107.548C28.8077 107.18 28.5317 106.896 28.1797 106.696C27.8277 106.488 27.4277 106.384 26.9797 106.384C26.5317 106.384 26.1317 106.488 25.7797 106.696C25.4277 106.896 25.1477 107.18 24.9397 107.548C24.7317 107.916 24.6277 108.348 24.6277 108.844C24.6277 109.332 24.7317 109.764 24.9397 110.14C25.1477 110.508 25.4277 110.796 25.7797 111.004C26.1317 111.204 26.5277 111.304 26.9677 111.304ZM37.036 112V110.608L37 110.38V108.052C37 107.516 36.848 107.104 36.544 106.816C36.248 106.528 35.804 106.384 35.212 106.384C34.804 106.384 34.416 106.452 34.048 106.588C33.68 106.724 33.368 106.904 33.112 107.128L32.728 106.492C33.048 106.22 33.432 106.012 33.88 105.868C34.328 105.716 34.8 105.64 35.296 105.64C36.112 105.64 36.74 105.844 37.18 106.252C37.628 106.652 37.852 107.264 37.852 108.088V112H37.036ZM34.864 112.06C34.392 112.06 33.98 111.984 33.628 111.832C33.284 111.672 33.02 111.456 32.836 111.184C32.652 110.904 32.56 110.584 32.56 110.224C32.56 109.896 32.636 109.6 32.788 109.336C32.948 109.064 33.204 108.848 33.556 108.688C33.916 108.52 34.396 108.436 34.996 108.436H37.168V109.072H35.02C34.412 109.072 33.988 109.18 33.748 109.396C33.516 109.612 33.4 109.88 33.4 110.2C33.4 110.56 33.54 110.848 33.82 111.064C34.1 111.28 34.492 111.388 34.996 111.388C35.476 111.388 35.888 111.28 36.232 111.064C36.584 110.84 36.84 110.52 37 110.104L37.192 110.692C37.032 111.108 36.752 111.44 36.352 111.688C35.96 111.936 35.464 112.06 34.864 112.06ZM44.5821 105.64C45.0941 105.64 45.5421 105.74 45.9261 105.94C46.3181 106.132 46.6221 106.428 46.8381 106.828C47.0621 107.228 47.1741 107.732 47.1741 108.34V112H46.3221V108.424C46.3221 107.76 46.1541 107.26 45.8181 106.924C45.4901 106.58 45.0261 106.408 44.4261 106.408C43.9781 106.408 43.5861 106.5 43.2501 106.684C42.9221 106.86 42.6661 107.12 42.4821 107.464C42.3061 107.8 42.2181 108.208 42.2181 108.688V112H41.3661V105.7H42.1821V107.428L42.0501 107.104C42.2501 106.648 42.5701 106.292 43.0101 106.036C43.4501 105.772 43.9741 105.64 44.5821 105.64ZM54.6235 112V110.608L54.5875 110.38V108.052C54.5875 107.516 54.4355 107.104 54.1315 106.816C53.8355 106.528 53.3915 106.384 52.7995 106.384C52.3915 106.384 52.0035 106.452 51.6355 106.588C51.2675 106.724 50.9555 106.904 50.6995 107.128L50.3155 106.492C50.6355 106.22 51.0195 106.012 51.4675 105.868C51.9155 105.716 52.3875 105.64 52.8835 105.64C53.6995 105.64 54.3275 105.844 54.7675 106.252C55.2155 106.652 55.4395 107.264 55.4395 108.088V112H54.6235ZM52.4515 112.06C51.9795 112.06 51.5675 111.984 51.2155 111.832C50.8715 111.672 50.6075 111.456 50.4235 111.184C50.2395 110.904 50.1475 110.584 50.1475 110.224C50.1475 109.896 50.2235 109.6 50.3755 109.336C50.5355 109.064 50.7915 108.848 51.1435 108.688C51.5035 108.52 51.9835 108.436 52.5835 108.436H54.7555V109.072H52.6075C51.9995 109.072 51.5755 109.18 51.3355 109.396C51.1035 109.612 50.9875 109.88 50.9875 110.2C50.9875 110.56 51.1275 110.848 51.4075 111.064C51.6875 111.28 52.0795 111.388 52.5835 111.388C53.0635 111.388 53.4755 111.28 53.8195 111.064C54.1715 110.84 54.4275 110.52 54.5875 110.104L54.7795 110.692C54.6195 111.108 54.3395 111.44 53.9395 111.688C53.5475 111.936 53.0515 112.06 52.4515 112.06ZM64.2663 107.668H68.7063V108.436H64.2663V107.668ZM64.3623 112H63.4743V103.6H69.2343V104.368H64.3623V112ZM74.4451 112.06C73.8371 112.06 73.2891 111.924 72.8011 111.652C72.3211 111.372 71.9411 110.992 71.6611 110.512C71.3811 110.024 71.2411 109.468 71.2411 108.844C71.2411 108.212 71.3811 107.656 71.6611 107.176C71.9411 106.696 72.3211 106.32 72.8011 106.048C73.2811 105.776 73.8291 105.64 74.4451 105.64C75.0691 105.64 75.6211 105.776 76.1011 106.048C76.5891 106.32 76.9691 106.696 77.2411 107.176C77.5211 107.656 77.6611 108.212 77.6611 108.844C77.6611 109.468 77.5211 110.024 77.2411 110.512C76.9691 110.992 76.5891 111.372 76.1011 111.652C75.6131 111.924 75.0611 112.06 74.4451 112.06ZM74.4451 111.304C74.9011 111.304 75.3051 111.204 75.6571 111.004C76.0091 110.796 76.2851 110.508 76.4851 110.14C76.6931 109.764 76.7971 109.332 76.7971 108.844C76.7971 108.348 76.6931 107.916 76.4851 107.548C76.2851 107.18 76.0091 106.896 75.6571 106.696C75.3051 106.488 74.9051 106.384 74.4571 106.384C74.0091 106.384 73.6091 106.488 73.2571 106.696C72.9051 106.896 72.6251 107.18 72.4171 107.548C72.2091 107.916 72.1051 108.348 72.1051 108.844C72.1051 109.332 72.2091 109.764 72.4171 110.14C72.6251 110.508 72.9051 110.796 73.2571 111.004C73.6091 111.204 74.0051 111.304 74.4451 111.304ZM83.8165 105.64C84.3285 105.64 84.7765 105.74 85.1605 105.94C85.5525 106.132 85.8565 106.428 86.0725 106.828C86.2965 107.228 86.4085 107.732 86.4085 108.34V112H85.5565V108.424C85.5565 107.76 85.3885 107.26 85.0525 106.924C84.7245 106.58 84.2605 106.408 83.6605 106.408C83.2125 106.408 82.8205 106.5 82.4845 106.684C82.1565 106.86 81.9005 107.12 81.7165 107.464C81.5405 107.8 81.4525 108.208 81.4525 108.688V112H80.6005V105.7H81.4165V107.428L81.2845 107.104C81.4845 106.648 81.8045 106.292 82.2445 106.036C82.6845 105.772 83.2085 105.64 83.8165 105.64ZM91.6019 112.06C91.0819 112.06 90.5899 111.988 90.1259 111.844C89.6619 111.692 89.2979 111.504 89.0339 111.28L89.4179 110.608C89.6739 110.8 90.0019 110.968 90.4019 111.112C90.8019 111.248 91.2219 111.316 91.6619 111.316C92.2619 111.316 92.6939 111.224 92.9579 111.04C93.2219 110.848 93.3539 110.596 93.3539 110.284C93.3539 110.052 93.2779 109.872 93.1259 109.744C92.9819 109.608 92.7899 109.508 92.5499 109.444C92.3099 109.372 92.0419 109.312 91.7459 109.264C91.4499 109.216 91.1539 109.16 90.8579 109.096C90.5699 109.032 90.3059 108.94 90.0659 108.82C89.8259 108.692 89.6299 108.52 89.4779 108.304C89.3339 108.088 89.2619 107.8 89.2619 107.44C89.2619 107.096 89.3579 106.788 89.5499 106.516C89.7419 106.244 90.0219 106.032 90.3899 105.88C90.7659 105.72 91.2219 105.64 91.7579 105.64C92.1659 105.64 92.5739 105.696 92.9819 105.808C93.3899 105.912 93.7259 106.052 93.9899 106.228L93.6179 106.912C93.3379 106.72 93.0379 106.584 92.7179 106.504C92.3979 106.416 92.0779 106.372 91.7579 106.372C91.1899 106.372 90.7699 106.472 90.4979 106.672C90.2339 106.864 90.1019 107.112 90.1019 107.416C90.1019 107.656 90.1739 107.844 90.3179 107.98C90.4699 108.116 90.6659 108.224 90.9059 108.304C91.1539 108.376 91.4219 108.436 91.7099 108.484C92.0059 108.532 92.2979 108.592 92.5859 108.664C92.8819 108.728 93.1499 108.82 93.3899 108.94C93.6379 109.052 93.8339 109.216 93.9779 109.432C94.1299 109.64 94.2059 109.916 94.2059 110.26C94.2059 110.628 94.1019 110.948 93.8939 111.22C93.6939 111.484 93.3979 111.692 93.0059 111.844C92.6219 111.988 92.1539 112.06 91.6019 112.06ZM99.6453 112.06C98.9893 112.06 98.4133 111.924 97.9173 111.652C97.4213 111.372 97.0333 110.992 96.7533 110.512C96.4733 110.024 96.3333 109.468 96.3333 108.844C96.3333 108.22 96.4653 107.668 96.7293 107.188C97.0013 106.708 97.3693 106.332 97.8333 106.06C98.3053 105.78 98.8333 105.64 99.4173 105.64C100.009 105.64 100.533 105.776 100.989 106.048C101.453 106.312 101.817 106.688 102.081 107.176C102.345 107.656 102.477 108.212 102.477 108.844C102.477 108.884 102.473 108.928 102.465 108.976C102.465 109.016 102.465 109.06 102.465 109.108H96.9813V108.472H102.009L101.673 108.724C101.673 108.268 101.573 107.864 101.373 107.512C101.181 107.152 100.917 106.872 100.581 106.672C100.245 106.472 99.8573 106.372 99.4173 106.372C98.9853 106.372 98.5973 106.472 98.2533 106.672C97.9093 106.872 97.6413 107.152 97.4493 107.512C97.2573 107.872 97.1613 108.284 97.1613 108.748V108.88C97.1613 109.36 97.2653 109.784 97.4733 110.152C97.6893 110.512 97.9853 110.796 98.3613 111.004C98.7453 111.204 99.1813 111.304 99.6693 111.304C100.053 111.304 100.409 111.236 100.737 111.1C101.073 110.964 101.361 110.756 101.601 110.476L102.081 111.028C101.801 111.364 101.449 111.62 101.025 111.796C100.609 111.972 100.149 112.06 99.6453 112.06ZM108.027 112.06C107.403 112.06 106.843 111.924 106.347 111.652C105.859 111.372 105.475 110.992 105.195 110.512C104.915 110.024 104.775 109.468 104.775 108.844C104.775 108.212 104.915 107.656 105.195 107.176C105.475 106.696 105.859 106.32 106.347 106.048C106.843 105.776 107.403 105.64 108.027 105.64C108.563 105.64 109.047 105.744 109.479 105.952C109.911 106.16 110.251 106.472 110.499 106.888L109.863 107.32C109.647 107 109.379 106.764 109.059 106.612C108.739 106.46 108.391 106.384 108.015 106.384C107.567 106.384 107.163 106.488 106.803 106.696C106.443 106.896 106.159 107.18 105.951 107.548C105.743 107.916 105.639 108.348 105.639 108.844C105.639 109.34 105.743 109.772 105.951 110.14C106.159 110.508 106.443 110.796 106.803 111.004C107.163 111.204 107.567 111.304 108.015 111.304C108.391 111.304 108.739 111.228 109.059 111.076C109.379 110.924 109.647 110.692 109.863 110.38L110.499 110.812C110.251 111.22 109.911 111.532 109.479 111.748C109.047 111.956 108.563 112.06 108.027 112.06ZM117.321 112V110.608L117.285 110.38V108.052C117.285 107.516 117.133 107.104 116.829 106.816C116.533 106.528 116.089 106.384 115.497 106.384C115.089 106.384 114.701 106.452 114.333 106.588C113.965 106.724 113.653 106.904 113.397 107.128L113.013 106.492C113.333 106.22 113.717 106.012 114.165 105.868C114.613 105.716 115.085 105.64 115.581 105.64C116.397 105.64 117.025 105.844 117.465 106.252C117.913 106.652 118.137 107.264 118.137 108.088V112H117.321ZM115.149 112.06C114.677 112.06 114.265 111.984 113.913 111.832C113.569 111.672 113.305 111.456 113.121 111.184C112.937 110.904 112.845 110.584 112.845 110.224C112.845 109.896 112.921 109.6 113.073 109.336C113.233 109.064 113.489 108.848 113.841 108.688C114.201 108.52 114.681 108.436 115.281 108.436H117.453V109.072H115.305C114.697 109.072 114.273 109.18 114.033 109.396C113.801 109.612 113.685 109.88 113.685 110.2C113.685 110.56 113.825 110.848 114.105 111.064C114.385 111.28 114.777 111.388 115.281 111.388C115.761 111.388 116.173 111.28 116.517 111.064C116.869 110.84 117.125 110.52 117.285 110.104L117.477 110.692C117.317 111.108 117.037 111.44 116.637 111.688C116.245 111.936 115.749 112.06 115.149 112.06ZM129.856 112.072C129.216 112.072 128.624 111.968 128.08 111.76C127.544 111.544 127.076 111.244 126.676 110.86C126.284 110.476 125.976 110.024 125.752 109.504C125.536 108.984 125.428 108.416 125.428 107.8C125.428 107.184 125.536 106.616 125.752 106.096C125.976 105.576 126.288 105.124 126.688 104.74C127.088 104.356 127.556 104.06 128.092 103.852C128.636 103.636 129.228 103.528 129.868 103.528C130.508 103.528 131.092 103.628 131.62 103.828C132.156 104.028 132.612 104.332 132.988 104.74L132.436 105.304C132.084 104.952 131.696 104.7 131.272 104.548C130.848 104.396 130.392 104.32 129.904 104.32C129.384 104.32 128.904 104.408 128.464 104.584C128.032 104.752 127.652 104.996 127.324 105.316C127.004 105.628 126.752 105.996 126.568 106.42C126.392 106.836 126.304 107.296 126.304 107.8C126.304 108.296 126.392 108.756 126.568 109.18C126.752 109.604 127.004 109.976 127.324 110.296C127.652 110.608 128.032 110.852 128.464 111.028C128.904 111.196 129.38 111.28 129.892 111.28C130.372 111.28 130.824 111.208 131.248 111.064C131.68 110.92 132.076 110.676 132.436 110.332L132.94 111.004C132.54 111.356 132.072 111.624 131.536 111.808C131 111.984 130.44 112.072 129.856 112.072ZM132.088 110.896V107.8H132.94V111.004L132.088 110.896ZM139.041 112.06C138.433 112.06 137.885 111.924 137.397 111.652C136.917 111.372 136.537 110.992 136.257 110.512C135.977 110.024 135.837 109.468 135.837 108.844C135.837 108.212 135.977 107.656 136.257 107.176C136.537 106.696 136.917 106.32 137.397 106.048C137.877 105.776 138.425 105.64 139.041 105.64C139.665 105.64 140.217 105.776 140.697 106.048C141.185 106.32 141.565 106.696 141.837 107.176C142.117 107.656 142.257 108.212 142.257 108.844C142.257 109.468 142.117 110.024 141.837 110.512C141.565 110.992 141.185 111.372 140.697 111.652C140.209 111.924 139.657 112.06 139.041 112.06ZM139.041 111.304C139.497 111.304 139.901 111.204 140.253 111.004C140.605 110.796 140.881 110.508 141.081 110.14C141.289 109.764 141.393 109.332 141.393 108.844C141.393 108.348 141.289 107.916 141.081 107.548C140.881 107.18 140.605 106.896 140.253 106.696C139.901 106.488 139.501 106.384 139.053 106.384C138.605 106.384 138.205 106.488 137.853 106.696C137.501 106.896 137.221 107.18 137.013 107.548C136.805 107.916 136.701 108.348 136.701 108.844C136.701 109.332 136.805 109.764 137.013 110.14C137.221 110.508 137.501 110.796 137.853 111.004C138.205 111.204 138.601 111.304 139.041 111.304ZM153.069 105.64C153.581 105.64 154.025 105.74 154.401 105.94C154.785 106.132 155.081 106.428 155.289 106.828C155.505 107.228 155.613 107.732 155.613 108.34V112H154.761V108.424C154.761 107.76 154.601 107.26 154.281 106.924C153.969 106.58 153.525 106.408 152.949 106.408C152.517 106.408 152.141 106.5 151.821 106.684C151.509 106.86 151.265 107.12 151.089 107.464C150.921 107.8 150.837 108.208 150.837 108.688V112H149.985V108.424C149.985 107.76 149.825 107.26 149.505 106.924C149.185 106.58 148.737 106.408 148.161 106.408C147.737 106.408 147.365 106.5 147.045 106.684C146.725 106.86 146.477 107.12 146.301 107.464C146.133 107.8 146.049 108.208 146.049 108.688V112H145.197V105.7H146.013V107.404L145.881 107.104C146.073 106.648 146.381 106.292 146.805 106.036C147.237 105.772 147.745 105.64 148.329 105.64C148.945 105.64 149.469 105.796 149.901 106.108C150.333 106.412 150.613 106.872 150.741 107.488L150.405 107.356C150.589 106.844 150.913 106.432 151.377 106.12C151.849 105.8 152.413 105.64 153.069 105.64ZM161.799 112.06C161.143 112.06 160.567 111.924 160.071 111.652C159.575 111.372 159.187 110.992 158.907 110.512C158.627 110.024 158.487 109.468 158.487 108.844C158.487 108.22 158.619 107.668 158.883 107.188C159.155 106.708 159.523 106.332 159.987 106.06C160.459 105.78 160.987 105.64 161.571 105.64C162.163 105.64 162.687 105.776 163.143 106.048C163.607 106.312 163.971 106.688 164.235 107.176C164.499 107.656 164.631 108.212 164.631 108.844C164.631 108.884 164.627 108.928 164.619 108.976C164.619 109.016 164.619 109.06 164.619 109.108H159.135V108.472H164.163L163.827 108.724C163.827 108.268 163.727 107.864 163.527 107.512C163.335 107.152 163.071 106.872 162.735 106.672C162.399 106.472 162.011 106.372 161.571 106.372C161.139 106.372 160.751 106.472 160.407 106.672C160.063 106.872 159.795 107.152 159.603 107.512C159.411 107.872 159.315 108.284 159.315 108.748V108.88C159.315 109.36 159.419 109.784 159.627 110.152C159.843 110.512 160.139 110.796 160.515 111.004C160.899 111.204 161.335 111.304 161.823 111.304C162.207 111.304 162.563 111.236 162.891 111.1C163.227 110.964 163.515 110.756 163.755 110.476L164.235 111.028C163.955 111.364 163.603 111.62 163.179 111.796C162.763 111.972 162.303 112.06 161.799 112.06ZM169.257 112.06C168.737 112.06 168.245 111.988 167.781 111.844C167.317 111.692 166.953 111.504 166.689 111.28L167.073 110.608C167.329 110.8 167.657 110.968 168.057 111.112C168.457 111.248 168.877 111.316 169.317 111.316C169.917 111.316 170.349 111.224 170.613 111.04C170.877 110.848 171.009 110.596 171.009 110.284C171.009 110.052 170.933 109.872 170.781 109.744C170.637 109.608 170.445 109.508 170.205 109.444C169.965 109.372 169.697 109.312 169.401 109.264C169.105 109.216 168.809 109.16 168.513 109.096C168.225 109.032 167.961 108.94 167.721 108.82C167.481 108.692 167.285 108.52 167.133 108.304C166.989 108.088 166.917 107.8 166.917 107.44C166.917 107.096 167.013 106.788 167.205 106.516C167.397 106.244 167.677 106.032 168.045 105.88C168.421 105.72 168.877 105.64 169.413 105.64C169.821 105.64 170.229 105.696 170.637 105.808C171.045 105.912 171.381 106.052 171.645 106.228L171.273 106.912C170.993 106.72 170.693 106.584 170.373 106.504C170.053 106.416 169.733 106.372 169.413 106.372C168.845 106.372 168.425 106.472 168.153 106.672C167.889 106.864 167.757 107.112 167.757 107.416C167.757 107.656 167.829 107.844 167.973 107.98C168.125 108.116 168.321 108.224 168.561 108.304C168.809 108.376 169.077 108.436 169.365 108.484C169.661 108.532 169.953 108.592 170.241 108.664C170.537 108.728 170.805 108.82 171.045 108.94C171.293 109.052 171.489 109.216 171.633 109.432C171.785 109.64 171.861 109.916 171.861 110.26C171.861 110.628 171.757 110.948 171.549 111.22C171.349 111.484 171.053 111.692 170.661 111.844C170.277 111.988 169.809 112.06 169.257 112.06Z" fill="white"/>
<path d="M22.016 50.8C23.4453 50.8 24.5653 51.1413 25.376 51.824C26.1867 52.5067 26.592 53.4453 26.592 54.64C26.592 55.8347 26.1867 56.7733 25.376 57.456C24.5653 58.128 23.4453 58.464 22.016 58.464H19.008V62H17.824V50.8H22.016ZM21.984 57.424C23.0933 57.424 23.9413 57.184 24.528 56.704C25.1147 56.2133 25.408 55.5253 25.408 54.64C25.408 53.7333 25.1147 53.04 24.528 52.56C23.9413 52.0693 23.0933 51.824 21.984 51.824H19.008V57.424H21.984ZM29.3724 50.128H30.5084V62H29.3724V50.128ZM36.9173 53.52C38.0159 53.52 38.8586 53.7973 39.4453 54.352C40.0319 54.896 40.3253 55.7067 40.3253 56.784V62H39.2373V60.688C38.9813 61.1253 38.6026 61.4667 38.1013 61.712C37.6106 61.9573 37.0239 62.08 36.3412 62.08C35.4026 62.08 34.6559 61.856 34.1012 61.408C33.5466 60.96 33.2692 60.368 33.2692 59.632C33.2692 58.9173 33.5252 58.3413 34.0372 57.904C34.5599 57.4667 35.3866 57.248 36.5173 57.248H39.1892V56.736C39.1892 56.0107 38.9866 55.4613 38.5813 55.088C38.1759 54.704 37.5839 54.512 36.8053 54.512C36.2719 54.512 35.7599 54.6027 35.2692 54.784C34.7786 54.9547 34.3572 55.1947 34.0052 55.504L33.4932 54.656C33.9199 54.2933 34.4319 54.016 35.0292 53.824C35.6266 53.6213 36.2559 53.52 36.9173 53.52ZM36.5173 61.184C37.1573 61.184 37.7066 61.04 38.1653 60.752C38.6239 60.4533 38.9653 60.0267 39.1892 59.472V58.096H36.5493C35.1092 58.096 34.3892 58.5973 34.3892 59.6C34.3892 60.0907 34.5759 60.48 34.9492 60.768C35.3226 61.0453 35.8452 61.184 36.5173 61.184ZM48.1468 61.488C47.9334 61.68 47.6668 61.8293 47.3468 61.936C47.0374 62.032 46.7121 62.08 46.3708 62.08C45.5814 62.08 44.9734 61.8667 44.5468 61.44C44.1201 61.0133 43.9068 60.4107 43.9068 59.632V54.544H42.4028V53.584H43.9068V51.744H45.0428V53.584H47.6028V54.544H45.0428V59.568C45.0428 60.0693 45.1654 60.4533 45.4108 60.72C45.6668 60.976 46.0294 61.104 46.4988 61.104C46.7334 61.104 46.9574 61.0667 47.1708 60.992C47.3948 60.9173 47.5868 60.8107 47.7468 60.672L48.1468 61.488ZM50.5187 53.584H51.6547V62H50.5187V53.584ZM51.0947 51.744C50.8601 51.744 50.6627 51.664 50.5027 51.504C50.3427 51.344 50.2627 51.152 50.2627 50.928C50.2627 50.7147 50.3427 50.528 50.5027 50.368C50.6627 50.208 50.8601 50.128 51.0947 50.128C51.3294 50.128 51.5267 50.208 51.6867 50.368C51.8467 50.5173 51.9267 50.6987 51.9267 50.912C51.9267 51.1467 51.8467 51.344 51.6867 51.504C51.5267 51.664 51.3294 51.744 51.0947 51.744ZM59.4076 53.52C60.4636 53.52 61.301 53.8293 61.9196 54.448C62.549 55.056 62.8636 55.9467 62.8636 57.12V62H61.7276V57.232C61.7276 56.3573 61.509 55.6907 61.0716 55.232C60.6343 54.7733 60.0103 54.544 59.1996 54.544C58.293 54.544 57.573 54.816 57.0396 55.36C56.517 55.8933 56.2556 56.6347 56.2556 57.584V62H55.1196V53.584H56.2076V55.136C56.517 54.624 56.9436 54.2293 57.4876 53.952C58.0423 53.664 58.6823 53.52 59.4076 53.52ZM73.8358 53.584V62H72.7478V60.464C72.4491 60.976 72.0384 61.376 71.5158 61.664C70.9931 61.9413 70.3958 62.08 69.7238 62.08C68.6251 62.08 67.7558 61.776 67.1158 61.168C66.4864 60.5493 66.1718 59.648 66.1718 58.464V53.584H67.3078V58.352C67.3078 59.2373 67.5264 59.9093 67.9638 60.368C68.4011 60.8267 69.0251 61.056 69.8358 61.056C70.7211 61.056 71.4198 60.7893 71.9318 60.256C72.4438 59.712 72.6998 58.96 72.6998 58V53.584H73.8358ZM87.8174 53.52C88.8734 53.52 89.7 53.824 90.2974 54.432C90.9054 55.04 91.2094 55.936 91.2094 57.12V62H90.0734V57.232C90.0734 56.3573 89.86 55.6907 89.4334 55.232C89.0174 54.7733 88.4254 54.544 87.6574 54.544C86.7827 54.544 86.0947 54.816 85.5934 55.36C85.092 55.8933 84.8414 56.6347 84.8414 57.584V62H83.7054V57.232C83.7054 56.3573 83.492 55.6907 83.0654 55.232C82.6494 54.7733 82.052 54.544 81.2734 54.544C80.4094 54.544 79.7214 54.816 79.2094 55.36C78.708 55.8933 78.4574 56.6347 78.4574 57.584V62H77.3214V53.584H78.4094V55.12C78.708 54.608 79.124 54.2133 79.6574 53.936C80.1907 53.6587 80.804 53.52 81.4974 53.52C82.2014 53.52 82.8094 53.6693 83.3214 53.968C83.844 54.2667 84.2334 54.7093 84.4894 55.296C84.7987 54.7413 85.2414 54.3093 85.8174 54C86.404 53.68 87.0707 53.52 87.8174 53.52Z" fill="white"/>
<path d="M16.1267 33.1746L18.4454 16.6021C19.7372 16.4735 21.538 16.4092 23.848 16.4092C25.8729 16.4092 27.2752 16.7307 28.0549 17.3708C28.8346 18.0109 29.1081 19.1654 28.8666 20.8285C28.692 22.0298 28.3487 22.9271 27.8396 23.5175C27.3305 24.1109 26.5711 24.4558 25.5674 24.5493L25.5442 24.6691C27.7436 24.8445 28.6368 26.3352 28.2207 29.1382C27.9647 30.8042 27.4236 31.9236 26.5944 32.4994C25.7653 33.0752 24.395 33.3646 22.4836 33.3646C19.6964 33.3675 17.5785 33.3032 16.1267 33.1746ZM18.7335 31.304L22.1286 31.3274C23.4349 31.3274 24.3513 31.1403 24.8779 30.7633C25.4045 30.3862 25.7478 29.6467 25.9049 28.5419C26.0649 27.3582 25.9398 26.5602 25.5354 26.151C25.1281 25.7418 24.2815 25.5314 22.9898 25.5138H19.5481L18.7335 31.304ZM19.8099 23.6637H23.1091C24.2553 23.6637 25.0816 23.4708 25.5849 23.0879C26.0882 22.705 26.417 21.983 26.577 20.925C26.7195 19.9166 26.5915 19.2531 26.1929 18.9316C25.7944 18.613 24.9739 18.4522 23.7317 18.4522H20.5285L19.8099 23.6637Z" fill="white"/>
<path d="M39.2705 21.4541H41.6852C40.8241 25.2655 39.7011 28.4923 38.3133 31.1346C37.0711 33.505 35.8375 35.1856 34.6185 36.1794C33.3995 37.1732 31.9449 37.8133 30.2546 38.0997L29.824 36.4424C30.8451 36.2028 31.7354 35.8433 32.5005 35.361C33.2657 34.8816 33.9988 34.1509 34.7 33.1747H33.6235C33.257 33.1747 32.9457 33.0753 32.6926 32.8737C32.4365 32.6749 32.2765 32.3972 32.2154 32.0436L29.9694 21.4512H32.4104L34.1792 30.9387C34.2258 31.2106 34.3858 31.3479 34.6563 31.3479H35.8288C35.8928 31.2369 35.9801 31.0703 36.0906 30.8569C36.2012 30.6406 36.2739 30.5003 36.3059 30.436C37.7082 27.5073 38.6974 24.5143 39.2705 21.4541Z" fill="white"/>
<path d="M46.4417 23.2543L45.5078 29.8366C45.4292 30.3978 45.4787 30.7778 45.662 30.9765C45.8453 31.1782 46.2148 31.2776 46.7733 31.2776H48.5189L48.6149 33.078C47.9138 33.2856 47.0061 33.3908 45.8889 33.3908C44.8532 33.3908 44.1084 33.1014 43.6546 32.5256C43.2007 31.9498 43.0436 31.1256 43.1891 30.0529L44.1462 23.2543H42.0195L42.2348 21.5737L44.411 21.4539L44.9143 18.0195H47.1865L46.7093 21.4539H50.2965L50.058 23.2543H46.4417Z" fill="white"/>
<path d="M59.9032 31.2313L60.0458 32.7921C58.914 33.2393 57.311 33.4643 55.2396 33.4643C53.2467 33.4643 51.8677 32.9411 51.1025 31.8918C50.3374 30.8425 50.0988 29.2145 50.3839 27.0048C50.6865 24.7484 51.3033 23.2051 52.2372 22.3809C53.1682 21.5567 54.7043 21.1445 56.8397 21.1445C58.658 21.1445 59.8916 21.466 60.5462 22.1061C61.2008 22.7463 61.4393 23.6903 61.2648 24.9413C61.0728 26.0783 60.6276 26.8996 59.9265 27.4023C59.2253 27.908 58.1489 28.2149 56.7001 28.326L52.659 28.6855C52.6416 29.7903 52.8743 30.5386 53.3514 30.9302C53.8286 31.3219 54.5792 31.5177 55.5974 31.5177C56.6826 31.5177 58.1169 31.4242 59.9032 31.2313ZM52.8016 26.9551L56.7001 26.5956C57.4332 26.5489 57.9685 26.391 58.3031 26.128C58.6377 25.8649 58.853 25.4031 58.949 24.7455C59.045 23.9943 58.9199 23.5296 58.5795 23.3513C58.2362 23.1759 57.5409 23.0882 56.4877 23.0882C55.2774 23.0882 54.4192 23.3396 53.9188 23.8452C53.4125 24.348 53.0401 25.3856 52.8016 26.9551Z" fill="white"/>
</svg>
