<svg width="386" height="272" viewBox="0 0 386 272" fill="none" xmlns="http://www.w3.org/2000/svg">
<path d="M355.325 271.391L356.487 271.368C356.037 258.454 354.66 245.589 352.364 232.873C347.341 205.649 338.99 187.769 327.542 179.731L326.875 180.681C353.618 199.458 355.312 270.673 355.325 271.391Z" fill="#2F2E41"/>
<path d="M340.807 271.113L341.968 271.09C341.943 269.804 341.218 239.491 329.284 231.112L328.617 232.063C340.069 240.103 340.801 270.804 340.807 271.113Z" fill="#2F2E41"/>
<path d="M320.267 180.786C323.475 180.786 326.075 178.186 326.075 174.979C326.075 171.772 323.475 169.172 320.267 169.172C317.06 169.172 314.46 171.772 314.46 174.979C314.46 178.186 317.06 180.786 320.267 180.786Z" fill="#47A138"/>
<path d="M323.143 230.729C326.35 230.729 328.95 228.129 328.95 224.921C328.95 221.714 326.35 219.114 323.143 219.114C319.936 219.114 317.336 221.714 317.336 224.921C317.336 228.129 319.936 230.729 323.143 230.729Z" fill="#47A138"/>
<path d="M343.514 184.268C342.423 191.239 345.267 197.474 345.267 197.474C345.267 197.474 349.881 192.406 350.972 185.435C352.064 178.464 349.219 172.229 349.219 172.229C349.219 172.229 344.605 177.297 343.514 184.268Z" fill="#2F2E41"/>
<path d="M324.532 201.198C331.206 203.487 337.841 201.773 337.841 201.773C337.841 201.773 333.655 196.346 326.981 194.057C320.307 191.768 313.672 193.482 313.672 193.482C313.672 193.482 317.857 198.909 324.532 201.198Z" fill="#2F2E41"/>
<path d="M324.317 245.426C327.338 246.375 330.555 246.514 333.646 245.829C331.683 243.33 329.04 241.452 326.034 240.421C323.029 239.39 319.789 239.25 316.705 240.018C318.725 242.456 321.35 244.321 324.317 245.426Z" fill="#2F2E41"/>
<path d="M188.56 90.5701L188.755 90.6713L188.961 90.5967C189.964 90.2335 191.05 90.1624 192.092 90.3918C193.135 90.6212 194.09 91.1415 194.849 91.8925C195.607 92.6434 196.136 93.594 196.376 94.634C196.615 95.6739 196.555 96.7604 196.201 97.7673C195.848 98.7742 195.216 99.6602 194.379 100.322C193.542 100.984 192.535 101.395 191.473 101.508C190.412 101.62 189.341 101.429 188.384 100.956C187.427 100.484 186.624 99.7495 186.068 98.8388L185.98 98.6952L185.823 98.6338L147.184 83.4994L125.626 65.2443L117.833 54.4047L120.983 49.1546L120.99 49.143L120.995 49.1337C120.995 49.1332 120.995 49.1325 120.996 49.1317C120.998 49.1278 121.002 49.1201 121.009 49.1089C121.023 49.0866 121.046 49.0507 121.079 49.0048C121.146 48.9128 121.251 48.7821 121.401 48.64C121.7 48.3571 122.173 48.0291 122.868 47.8691C124.25 47.5513 126.676 47.8646 130.57 50.9489C134.491 54.054 139.588 59.0583 143.718 63.3012C145.78 65.4198 147.596 67.3433 148.896 68.7373C149.547 69.4342 150.068 69.9986 150.426 70.3886C150.605 70.5836 150.744 70.735 150.838 70.8376L150.944 70.9541L150.971 70.9837L150.978 70.9911L150.979 70.993L150.98 70.9934C150.98 70.9935 150.98 70.9935 151.35 70.6574L150.98 70.9935L151.04 71.0597L151.119 71.101L188.56 90.5701Z" stroke="black"/>
<path d="M76.5389 95.3251C77.0383 95.301 77.0383 95.301 77.0383 95.3009L77.0383 95.3003L77.0382 95.2978L77.0377 95.2878L77.0358 95.2478L77.0286 95.0902C77.0223 94.9515 77.0132 94.7464 77.0021 94.4818C76.9798 93.9525 76.9492 93.1849 76.9161 92.2324C76.8499 90.3273 76.7738 87.6831 76.7339 84.727C76.654 78.8065 76.72 71.6634 77.2965 66.6956C77.8691 61.7612 79.3634 59.8238 80.5647 59.0718C81.1697 58.6931 81.7363 58.5903 82.1473 58.5794C82.3537 58.5739 82.5209 58.5916 82.6329 58.6097C82.6887 58.6187 82.7305 58.6278 82.756 58.6339C82.7687 58.6369 82.7774 58.6392 82.7816 58.6404C82.7826 58.6406 82.7833 58.6408 82.7839 58.641C82.7845 58.6412 82.7848 58.6413 82.7847 58.6412L82.794 58.6441L82.807 58.6474L88.7469 60.1323L90.9006 73.3082L88.5656 101.46L71.9451 139.484L71.8774 139.638L71.9176 139.803C72.1721 140.843 72.1257 141.934 71.784 142.949C71.4422 143.965 70.8191 144.862 69.9872 145.536C69.1554 146.211 68.1489 146.636 67.0852 146.76C66.0214 146.885 64.944 146.705 63.9785 146.242C63.013 145.778 62.1992 145.049 61.6317 144.141C61.0642 143.233 60.7664 142.182 60.7731 141.111C60.7797 140.04 61.0905 138.992 61.6692 138.091C62.2479 137.19 63.0708 136.472 64.0419 136.02L64.2416 135.927L64.3079 135.717L77.0157 95.4757L77.0426 95.3904L77.0383 95.301L76.5389 95.3251Z" stroke="black"/>
<path d="M154.695 232.507L150.922 263.098L143.674 263.099L143.673 232.508L154.695 232.507Z" stroke="black"/>
<path d="M141.085 260.925L157.215 260.924H157.215C159.941 260.924 162.556 262.007 164.483 263.935C166.411 265.862 167.494 268.477 167.494 271.203V271.537L141.085 271.538L141.085 260.925Z" fill="#2F2E41"/>
<path d="M65.3634 232.507L61.5907 263.098L54.3423 263.099L54.3411 232.508L65.3634 232.507Z" stroke="black"/>
<path d="M51.7532 260.925L67.8828 260.924H67.8835C70.6096 260.924 73.224 262.007 75.1517 263.935C77.0793 265.862 78.1624 268.477 78.1626 271.203V271.537L51.7537 271.538L51.7532 260.925Z" fill="#2F2E41"/>
<path d="M94.2762 46.1985L80.6915 57.7952L91.8401 93.0756L94.3557 100.954C94.3557 100.954 78.9955 115.116 69.4915 154.678C59.9876 194.239 44.4402 246.807 44.4402 246.807L77.258 256.202L103.958 166.709L135.362 236.919L138.988 257.685L166.936 249.444L160.343 197.364L127.381 107.212L130.805 83.3142C130.805 83.3142 135.947 71.386 127.014 58.7573L124.213 46.8909L114.176 44.4187L94.2762 46.1985Z" fill="#2F2E41"/>
<path d="M80.1169 39.3943C79.4939 39.3936 78.8965 39.1458 78.4559 38.7052C78.0154 38.2647 77.7676 37.6674 77.7668 37.0444V21.2136C77.7668 15.72 79.9491 10.4514 83.8337 6.56688C87.7182 2.68232 92.9868 0.5 98.4804 0.5C103.974 0.5 109.243 2.68232 113.127 6.56688C117.012 10.4514 119.194 15.72 119.194 21.2136V37.0441C119.193 37.6672 118.945 38.2646 118.505 38.7052C118.064 39.1458 117.467 39.3936 116.844 39.3943H80.1169Z" stroke="black"/>
<path d="M116.487 31.4329C120.607 23.8958 117.837 14.4458 110.3 10.3256C102.763 6.20547 93.3126 8.97544 89.1925 16.5125C85.0723 24.0496 87.8423 33.4997 95.3794 37.6199C102.917 41.74 112.367 38.97 116.487 31.4329Z" fill="#47A138"/>
<path d="M109.431 31.6349C109.815 31.4866 110.166 31.2491 110.459 30.9385C110.654 30.7171 110.802 30.4513 110.894 30.1599C110.985 29.8685 111.018 29.5584 110.99 29.2514C110.974 29.0326 110.912 28.821 110.809 28.633C110.707 28.445 110.566 28.2858 110.399 28.1678C109.964 27.8724 109.39 27.8836 108.811 28.1806L108.744 23L108.273 23.0074L108.352 29.0978L108.71 28.838C109.126 28.5372 109.723 28.3191 110.152 28.6112C110.258 28.6885 110.347 28.7919 110.411 28.9133C110.476 29.0346 110.514 29.1708 110.522 29.3111C110.542 29.5398 110.517 29.7705 110.449 29.9875C110.381 30.2046 110.272 30.4029 110.128 30.5689C109.618 31.1287 108.862 31.3163 108 31.4878L108.083 32C108.542 31.9231 108.993 31.8009 109.431 31.6349Z" fill="black"/>
<path d="M116.914 23.9999L112.845 24.6162L112.959 25.3717L117.028 24.7554L116.914 23.9999Z" fill="black"/>
<path d="M96.1144 23.9999L100.184 24.6162L100.069 25.3717L96 24.7554L96.1144 23.9999Z" fill="black"/>
<path d="M101.553 19.4043L100.52 22.2968H97.88L97.4568 16.3706L96.4872 16.2381L94.3235 22.2968H88.4859C88.5385 18.0467 90.2497 13.9823 93.2586 10.9734C96.3109 7.9211 100.449 6.20418 104.766 6.19922H107.931C112.248 6.20417 116.386 7.92109 119.439 10.9733C122.447 13.9823 124.159 18.0467 124.211 22.2968H102.72L102.523 19.5368L101.553 19.4043Z" stroke="black"/>
<path d="M238.069 185.335L93.9451 236.292C90.3816 237.547 86.4657 237.338 83.0565 235.709C79.6472 234.081 77.023 231.167 75.7596 227.607L51.0011 157.58C49.7457 154.017 49.9551 150.101 51.5833 146.691C53.2115 143.282 56.1256 140.658 59.6862 139.395L203.811 88.438C207.374 87.1827 211.29 87.3921 214.699 89.0203C218.108 90.6485 220.733 93.5625 221.996 97.1232L246.755 167.15C248.01 170.713 247.801 174.629 246.172 178.038C244.544 181.448 241.63 184.072 238.069 185.335Z" fill="white"/>
<path d="M246.755 167.15L246.886 167.52C248.088 170.923 247.89 174.665 246.334 177.921C244.778 181.178 241.992 183.683 238.588 184.886L93.7435 236.097C90.3411 237.3 86.6004 237.102 83.3441 235.547C80.0877 233.991 77.5824 231.206 76.3792 227.804L76.2482 227.434L246.755 167.15Z" fill="#F2F2F2"/>
<path d="M84.9509 155.653C75.3976 161.939 63.1538 157.209 58.8718 150.318L59.5545 149.93C67.6875 144.86 79.7657 147.685 84.9509 155.653Z" fill="#47A138"/>
<path d="M204.667 173.488C202.329 174.314 200.224 174.276 198.409 173.375C194.307 171.337 192.383 165.295 190.836 160.439C190.386 159.027 189.961 157.692 189.529 156.602L189.522 156.585C188.769 154.422 188.901 152.049 189.887 149.982C190.874 147.915 192.636 146.32 194.792 145.545L214.178 138.691C216.513 137.865 218.616 137.903 220.429 138.803C224.53 140.838 226.456 146.879 228.004 151.732C228.455 153.147 228.881 154.484 229.316 155.577C230.073 157.742 229.944 160.119 228.958 162.19C227.971 164.261 226.207 165.859 224.048 166.635L204.667 173.488ZM190.335 156.292C190.777 157.408 191.206 158.753 191.659 160.177C193.156 164.877 195.019 170.726 198.793 172.601C200.413 173.406 202.24 173.43 204.379 172.673L223.759 165.822C225.701 165.124 227.288 163.688 228.177 161.826C229.066 159.965 229.184 157.827 228.507 155.879C228.068 154.775 227.637 153.425 227.181 151.994C225.683 147.296 223.818 141.449 220.045 139.576C218.427 138.773 216.602 138.75 214.466 139.505L195.081 146.359C193.142 147.057 191.556 148.491 190.667 150.35C189.779 152.21 189.659 154.345 190.335 156.292Z" fill="#3F3D56"/>
<path d="M80.933 157.917C77.5265 159.098 73.8569 159.3 70.3414 158.499C65.2074 157.372 60.5481 154.306 58.182 150.5L57.9449 150.118L59.0104 149.512C67.2658 144.37 79.645 147.158 84.9884 155.368L85.2227 155.727L84.864 155.964C83.6376 156.771 82.3176 157.427 80.933 157.917ZM59.1598 150.421C61.4754 153.862 65.7843 156.614 70.5267 157.655C75.1366 158.732 79.985 157.95 84.0222 155.477C78.7954 147.917 67.2152 145.409 59.4601 150.25L59.1598 150.421Z" fill="#3F3D56"/>
<path d="M85.9962 208.177C84.786 208.656 83.4681 208.797 82.1841 208.583C80.9 208.37 79.6983 207.811 78.7078 206.967C77.5484 205.954 76.6695 204.659 76.1558 203.207C75.6421 201.756 75.5109 200.196 75.7748 198.679C76.0199 197.374 76.6216 196.162 77.5132 195.178C78.4048 194.194 79.5516 193.475 80.8263 193.103L106.656 183.97C107.882 183.462 109.224 183.303 110.535 183.509C111.846 183.715 113.074 184.279 114.085 185.139C115.244 186.153 116.122 187.448 116.635 188.9C117.148 190.351 117.279 191.91 117.014 193.427C116.504 196.092 114.705 198.056 111.962 198.996L86.1313 208.128C86.0862 208.145 86.0412 208.161 85.9962 208.177ZM80.987 193.961C79.8848 194.301 78.8962 194.935 78.1274 195.795C77.3585 196.655 76.8385 197.708 76.6231 198.841C76.3854 200.208 76.5036 201.613 76.9665 202.92C77.4293 204.228 78.2211 205.395 79.2656 206.307C80.161 207.066 81.249 207.562 82.4089 207.74C83.5689 207.918 84.7556 207.771 85.8373 207.316L111.68 198.179C112.808 197.854 113.825 197.222 114.617 196.355C115.408 195.488 115.945 194.418 116.166 193.264C116.404 191.898 116.287 190.493 115.824 189.186C115.362 187.878 114.571 186.712 113.527 185.798C112.63 185.04 111.542 184.545 110.381 184.365C109.221 184.186 108.033 184.331 106.95 184.783L81.1057 193.92C81.066 193.934 81.0262 193.947 80.987 193.961L80.987 193.961Z" fill="#3F3D56"/>
<path d="M204.84 152.884L196.697 155.763C196.158 155.954 195.564 155.923 195.047 155.676C194.53 155.429 194.133 154.987 193.942 154.447C193.751 153.907 193.783 153.314 194.029 152.797C194.276 152.28 194.718 151.883 195.258 151.692L203.401 148.813C203.94 148.622 204.534 148.654 205.051 148.9C205.568 149.147 205.965 149.589 206.156 150.129C206.347 150.669 206.315 151.262 206.069 151.779C205.822 152.296 205.38 152.693 204.84 152.884Z" fill="#47A138"/>
<path d="M207.143 159.398L199 162.277C198.461 162.468 197.867 162.437 197.35 162.19C196.833 161.943 196.436 161.501 196.245 160.961C196.054 160.421 196.086 159.828 196.332 159.311C196.579 158.794 197.021 158.397 197.561 158.206L205.704 155.327C206.243 155.136 206.837 155.168 207.354 155.414C207.871 155.661 208.268 156.103 208.459 156.643C208.65 157.183 208.618 157.777 208.372 158.293C208.125 158.81 207.683 159.208 207.143 159.398Z" fill="#47A138"/>
<path d="M209.446 165.912L201.304 168.791C201.036 168.886 200.753 168.927 200.47 168.912C200.187 168.897 199.909 168.826 199.653 168.704C199.397 168.582 199.168 168.41 198.979 168.2C198.789 167.989 198.643 167.743 198.548 167.475C198.454 167.208 198.413 166.925 198.428 166.642C198.443 166.358 198.513 166.081 198.635 165.825C198.758 165.569 198.929 165.34 199.14 165.15C199.351 164.961 199.597 164.815 199.864 164.72L208.007 161.841C208.274 161.747 208.557 161.706 208.841 161.721C209.124 161.736 209.401 161.806 209.657 161.928C209.913 162.051 210.142 162.222 210.332 162.433C210.521 162.644 210.668 162.89 210.762 163.157C210.857 163.424 210.898 163.708 210.883 163.991C210.868 164.274 210.797 164.551 210.675 164.807C210.553 165.063 210.381 165.292 210.17 165.482C209.96 165.672 209.714 165.818 209.446 165.912Z" fill="#47A138"/>
<path d="M219.09 147.846L210.947 150.725C210.68 150.82 210.396 150.861 210.113 150.846C209.83 150.831 209.553 150.76 209.297 150.638C209.041 150.516 208.812 150.344 208.622 150.133C208.432 149.923 208.286 149.677 208.192 149.409C208.097 149.142 208.056 148.859 208.071 148.575C208.086 148.292 208.157 148.015 208.279 147.759C208.401 147.503 208.573 147.274 208.783 147.084C208.994 146.895 209.24 146.748 209.508 146.654L217.65 143.775C218.19 143.584 218.784 143.616 219.3 143.862C219.817 144.109 220.215 144.551 220.406 145.091C220.596 145.631 220.565 146.224 220.318 146.741C220.071 147.258 219.629 147.655 219.09 147.846Z" fill="#47A138"/>
<path d="M221.393 154.36L213.25 157.239C212.983 157.334 212.699 157.375 212.416 157.36C212.133 157.345 211.856 157.274 211.6 157.152C211.344 157.03 211.115 156.858 210.925 156.648C210.735 156.437 210.589 156.191 210.495 155.923C210.4 155.656 210.359 155.373 210.374 155.089C210.389 154.806 210.46 154.529 210.582 154.273C210.704 154.017 210.876 153.788 211.086 153.598C211.297 153.409 211.543 153.262 211.811 153.168L219.953 150.289C220.221 150.194 220.504 150.154 220.787 150.169C221.07 150.184 221.348 150.254 221.603 150.376C221.859 150.499 222.089 150.67 222.278 150.881C222.468 151.092 222.614 151.338 222.709 151.605C222.803 151.872 222.844 152.156 222.829 152.439C222.814 152.722 222.744 152.999 222.621 153.255C222.499 153.511 222.328 153.74 222.117 153.93C221.906 154.12 221.66 154.266 221.393 154.36Z" fill="#47A138"/>
<path d="M223.696 160.874L215.553 163.753C215.013 163.944 214.42 163.913 213.903 163.666C213.386 163.419 212.989 162.977 212.798 162.437C212.607 161.898 212.638 161.304 212.885 160.787C213.132 160.27 213.574 159.873 214.114 159.682L222.256 156.803C222.524 156.709 222.807 156.668 223.09 156.683C223.373 156.698 223.651 156.768 223.907 156.89C224.162 157.013 224.392 157.184 224.581 157.395C224.771 157.606 224.917 157.852 225.012 158.119C225.106 158.386 225.147 158.67 225.132 158.953C225.117 159.236 225.047 159.513 224.924 159.769C224.802 160.025 224.631 160.255 224.42 160.444C224.209 160.634 223.963 160.78 223.696 160.874Z" fill="#47A138"/>
<path d="M227.387 112.366L56.8801 172.651L57.168 173.465L227.675 113.181L227.387 112.366Z" fill="#3F3D56"/>
<path d="M238.069 185.335L93.9451 236.292C90.3816 237.547 86.4657 237.338 83.0565 235.709C79.6472 234.081 77.023 231.167 75.7596 227.607L51.0011 157.58C49.7457 154.017 49.9551 150.101 51.5833 146.691C53.2115 143.282 56.1256 140.658 59.6862 139.395L203.811 88.438C207.374 87.1827 211.29 87.3921 214.699 89.0203C218.108 90.6485 220.733 93.5625 221.996 97.1232L246.755 167.15C248.01 170.713 247.801 174.629 246.172 178.038C244.544 181.448 241.63 184.072 238.069 185.335ZM59.9741 140.209C56.6293 141.396 53.8918 143.861 52.3623 147.063C50.8328 150.266 50.6361 153.945 51.8153 157.292L76.5739 227.319C77.7607 230.663 80.2259 233.401 83.4285 234.93C86.6311 236.46 90.3097 236.657 93.6572 235.477L237.782 184.521C241.126 183.334 243.864 180.869 245.393 177.666C246.923 174.464 247.12 170.785 245.94 167.438L221.182 97.411C219.995 94.0662 217.53 91.3288 214.327 89.7993C211.124 88.2697 207.446 88.073 204.098 89.2523L59.9741 140.209Z" fill="#3F3D56"/>
<path d="M385.478 272H0.522327C0.383798 272 0.250941 271.947 0.152986 271.854C0.0550304 271.76 0 271.633 0 271.5C0 271.367 0.0550304 271.24 0.152986 271.146C0.250941 271.053 0.383798 271 0.522327 271H385.478C385.616 271 385.749 271.053 385.847 271.146C385.945 271.24 386 271.367 386 271.5C386 271.633 385.945 271.76 385.847 271.854C385.749 271.947 385.616 272 385.478 272Z" fill="#444444"/>
</svg>
