<svg width="505" height="153" viewBox="0 0 505 153" fill="none" xmlns="http://www.w3.org/2000/svg">
<circle cx="64" cy="76.608" r="53.6999" stroke="#F1823D" stroke-width="18.9529"/>
<mask id="path-2-inside-1_444_1734" fill="white">
<path d="M64 22.952C64 17.6941 68.2862 13.3582 73.4846 14.1476C83.1428 15.6142 92.3746 19.3083 100.427 24.9907C111.084 32.5119 119.153 43.1478 123.524 55.4381C127.895 67.7283 128.354 81.0703 124.839 93.6321C121.324 106.194 114.007 117.36 103.892 125.597C93.777 133.833 81.3604 138.737 68.3469 139.635C55.3334 140.532 42.3612 137.379 31.2112 130.609C20.0612 123.839 11.2802 113.784 6.07386 101.823C2.14037 92.7871 0.392996 82.9984 0.913243 73.2433C1.19326 67.9928 6.30748 64.6738 11.4564 65.7389C16.6054 66.804 19.8057 71.868 19.8674 77.1256C19.9361 82.9809 21.1698 88.7966 23.5322 94.2237C27.1694 102.579 33.3039 109.604 41.0934 114.334C48.8829 119.064 57.9454 121.266 67.0368 120.639C76.1281 120.012 84.8025 116.586 91.8689 110.832C98.9353 105.078 104.047 97.2771 106.503 88.5012C108.959 79.7254 108.638 70.4046 105.584 61.8185C102.53 53.2324 96.8937 45.8021 89.4481 40.5476C84.612 37.1348 79.1668 34.7486 73.4469 33.4952C68.3108 32.3698 64 28.21 64 22.952Z"/>
</mask>
<path d="M64 22.952C64 17.6941 68.2862 13.3582 73.4846 14.1476C83.1428 15.6142 92.3746 19.3083 100.427 24.9907C111.084 32.5119 119.153 43.1478 123.524 55.4381C127.895 67.7283 128.354 81.0703 124.839 93.6321C121.324 106.194 114.007 117.36 103.892 125.597C93.777 133.833 81.3604 138.737 68.3469 139.635C55.3334 140.532 42.3612 137.379 31.2112 130.609C20.0612 123.839 11.2802 113.784 6.07386 101.823C2.14037 92.7871 0.392996 82.9984 0.913243 73.2433C1.19326 67.9928 6.30748 64.6738 11.4564 65.7389C16.6054 66.804 19.8057 71.868 19.8674 77.1256C19.9361 82.9809 21.1698 88.7966 23.5322 94.2237C27.1694 102.579 33.3039 109.604 41.0934 114.334C48.8829 119.064 57.9454 121.266 67.0368 120.639C76.1281 120.012 84.8025 116.586 91.8689 110.832C98.9353 105.078 104.047 97.2771 106.503 88.5012C108.959 79.7254 108.638 70.4046 105.584 61.8185C102.53 53.2324 96.8937 45.8021 89.4481 40.5476C84.612 37.1348 79.1668 34.7486 73.4469 33.4952C68.3108 32.3698 64 28.21 64 22.952Z" stroke="#FF3C82" stroke-width="37.9058" mask="url(#path-2-inside-1_444_1734)"/>
<mask id="path-3-inside-2_444_1734" fill="white">
<path d="M64 22.952C64 17.6941 68.2861 13.3583 73.4845 14.1476C80.0657 15.147 86.4678 17.1833 92.447 20.1986C101.27 24.6479 108.926 31.1045 114.8 39.0499C120.674 46.9952 124.603 56.2077 126.27 65.9471C127.938 75.6864 127.297 85.6811 124.401 95.1281C121.504 104.575 116.432 113.211 109.592 120.342C102.752 127.472 94.3344 132.899 85.0161 136.186C75.6978 139.473 65.7384 140.529 55.9381 139.268C49.2963 138.413 42.8532 136.511 36.8429 133.65C32.0955 131.389 30.9764 125.396 33.9237 121.042C36.871 116.688 42.7726 115.659 47.6567 117.606C51.0849 118.973 54.6827 119.909 58.3679 120.383C65.2145 121.264 72.1722 120.526 78.6821 118.23C85.1919 115.934 91.0724 112.142 95.851 107.161C100.63 102.179 104.173 96.146 106.197 89.5463C108.22 82.9466 108.668 75.9642 107.503 69.1602C106.338 62.3561 103.593 55.9202 99.4894 50.3695C95.3856 44.8188 90.037 40.3081 83.8734 37.1999C80.5558 35.5268 77.0518 34.2851 73.4468 33.4952C68.3107 32.3698 64 28.21 64 22.952Z"/>
</mask>
<path d="M64 22.952C64 17.6941 68.2861 13.3583 73.4845 14.1476C80.0657 15.147 86.4678 17.1833 92.447 20.1986C101.27 24.6479 108.926 31.1045 114.8 39.0499C120.674 46.9952 124.603 56.2077 126.27 65.9471C127.938 75.6864 127.297 85.6811 124.401 95.1281C121.504 104.575 116.432 113.211 109.592 120.342C102.752 127.472 94.3344 132.899 85.0161 136.186C75.6978 139.473 65.7384 140.529 55.9381 139.268C49.2963 138.413 42.8532 136.511 36.8429 133.65C32.0955 131.389 30.9764 125.396 33.9237 121.042C36.871 116.688 42.7726 115.659 47.6567 117.606C51.0849 118.973 54.6827 119.909 58.3679 120.383C65.2145 121.264 72.1722 120.526 78.6821 118.23C85.1919 115.934 91.0724 112.142 95.851 107.161C100.63 102.179 104.173 96.146 106.197 89.5463C108.22 82.9466 108.668 75.9642 107.503 69.1602C106.338 62.3561 103.593 55.9202 99.4894 50.3695C95.3856 44.8188 90.037 40.3081 83.8734 37.1999C80.5558 35.5268 77.0518 34.2851 73.4468 33.4952C68.3107 32.3698 64 28.21 64 22.952Z" stroke="#8F3CFF" stroke-width="37.9058" mask="url(#path-3-inside-2_444_1734)"/>
<mask id="path-4-inside-3_444_1734" fill="white">
<path d="M64 22.952C64 17.6941 68.2861 13.3583 73.4845 14.1476C79.1671 15.0105 84.7203 16.6472 89.9864 19.0236C98.1539 22.7094 105.444 28.0905 111.372 34.8097C117.301 41.5288 121.732 49.4322 124.372 57.9952C126.074 63.5162 127.007 69.23 127.155 74.9759C127.291 80.2321 122.455 83.9448 117.238 83.29C112.021 82.6352 108.431 77.8401 107.954 72.6038C107.676 69.5591 107.082 66.5429 106.177 63.6049C104.332 57.6227 101.237 52.1013 97.0949 47.4073C92.9532 42.7132 87.8603 38.9539 82.1544 36.379C79.352 35.1144 76.4332 34.1496 73.4468 33.4952C68.3107 32.3698 64 28.21 64 22.952Z"/>
</mask>
<path d="M64 22.952C64 17.6941 68.2861 13.3583 73.4845 14.1476C79.1671 15.0105 84.7203 16.6472 89.9864 19.0236C98.1539 22.7094 105.444 28.0905 111.372 34.8097C117.301 41.5288 121.732 49.4322 124.372 57.9952C126.074 63.5162 127.007 69.23 127.155 74.9759C127.291 80.2321 122.455 83.9448 117.238 83.29C112.021 82.6352 108.431 77.8401 107.954 72.6038C107.676 69.5591 107.082 66.5429 106.177 63.6049C104.332 57.6227 101.237 52.1013 97.0949 47.4073C92.9532 42.7132 87.8603 38.9539 82.1544 36.379C79.352 35.1144 76.4332 34.1496 73.4468 33.4952C68.3107 32.3698 64 28.21 64 22.952Z" stroke="#2567F9" stroke-width="37.9058" mask="url(#path-4-inside-3_444_1734)"/>
<circle cx="163.944" cy="13.6088" r="4.76803" fill="#2567F9"/>
<path d="M186.121 19.6084V7.97203L193.099 7.97203V9.22203L187.531 9.22203V13.1539L192.576 13.1539V14.4039L187.531 14.4039V19.6084H186.121ZM200.283 16.0402V10.8811H201.624V19.6084H200.283V18.1311H200.193C199.988 18.5743 199.67 18.9512 199.238 19.2618C198.806 19.5686 198.261 19.722 197.602 19.722C197.056 19.722 196.571 19.6027 196.147 19.3641C195.723 19.1217 195.389 18.758 195.147 18.2732C194.905 17.7845 194.783 17.169 194.783 16.4266V10.8811H196.124V16.3357C196.124 16.972 196.302 17.4796 196.658 17.8584C197.018 18.2372 197.477 18.4266 198.033 18.4266C198.367 18.4266 198.706 18.3414 199.05 18.1709C199.399 18.0004 199.691 17.7391 199.925 17.3868C200.164 17.0345 200.283 16.5857 200.283 16.0402ZM205.421 14.3584V19.6084H204.08V10.8811H205.376V12.2448L205.489 12.2448C205.694 11.8016 206.005 11.4455 206.421 11.1766C206.838 10.9039 207.376 10.7675 208.035 10.7675C208.626 10.7675 209.143 10.8887 209.586 11.1311C210.029 11.3698 210.374 11.7334 210.62 12.222C210.866 12.7069 210.989 13.3205 210.989 14.0629V19.6084H209.648V14.1539C209.648 13.4682 209.47 12.9342 209.114 12.5516C208.758 12.1652 208.27 11.972 207.648 11.972C207.22 11.972 206.838 12.0648 206.501 12.2504C206.167 12.436 205.904 12.7069 205.711 13.0629C205.518 13.419 205.421 13.8508 205.421 14.3584ZM216.735 19.7902C216.008 19.7902 215.366 19.6065 214.809 19.2391C214.252 18.8679 213.817 18.3451 213.502 17.6709C213.188 16.9929 213.031 16.1917 213.031 15.2675C213.031 14.3508 213.188 13.5554 213.502 12.8811C213.817 12.2069 214.254 11.686 214.815 11.3186C215.375 10.9512 216.023 10.7675 216.758 10.7675C217.326 10.7675 217.775 10.8622 218.104 11.0516C218.438 11.2372 218.692 11.4493 218.866 11.6879C219.044 11.9228 219.182 12.116 219.281 12.2675H219.394V7.97203H220.735V19.6084H219.44V18.2675H219.281C219.182 18.4266 219.042 18.6273 218.86 18.8698C218.678 19.1084 218.419 19.3224 218.082 19.5118C217.745 19.6974 217.296 19.7902 216.735 19.7902ZM216.917 18.5857C217.455 18.5857 217.909 18.4455 218.281 18.1652C218.652 17.8811 218.934 17.4891 219.127 16.9891C219.32 16.4853 219.417 15.9039 219.417 15.2448C219.417 14.5932 219.322 14.0232 219.133 13.5345C218.943 13.0421 218.663 12.6595 218.292 12.3868C217.921 12.1103 217.462 11.972 216.917 11.972C216.349 11.972 215.875 12.1179 215.496 12.4095C215.121 12.6974 214.839 13.0895 214.65 13.5857C214.464 14.0781 214.371 14.6311 214.371 15.2448C214.371 15.866 214.466 16.4304 214.656 16.9379C214.849 17.4417 215.133 17.8432 215.508 18.1425C215.887 18.4379 216.356 18.5857 216.917 18.5857ZM226.923 19.7902C226.135 19.7902 225.443 19.6027 224.849 19.2277C224.258 18.8527 223.796 18.3281 223.462 17.6539C223.133 16.9796 222.968 16.1917 222.968 15.2902C222.968 14.3811 223.133 13.5876 223.462 12.9095C223.796 12.2315 224.258 11.705 224.849 11.33C225.443 10.955 226.135 10.7675 226.923 10.7675C227.711 10.7675 228.4 10.955 228.991 11.33C229.586 11.705 230.048 12.2315 230.377 12.9095C230.711 13.5876 230.877 14.3811 230.877 15.2902C230.877 16.1917 230.711 16.9796 230.377 17.6539C230.048 18.3281 229.586 18.8527 228.991 19.2277C228.4 19.6027 227.711 19.7902 226.923 19.7902ZM226.923 18.5857C227.521 18.5857 228.014 18.4323 228.4 18.1254C228.786 17.8186 229.072 17.4152 229.258 16.9152C229.443 16.4152 229.536 15.8735 229.536 15.2902C229.536 14.7069 229.443 14.1633 229.258 13.6595C229.072 13.1557 228.786 12.7485 228.4 12.4379C228.014 12.1273 227.521 11.972 226.923 11.972C226.324 11.972 225.832 12.1273 225.445 12.4379C225.059 12.7485 224.773 13.1557 224.587 13.6595C224.402 14.1633 224.309 14.7069 224.309 15.2902C224.309 15.8735 224.402 16.4152 224.587 16.9152C224.773 17.4152 225.059 17.8186 225.445 18.1254C225.832 18.4323 226.324 18.5857 226.923 18.5857ZM239.106 12.8357L237.901 13.1766C237.826 12.9758 237.714 12.7807 237.566 12.5914C237.422 12.3982 237.225 12.2391 236.975 12.1141C236.725 11.9891 236.405 11.9266 236.015 11.9266C235.481 11.9266 235.036 12.0497 234.68 12.2959C234.327 12.5383 234.151 12.847 234.151 13.222C234.151 13.5554 234.273 13.8186 234.515 14.0118C234.757 14.205 235.136 14.366 235.651 14.4948L236.947 14.8129C237.727 15.0023 238.309 15.2921 238.691 15.6823C239.074 16.0686 239.265 16.5667 239.265 17.1766C239.265 17.6766 239.121 18.1235 238.833 18.5175C238.549 18.9114 238.151 19.222 237.64 19.4493C237.129 19.6766 236.534 19.7902 235.856 19.7902C234.966 19.7902 234.229 19.597 233.646 19.2107C233.062 18.8243 232.693 18.2599 232.538 17.5175L233.81 17.1993C233.932 17.669 234.161 18.0213 234.498 18.2561C234.839 18.491 235.284 18.6084 235.833 18.6084C236.458 18.6084 236.954 18.4758 237.322 18.2107C237.693 17.9417 237.879 17.6198 237.879 17.2448C237.879 16.9417 237.773 16.6879 237.56 16.4834C237.348 16.2751 237.023 16.1198 236.583 16.0175L235.129 15.6766C234.329 15.4872 233.742 15.1936 233.367 14.7959C232.996 14.3944 232.81 13.8925 232.81 13.2902C232.81 12.7978 232.949 12.3622 233.225 11.9834C233.505 11.6046 233.886 11.3073 234.367 11.0914C234.852 10.8754 235.401 10.7675 236.015 10.7675C236.879 10.7675 237.557 10.9569 238.049 11.3357C238.545 11.7145 238.898 12.2145 239.106 12.8357ZM249.079 19.7902C248.352 19.7902 247.71 19.6065 247.153 19.2391C246.596 18.8679 246.16 18.3451 245.846 17.6709C245.532 16.9929 245.374 16.1917 245.374 15.2675C245.374 14.3508 245.532 13.5554 245.846 12.8811C246.16 12.2069 246.598 11.686 247.158 11.3186C247.719 10.9512 248.367 10.7675 249.102 10.7675C249.67 10.7675 250.119 10.8622 250.448 11.0516C250.782 11.2372 251.035 11.4493 251.21 11.6879C251.388 11.9228 251.526 12.116 251.624 12.2675H251.738V7.97203H253.079V19.6084H251.783V18.2675H251.624C251.526 18.4266 251.386 18.6273 251.204 18.8698C251.022 19.1084 250.763 19.3224 250.425 19.5118C250.088 19.6974 249.639 19.7902 249.079 19.7902ZM249.261 18.5857C249.799 18.5857 250.253 18.4455 250.624 18.1652C250.996 17.8811 251.278 17.4891 251.471 16.9891C251.664 16.4853 251.761 15.9039 251.761 15.2448C251.761 14.5932 251.666 14.0232 251.477 13.5345C251.287 13.0421 251.007 12.6595 250.636 12.3868C250.264 12.1103 249.806 11.972 249.261 11.972C248.693 11.972 248.219 12.1179 247.84 12.4095C247.465 12.6974 247.183 13.0895 246.994 13.5857C246.808 14.0781 246.715 14.6311 246.715 15.2448C246.715 15.866 246.81 16.4304 246.999 16.9379C247.193 17.4417 247.477 17.8432 247.852 18.1425C248.23 18.4379 248.7 18.5857 249.261 18.5857ZM259.38 19.7902C258.539 19.7902 257.814 19.6046 257.204 19.2334C256.598 18.8584 256.13 18.3357 255.8 17.6652C255.475 16.991 255.312 16.2069 255.312 15.3129C255.312 14.419 255.475 13.6311 255.8 12.9493C256.13 12.2637 256.588 11.7296 257.175 11.347C257.766 10.9607 258.456 10.7675 259.244 10.7675C259.698 10.7675 260.147 10.8432 260.59 10.9948C261.033 11.1463 261.437 11.3925 261.8 11.7334C262.164 12.0705 262.454 12.5175 262.67 13.0743C262.886 13.6311 262.994 14.3167 262.994 15.1311V15.6993L256.266 15.6993V14.5402L261.63 14.5402C261.63 14.0478 261.532 13.6084 261.335 13.222C261.141 12.8357 260.865 12.5307 260.505 12.3073C260.149 12.0838 259.729 11.972 259.244 11.972C258.71 11.972 258.247 12.1046 257.857 12.3698C257.471 12.6311 257.174 12.972 256.965 13.3925C256.757 13.8129 256.653 14.2637 256.653 14.7448V15.5175C256.653 16.1766 256.766 16.7353 256.994 17.1936C257.225 17.6482 257.545 17.9948 257.954 18.2334C258.363 18.4682 258.838 18.5857 259.38 18.5857C259.732 18.5857 260.05 18.5364 260.335 18.4379C260.622 18.3357 260.871 18.1842 261.079 17.9834C261.287 17.7789 261.448 17.5251 261.562 17.222L262.857 17.5857C262.721 18.0251 262.492 18.4114 262.17 18.7448C261.848 19.0743 261.45 19.3319 260.977 19.5175C260.503 19.6993 259.971 19.7902 259.38 19.7902ZM269.533 19.6084V10.8811H270.874V19.6084H269.533ZM270.215 9.42658C269.954 9.42658 269.729 9.33757 269.539 9.15953C269.354 8.9815 269.261 8.76749 269.261 8.51749C269.261 8.26749 269.354 8.05347 269.539 7.87544C269.729 7.69741 269.954 7.6084 270.215 7.6084C270.477 7.6084 270.7 7.69741 270.886 7.87544C271.075 8.05347 271.17 8.26749 271.17 8.51749C271.17 8.76749 271.075 8.9815 270.886 9.15953C270.7 9.33757 270.477 9.42658 270.215 9.42658ZM274.671 14.3584V19.6084H273.33V10.8811L274.626 10.8811V12.2448H274.739C274.944 11.8016 275.255 11.4455 275.671 11.1766C276.088 10.9039 276.626 10.7675 277.285 10.7675C277.876 10.7675 278.393 10.8887 278.836 11.1311C279.279 11.3698 279.624 11.7334 279.87 12.222C280.116 12.7069 280.239 13.3205 280.239 14.0629V19.6084H278.898V14.1539C278.898 13.4682 278.72 12.9342 278.364 12.5516C278.008 12.1652 277.52 11.972 276.898 11.972C276.47 11.972 276.088 12.0648 275.751 12.2504C275.417 12.436 275.154 12.7069 274.961 13.0629C274.768 13.419 274.671 13.8508 274.671 14.3584ZM289.514 10.8811L286.286 19.6084H284.923L281.695 10.8811H283.15L285.559 17.8357H285.65L288.059 10.8811L289.514 10.8811ZM294.63 19.7902C293.789 19.7902 293.064 19.6046 292.454 19.2334C291.848 18.8584 291.38 18.3357 291.05 17.6652C290.725 16.991 290.562 16.2069 290.562 15.3129C290.562 14.419 290.725 13.6311 291.05 12.9493C291.38 12.2637 291.838 11.7296 292.425 11.347C293.016 10.9607 293.706 10.7675 294.494 10.7675C294.948 10.7675 295.397 10.8432 295.84 10.9948C296.283 11.1463 296.687 11.3925 297.05 11.7334C297.414 12.0705 297.704 12.5175 297.92 13.0743C298.136 13.6311 298.244 14.3167 298.244 15.1311V15.6993H291.516V14.5402H296.88C296.88 14.0478 296.782 13.6084 296.585 13.222C296.391 12.8357 296.115 12.5307 295.755 12.3073C295.399 12.0838 294.979 11.972 294.494 11.972C293.96 11.972 293.497 12.1046 293.107 12.3698C292.721 12.6311 292.424 12.972 292.215 13.3925C292.007 13.8129 291.903 14.2637 291.903 14.7448V15.5175C291.903 16.1766 292.016 16.7353 292.244 17.1936C292.475 17.6482 292.795 17.9948 293.204 18.2334C293.613 18.4682 294.088 18.5857 294.63 18.5857C294.982 18.5857 295.3 18.5364 295.585 18.4379C295.872 18.3357 296.121 18.1842 296.329 17.9834C296.537 17.7789 296.698 17.5251 296.812 17.222L298.107 17.5857C297.971 18.0251 297.742 18.4114 297.42 18.7448C297.098 19.0743 296.7 19.3319 296.227 19.5175C295.753 19.6993 295.221 19.7902 294.63 19.7902ZM306.465 12.8357L305.261 13.1766C305.185 12.9758 305.073 12.7807 304.925 12.5914C304.782 12.3982 304.585 12.2391 304.335 12.1141C304.085 11.9891 303.764 11.9266 303.374 11.9266C302.84 11.9266 302.395 12.0497 302.039 12.2959C301.687 12.5383 301.511 12.847 301.511 13.222C301.511 13.5554 301.632 13.8186 301.874 14.0118C302.117 14.205 302.496 14.366 303.011 14.4948L304.306 14.8129C305.086 15.0023 305.668 15.2921 306.05 15.6823C306.433 16.0686 306.624 16.5667 306.624 17.1766C306.624 17.6766 306.48 18.1235 306.193 18.5175C305.908 18.9114 305.511 19.222 304.999 19.4493C304.488 19.6766 303.893 19.7902 303.215 19.7902C302.325 19.7902 301.588 19.597 301.005 19.2107C300.422 18.8243 300.052 18.2599 299.897 17.5175L301.17 17.1993C301.291 17.669 301.52 18.0213 301.857 18.2561C302.198 18.491 302.643 18.6084 303.193 18.6084C303.818 18.6084 304.314 18.4758 304.681 18.2107C305.052 17.9417 305.238 17.6198 305.238 17.2448C305.238 16.9417 305.132 16.6879 304.92 16.4834C304.708 16.2751 304.382 16.1198 303.943 16.0175L302.488 15.6766C301.689 15.4872 301.102 15.1936 300.727 14.7959C300.355 14.3944 300.17 13.8925 300.17 13.2902C300.17 12.7978 300.308 12.3622 300.585 11.9834C300.865 11.6046 301.246 11.3073 301.727 11.0914C302.211 10.8754 302.761 10.7675 303.374 10.7675C304.238 10.7675 304.916 10.9569 305.408 11.3357C305.905 11.7145 306.257 12.2145 306.465 12.8357ZM312.438 10.8811V12.0175H307.916V10.8811H312.438ZM309.234 8.79022H310.575V17.1084C310.575 17.4872 310.63 17.7713 310.739 17.9607C310.853 18.1463 310.997 18.2713 311.171 18.3357C311.349 18.3963 311.537 18.4266 311.734 18.4266C311.881 18.4266 312.003 18.419 312.097 18.4039C312.192 18.3849 312.268 18.3698 312.325 18.3584L312.597 19.5629C312.506 19.597 312.38 19.6311 312.217 19.6652C312.054 19.7031 311.847 19.722 311.597 19.722C311.219 19.722 310.847 19.6406 310.484 19.4777C310.124 19.3148 309.825 19.0667 309.586 18.7334C309.351 18.4001 309.234 17.9796 309.234 17.472V8.79022ZM314.455 19.6084V10.8811H315.796V19.6084H314.455ZM315.137 9.42658C314.876 9.42658 314.65 9.33757 314.461 9.15953C314.275 8.9815 314.183 8.76749 314.183 8.51749C314.183 8.26749 314.275 8.05347 314.461 7.87544C314.65 7.69741 314.876 7.6084 315.137 7.6084C315.398 7.6084 315.622 7.69741 315.808 7.87544C315.997 8.05347 316.092 8.26749 316.092 8.51749C316.092 8.76749 315.997 8.9815 315.808 9.15953C315.622 9.33757 315.398 9.42658 315.137 9.42658ZM318.252 19.6084V10.8811H319.548V12.2448H319.661C319.843 11.7789 320.137 11.4171 320.542 11.1595C320.947 10.8982 321.434 10.7675 322.002 10.7675C322.578 10.7675 323.057 10.8982 323.44 11.1595C323.826 11.4171 324.127 11.7789 324.343 12.2448H324.434C324.657 11.794 324.993 11.436 325.44 11.1709C325.887 10.902 326.423 10.7675 327.048 10.7675C327.828 10.7675 328.466 11.0118 328.962 11.5004C329.459 11.9853 329.707 12.741 329.707 13.7675V19.6084H328.366V13.7675C328.366 13.1235 328.19 12.6633 327.837 12.3868C327.485 12.1103 327.07 11.972 326.593 11.972C325.979 11.972 325.504 12.1576 325.167 12.5289C324.83 12.8963 324.661 13.3622 324.661 13.9266V19.6084H323.298V13.6311C323.298 13.1349 323.137 12.7353 322.815 12.4323C322.493 12.1254 322.078 11.972 321.57 11.972C321.222 11.972 320.896 12.0648 320.593 12.2504C320.294 12.436 320.051 12.6936 319.866 13.0232C319.684 13.3489 319.593 13.7258 319.593 14.1539V19.6084H318.252ZM335.818 19.7902C334.977 19.7902 334.251 19.6046 333.641 19.2334C333.035 18.8584 332.568 18.3357 332.238 17.6652C331.912 16.991 331.749 16.2069 331.749 15.3129C331.749 14.419 331.912 13.6311 332.238 12.9493C332.568 12.2637 333.026 11.7296 333.613 11.347C334.204 10.9607 334.893 10.7675 335.681 10.7675C336.136 10.7675 336.585 10.8432 337.028 10.9948C337.471 11.1463 337.874 11.3925 338.238 11.7334C338.602 12.0705 338.891 12.5175 339.107 13.0743C339.323 13.6311 339.431 14.3167 339.431 15.1311V15.6993H332.704V14.5402H338.068C338.068 14.0478 337.969 13.6084 337.772 13.222C337.579 12.8357 337.302 12.5307 336.943 12.3073C336.586 12.0838 336.166 11.972 335.681 11.972C335.147 11.972 334.685 12.1046 334.295 12.3698C333.908 12.6311 333.611 12.972 333.403 13.3925C333.194 13.8129 333.09 14.2637 333.09 14.7448V15.5175C333.09 16.1766 333.204 16.7353 333.431 17.1936C333.662 17.6482 333.982 17.9948 334.391 18.2334C334.8 18.4682 335.276 18.5857 335.818 18.5857C336.17 18.5857 336.488 18.5364 336.772 18.4379C337.06 18.3357 337.308 18.1842 337.516 17.9834C337.725 17.7789 337.886 17.5251 337.999 17.222L339.295 17.5857C339.158 18.0251 338.929 18.4114 338.607 18.7448C338.285 19.0743 337.888 19.3319 337.414 19.5175C336.941 19.6993 336.408 19.7902 335.818 19.7902ZM342.812 14.3584V19.6084H341.471V10.8811H342.766V12.2448H342.88C343.085 11.8016 343.395 11.4455 343.812 11.1766C344.229 10.9039 344.766 10.7675 345.425 10.7675C346.016 10.7675 346.533 10.8887 346.977 11.1311C347.42 11.3698 347.764 11.7334 348.011 12.222C348.257 12.7069 348.38 13.3205 348.38 14.0629V19.6084H347.039V14.1539C347.039 13.4682 346.861 12.9342 346.505 12.5516C346.149 12.1652 345.66 11.972 345.039 11.972C344.611 11.972 344.229 12.0648 343.891 12.2504C343.558 12.436 343.295 12.7069 343.102 13.0629C342.908 13.419 342.812 13.8508 342.812 14.3584ZM354.626 10.8811V12.0175H350.103V10.8811H354.626ZM351.421 8.79022H352.762V17.1084C352.762 17.4872 352.817 17.7713 352.927 17.9607C353.041 18.1463 353.184 18.2713 353.359 18.3357C353.537 18.3963 353.724 18.4266 353.921 18.4266C354.069 18.4266 354.19 18.419 354.285 18.4039C354.38 18.3849 354.455 18.3698 354.512 18.3584L354.785 19.5629C354.694 19.597 354.567 19.6311 354.404 19.6652C354.241 19.7031 354.035 19.722 353.785 19.722C353.406 19.722 353.035 19.6406 352.671 19.4777C352.311 19.3148 352.012 19.0667 351.773 18.7334C351.539 18.4001 351.421 17.9796 351.421 17.472V8.79022ZM360.095 19.7902C359.307 19.7902 358.615 19.6027 358.021 19.2277C357.43 18.8527 356.968 18.3281 356.634 17.6539C356.305 16.9796 356.14 16.1917 356.14 15.2902C356.14 14.3811 356.305 13.5876 356.634 12.9095C356.968 12.2315 357.43 11.705 358.021 11.33C358.615 10.955 359.307 10.7675 360.095 10.7675C360.882 10.7675 361.572 10.955 362.163 11.33C362.757 11.705 363.22 12.2315 363.549 12.9095C363.882 13.5876 364.049 14.3811 364.049 15.2902C364.049 16.1917 363.882 16.9796 363.549 17.6539C363.22 18.3281 362.757 18.8527 362.163 19.2277C361.572 19.6027 360.882 19.7902 360.095 19.7902ZM360.095 18.5857C360.693 18.5857 361.185 18.4323 361.572 18.1254C361.958 17.8186 362.244 17.4152 362.43 16.9152C362.615 16.4152 362.708 15.8735 362.708 15.2902C362.708 14.7069 362.615 14.1633 362.43 13.6595C362.244 13.1557 361.958 12.7485 361.572 12.4379C361.185 12.1273 360.693 11.972 360.095 11.972C359.496 11.972 359.004 12.1273 358.617 12.4379C358.231 12.7485 357.945 13.1557 357.759 13.6595C357.574 14.1633 357.481 14.7069 357.481 15.2902C357.481 15.8735 357.574 16.4152 357.759 16.9152C357.945 17.4152 358.231 17.8186 358.617 18.1254C359.004 18.4323 359.496 18.5857 360.095 18.5857Z" fill="white"/>
<circle cx="163.944" cy="55.6088" r="4.76803" fill="#8F3CFF"/>
<path d="M185.485 51.222V49.972H194.212V51.222H190.553V61.6084H189.144V51.222H185.485ZM198.599 61.7902C197.758 61.7902 197.032 61.6046 196.423 61.2334C195.817 60.8584 195.349 60.3357 195.019 59.6652C194.693 58.991 194.531 58.2069 194.531 57.3129C194.531 56.419 194.693 55.6311 195.019 54.9493C195.349 54.2637 195.807 53.7296 196.394 53.347C196.985 52.9607 197.675 52.7675 198.462 52.7675C198.917 52.7675 199.366 52.8432 199.809 52.9948C200.252 53.1463 200.656 53.3925 201.019 53.7334C201.383 54.0705 201.673 54.5175 201.889 55.0743C202.104 55.6311 202.212 56.3167 202.212 57.1311V57.6993H195.485V56.5402H200.849C200.849 56.0478 200.75 55.6084 200.553 55.222C200.36 54.8357 200.084 54.5307 199.724 54.3073C199.368 54.0838 198.947 53.972 198.462 53.972C197.928 53.972 197.466 54.1046 197.076 54.3698C196.69 54.6311 196.392 54.972 196.184 55.3925C195.976 55.8129 195.871 56.2637 195.871 56.7448V57.5175C195.871 58.1766 195.985 58.7353 196.212 59.1936C196.443 59.6482 196.764 59.9948 197.173 60.2334C197.582 60.4682 198.057 60.5857 198.599 60.5857C198.951 60.5857 199.269 60.5364 199.553 60.4379C199.841 60.3357 200.089 60.1842 200.298 59.9834C200.506 59.7789 200.667 59.5251 200.781 59.222L202.076 59.5857C201.94 60.0251 201.711 60.4114 201.389 60.7448C201.067 61.0743 200.669 61.3319 200.195 61.5175C199.722 61.6993 199.19 61.7902 198.599 61.7902ZM210.434 54.8357L209.229 55.1766C209.154 54.9758 209.042 54.7807 208.894 54.5914C208.75 54.3982 208.553 54.2391 208.303 54.1141C208.053 53.9891 207.733 53.9266 207.343 53.9266C206.809 53.9266 206.364 54.0497 206.008 54.2959C205.656 54.5383 205.479 54.847 205.479 55.222C205.479 55.5554 205.601 55.8186 205.843 56.0118C206.086 56.205 206.464 56.366 206.979 56.4948L208.275 56.8129C209.055 57.0023 209.637 57.2921 210.019 57.6823C210.402 58.0686 210.593 58.5667 210.593 59.1766C210.593 59.6766 210.449 60.1235 210.161 60.5175C209.877 60.9114 209.479 61.222 208.968 61.4493C208.457 61.6766 207.862 61.7902 207.184 61.7902C206.294 61.7902 205.557 61.597 204.974 61.2107C204.39 60.8243 204.021 60.2599 203.866 59.5175L205.139 59.1993C205.26 59.669 205.489 60.0213 205.826 60.2561C206.167 60.491 206.612 60.6084 207.161 60.6084C207.786 60.6084 208.282 60.4758 208.65 60.2107C209.021 59.9417 209.207 59.6198 209.207 59.2448C209.207 58.9417 209.101 58.6879 208.889 58.4834C208.676 58.2751 208.351 58.1198 207.911 58.0175L206.457 57.6766C205.657 57.4872 205.07 57.1936 204.695 56.7959C204.324 56.3944 204.139 55.8925 204.139 55.2902C204.139 54.7978 204.277 54.3622 204.553 53.9834C204.834 53.6046 205.214 53.3073 205.695 53.0914C206.18 52.8754 206.729 52.7675 207.343 52.7675C208.207 52.7675 208.885 52.9569 209.377 53.3357C209.873 53.7145 210.226 54.2145 210.434 54.8357ZM216.157 61.7902C215.369 61.7902 214.678 61.6027 214.083 61.2277C213.492 60.8527 213.03 60.3281 212.697 59.6539C212.367 58.9796 212.202 58.1917 212.202 57.2902C212.202 56.3811 212.367 55.5876 212.697 54.9095C213.03 54.2315 213.492 53.705 214.083 53.33C214.678 52.955 215.369 52.7675 216.157 52.7675C216.945 52.7675 217.634 52.955 218.225 53.33C218.82 53.705 219.282 54.2315 219.612 54.9095C219.945 55.5876 220.112 56.3811 220.112 57.2902C220.112 58.1917 219.945 58.9796 219.612 59.6539C219.282 60.3281 218.82 60.8527 218.225 61.2277C217.634 61.6027 216.945 61.7902 216.157 61.7902ZM216.157 60.5857C216.755 60.5857 217.248 60.4323 217.634 60.1254C218.021 59.8186 218.307 59.4152 218.492 58.9152C218.678 58.4152 218.771 57.8735 218.771 57.2902C218.771 56.7069 218.678 56.1633 218.492 55.6595C218.307 55.1557 218.021 54.7485 217.634 54.4379C217.248 54.1273 216.755 53.972 216.157 53.972C215.559 53.972 215.066 54.1273 214.68 54.4379C214.293 54.7485 214.007 55.1557 213.822 55.6595C213.636 56.1633 213.543 56.7069 213.543 57.2902C213.543 57.8735 213.636 58.4152 213.822 58.9152C214.007 59.4152 214.293 59.8186 214.68 60.1254C215.066 60.4323 215.559 60.5857 216.157 60.5857ZM227.658 58.0402V52.8811H228.999V61.6084H227.658V60.1311H227.568C227.363 60.5743 227.045 60.9512 226.613 61.2618C226.181 61.5686 225.636 61.722 224.977 61.722C224.431 61.722 223.946 61.6027 223.522 61.3641C223.098 61.1217 222.764 60.758 222.522 60.2732C222.28 59.7845 222.158 59.169 222.158 58.4266V52.8811H223.499V58.3357C223.499 58.972 223.677 59.4796 224.033 59.8584C224.393 60.2372 224.852 60.4266 225.408 60.4266C225.742 60.4266 226.081 60.3414 226.425 60.1709C226.774 60.0004 227.066 59.7391 227.3 59.3868C227.539 59.0345 227.658 58.5857 227.658 58.0402ZM231.455 61.6084V52.8811H232.751V54.1993H232.842C233.001 53.7675 233.289 53.4171 233.705 53.1482C234.122 52.8792 234.592 52.7448 235.114 52.7448C235.213 52.7448 235.336 52.7467 235.484 52.7504C235.631 52.7542 235.743 52.7599 235.819 52.7675V54.1311C235.773 54.1198 235.669 54.1027 235.506 54.08C235.347 54.0535 235.179 54.0402 235.001 54.0402C234.577 54.0402 234.198 54.1292 233.864 54.3073C233.535 54.4815 233.273 54.7239 233.08 55.0345C232.891 55.3414 232.796 55.6917 232.796 56.0857V61.6084H231.455ZM240.688 61.7902C239.9 61.7902 239.209 61.6027 238.614 61.2277C238.023 60.8527 237.561 60.3281 237.228 59.6539C236.898 58.9796 236.734 58.1917 236.734 57.2902C236.734 56.3811 236.898 55.5876 237.228 54.9095C237.561 54.2315 238.023 53.705 238.614 53.33C239.209 52.955 239.9 52.7675 240.688 52.7675C241.476 52.7675 242.166 52.955 242.756 53.33C243.351 53.705 243.813 54.2315 244.143 54.9095C244.476 55.5876 244.643 56.3811 244.643 57.2902C244.643 58.1917 244.476 58.9796 244.143 59.6539C243.813 60.3281 243.351 60.8527 242.756 61.2277C242.166 61.6027 241.476 61.7902 240.688 61.7902ZM240.688 60.5857C241.287 60.5857 241.779 60.4323 242.166 60.1254C242.552 59.8186 242.838 59.4152 243.023 58.9152C243.209 58.4152 243.302 57.8735 243.302 57.2902C243.302 56.7069 243.209 56.1633 243.023 55.6595C242.838 55.1557 242.552 54.7485 242.166 54.4379C241.779 54.1273 241.287 53.972 240.688 53.972C240.09 53.972 239.597 54.1273 239.211 54.4379C238.825 54.7485 238.539 55.1557 238.353 55.6595C238.167 56.1633 238.075 56.7069 238.075 57.2902C238.075 57.8735 238.167 58.4152 238.353 58.9152C238.539 59.4152 238.825 59.8186 239.211 60.1254C239.597 60.4323 240.09 60.5857 240.688 60.5857ZM254.962 61.6084H251.371V49.972H255.121C256.25 49.972 257.216 50.205 258.019 50.6709C258.822 51.133 259.438 51.7978 259.866 52.6652C260.294 53.5289 260.508 54.5629 260.508 55.7675C260.508 56.9796 260.292 58.0232 259.86 58.8982C259.428 59.7694 258.8 60.4398 257.974 60.9095C257.148 61.3754 256.144 61.6084 254.962 61.6084ZM252.781 60.3584H254.871C255.834 60.3584 256.631 60.1728 257.264 59.8016C257.896 59.4304 258.368 58.902 258.678 58.2164C258.989 57.5307 259.144 56.7145 259.144 55.7675C259.144 54.8281 258.991 54.0194 258.684 53.3414C258.377 52.6595 257.919 52.1368 257.309 51.7732C256.699 51.4057 255.94 51.222 255.031 51.222H252.781V60.3584ZM262.69 61.6084V52.8811H264.031V61.6084H262.69ZM263.371 51.4266C263.11 51.4266 262.885 51.3376 262.695 51.1595C262.51 50.9815 262.417 50.7675 262.417 50.5175C262.417 50.2675 262.51 50.0535 262.695 49.8754C262.885 49.6974 263.11 49.6084 263.371 49.6084C263.633 49.6084 263.856 49.6974 264.042 49.8754C264.231 50.0535 264.326 50.2675 264.326 50.5175C264.326 50.7675 264.231 50.9815 264.042 51.1595C263.856 51.3376 263.633 51.4266 263.371 51.4266ZM266.487 61.6084V52.8811H267.782V54.1993H267.873C268.032 53.7675 268.32 53.4171 268.737 53.1482C269.153 52.8792 269.623 52.7448 270.146 52.7448C270.244 52.7448 270.367 52.7467 270.515 52.7504C270.663 52.7542 270.774 52.7599 270.85 52.7675V54.1311C270.805 54.1198 270.701 54.1027 270.538 54.08C270.379 54.0535 270.21 54.0402 270.032 54.0402C269.608 54.0402 269.229 54.1292 268.896 54.3073C268.566 54.4815 268.305 54.7239 268.112 55.0345C267.922 55.3414 267.827 55.6917 267.827 56.0857V61.6084H266.487ZM275.833 61.7902C274.992 61.7902 274.267 61.6046 273.657 61.2334C273.051 60.8584 272.583 60.3357 272.254 59.6652C271.928 58.991 271.765 58.2069 271.765 57.3129C271.765 56.419 271.928 55.6311 272.254 54.9493C272.583 54.2637 273.041 53.7296 273.629 53.347C274.22 52.9607 274.909 52.7675 275.697 52.7675C276.151 52.7675 276.6 52.8432 277.043 52.9948C277.487 53.1463 277.89 53.3925 278.254 53.7334C278.617 54.0705 278.907 54.5175 279.123 55.0743C279.339 55.6311 279.447 56.3167 279.447 57.1311V57.6993H272.72V56.5402H278.083C278.083 56.0478 277.985 55.6084 277.788 55.222C277.595 54.8357 277.318 54.5307 276.958 54.3073C276.602 54.0838 276.182 53.972 275.697 53.972C275.163 53.972 274.701 54.1046 274.31 54.3698C273.924 54.6311 273.627 54.972 273.418 55.3925C273.21 55.8129 273.106 56.2637 273.106 56.7448V57.5175C273.106 58.1766 273.22 58.7353 273.447 59.1936C273.678 59.6482 273.998 59.9948 274.407 60.2334C274.816 60.4682 275.291 60.5857 275.833 60.5857C276.185 60.5857 276.504 60.5364 276.788 60.4379C277.076 60.3357 277.324 60.1842 277.532 59.9834C277.74 59.7789 277.901 59.5251 278.015 59.222L279.31 59.5857C279.174 60.0251 278.945 60.4114 278.623 60.7448C278.301 61.0743 277.903 61.3319 277.43 61.5175C276.956 61.6993 276.424 61.7902 275.833 61.7902ZM285.282 52.8811V54.0175H280.759V52.8811H285.282ZM282.077 50.7902H283.418V59.1084C283.418 59.4872 283.473 59.7713 283.583 59.9607C283.697 60.1463 283.841 60.2713 284.015 60.3357C284.193 60.3963 284.38 60.4266 284.577 60.4266C284.725 60.4266 284.846 60.419 284.941 60.4039C285.036 60.3849 285.112 60.3698 285.168 60.3584L285.441 61.5629C285.35 61.597 285.223 61.6311 285.06 61.6652C284.898 61.7031 284.691 61.722 284.441 61.722C284.062 61.722 283.691 61.6406 283.327 61.4777C282.968 61.3148 282.668 61.0667 282.43 60.7334C282.195 60.4001 282.077 59.9796 282.077 59.472V50.7902ZM290.751 61.7902C289.963 61.7902 289.272 61.6027 288.677 61.2277C288.086 60.8527 287.624 60.3281 287.291 59.6539C286.961 58.9796 286.796 58.1917 286.796 57.2902C286.796 56.3811 286.961 55.5876 287.291 54.9095C287.624 54.2315 288.086 53.705 288.677 53.33C289.272 52.955 289.963 52.7675 290.751 52.7675C291.539 52.7675 292.228 52.955 292.819 53.33C293.414 53.705 293.876 54.2315 294.205 54.9095C294.539 55.5876 294.705 56.3811 294.705 57.2902C294.705 58.1917 294.539 58.9796 294.205 59.6539C293.876 60.3281 293.414 60.8527 292.819 61.2277C292.228 61.6027 291.539 61.7902 290.751 61.7902ZM290.751 60.5857C291.349 60.5857 291.842 60.4323 292.228 60.1254C292.614 59.8186 292.9 59.4152 293.086 58.9152C293.272 58.4152 293.364 57.8735 293.364 57.2902C293.364 56.7069 293.272 56.1633 293.086 55.6595C292.9 55.1557 292.614 54.7485 292.228 54.4379C291.842 54.1273 291.349 53.972 290.751 53.972C290.152 53.972 289.66 54.1273 289.273 54.4379C288.887 54.7485 288.601 55.1557 288.416 55.6595C288.23 56.1633 288.137 56.7069 288.137 57.2902C288.137 57.8735 288.23 58.4152 288.416 58.9152C288.601 59.4152 288.887 59.8186 289.273 60.1254C289.66 60.4323 290.152 60.5857 290.751 60.5857Z" fill="white"/>
<circle cx="163.944" cy="97.6088" r="4.76803" fill="#FF3C82"/>
<path d="M186.121 103.608V91.972H190.053C190.966 91.972 191.712 92.1368 192.292 92.4664C192.875 92.7921 193.307 93.2334 193.587 93.7902C193.868 94.347 194.008 94.9682 194.008 95.6539C194.008 96.3395 193.868 96.9626 193.587 97.5232C193.311 98.0838 192.883 98.5307 192.303 98.8641C191.724 99.1936 190.981 99.3584 190.076 99.3584H187.258V98.1084H190.031C190.656 98.1084 191.157 98.0004 191.536 97.7845C191.915 97.5686 192.19 97.277 192.36 96.9095C192.534 96.5383 192.621 96.1198 192.621 95.6539C192.621 95.1879 192.534 94.7713 192.36 94.4039C192.19 94.0364 191.913 93.7485 191.531 93.5402C191.148 93.3281 190.64 93.222 190.008 93.222H187.531V103.608H186.121ZM196.096 103.608V94.8811H197.391V96.1993H197.482C197.641 95.7675 197.929 95.4171 198.346 95.1482C198.763 94.8792 199.232 94.7448 199.755 94.7448C199.854 94.7448 199.977 94.7467 200.124 94.7504C200.272 94.7542 200.384 94.7599 200.46 94.7675V96.1311C200.414 96.1198 200.31 96.1027 200.147 96.08C199.988 96.0535 199.819 96.0402 199.641 96.0402C199.217 96.0402 198.838 96.1292 198.505 96.3073C198.175 96.4815 197.914 96.7239 197.721 97.0345C197.532 97.3414 197.437 97.6917 197.437 98.0857V103.608H196.096ZM205.443 103.79C204.602 103.79 203.876 103.605 203.266 103.233C202.66 102.858 202.193 102.336 201.863 101.665C201.537 100.991 201.374 100.207 201.374 99.3129C201.374 98.419 201.537 97.6311 201.863 96.9493C202.193 96.2637 202.651 95.7296 203.238 95.347C203.829 94.9607 204.518 94.7675 205.306 94.7675C205.761 94.7675 206.21 94.8432 206.653 94.9948C207.096 95.1463 207.499 95.3925 207.863 95.7334C208.227 96.0705 208.516 96.5175 208.732 97.0743C208.948 97.6311 209.056 98.3167 209.056 99.1311V99.6993H202.329V98.5402H207.693C207.693 98.0478 207.594 97.6084 207.397 97.222C207.204 96.8357 206.927 96.5307 206.568 96.3073C206.211 96.0838 205.791 95.972 205.306 95.972C204.772 95.972 204.31 96.1046 203.92 96.3698C203.533 96.6311 203.236 96.972 203.028 97.3925C202.819 97.8129 202.715 98.2637 202.715 98.7448V99.5175C202.715 100.177 202.829 100.735 203.056 101.194C203.287 101.648 203.607 101.995 204.016 102.233C204.425 102.468 204.901 102.586 205.443 102.586C205.795 102.586 206.113 102.536 206.397 102.438C206.685 102.336 206.933 102.184 207.141 101.983C207.35 101.779 207.511 101.525 207.624 101.222L208.92 101.586C208.783 102.025 208.554 102.411 208.232 102.745C207.91 103.074 207.513 103.332 207.039 103.517C206.566 103.699 206.033 103.79 205.443 103.79ZM217.967 94.8811L214.739 103.608H213.376L210.148 94.8811H211.603L214.012 101.836H214.103L216.512 94.8811H217.967ZM219.737 103.608V94.8811H221.077V103.608H219.737ZM220.418 93.4266C220.157 93.4266 219.932 93.3376 219.742 93.1595C219.557 92.9815 219.464 92.7675 219.464 92.5175C219.464 92.2675 219.557 92.0535 219.742 91.8754C219.932 91.6974 220.157 91.6084 220.418 91.6084C220.68 91.6084 220.903 91.6974 221.089 91.8754C221.278 92.0535 221.373 92.2675 221.373 92.5175C221.373 92.7675 221.278 92.9815 221.089 93.1595C220.903 93.3376 220.68 93.4266 220.418 93.4266ZM226.829 103.79C226.102 103.79 225.46 103.607 224.903 103.239C224.346 102.868 223.91 102.345 223.596 101.671C223.282 100.993 223.124 100.192 223.124 99.2675C223.124 98.3508 223.282 97.5554 223.596 96.8811C223.91 96.2069 224.348 95.686 224.908 95.3186C225.469 94.9512 226.117 94.7675 226.852 94.7675C227.42 94.7675 227.869 94.8622 228.198 95.0516C228.532 95.2372 228.785 95.4493 228.96 95.6879C229.138 95.9228 229.276 96.116 229.374 96.2675H229.488V91.972H230.829V103.608H229.533V102.267H229.374C229.276 102.427 229.136 102.627 228.954 102.87C228.772 103.108 228.513 103.322 228.175 103.512C227.838 103.697 227.389 103.79 226.829 103.79ZM227.011 102.586C227.549 102.586 228.003 102.446 228.374 102.165C228.746 101.881 229.028 101.489 229.221 100.989C229.414 100.485 229.511 99.9039 229.511 99.2448C229.511 98.5932 229.416 98.0232 229.227 97.5345C229.037 97.0421 228.757 96.6595 228.386 96.3868C228.014 96.1103 227.556 95.972 227.011 95.972C226.443 95.972 225.969 96.1179 225.59 96.4095C225.215 96.6974 224.933 97.0895 224.744 97.5857C224.558 98.0781 224.465 98.6311 224.465 99.2448C224.465 99.866 224.56 100.43 224.749 100.938C224.943 101.442 225.227 101.843 225.602 102.142C225.98 102.438 226.45 102.586 227.011 102.586ZM237.13 103.79C236.289 103.79 235.564 103.605 234.954 103.233C234.348 102.858 233.88 102.336 233.55 101.665C233.225 100.991 233.062 100.207 233.062 99.3129C233.062 98.419 233.225 97.6311 233.55 96.9493C233.88 96.2637 234.338 95.7296 234.925 95.347C235.516 94.9607 236.206 94.7675 236.994 94.7675C237.448 94.7675 237.897 94.8432 238.34 94.9948C238.783 95.1463 239.187 95.3925 239.55 95.7334C239.914 96.0705 240.204 96.5175 240.42 97.0743C240.636 97.6311 240.744 98.3167 240.744 99.1311V99.6993H234.016V98.5402H239.38C239.38 98.0478 239.282 97.6084 239.085 97.222C238.891 96.8357 238.615 96.5307 238.255 96.3073C237.899 96.0838 237.479 95.972 236.994 95.972C236.46 95.972 235.997 96.1046 235.607 96.3698C235.221 96.6311 234.924 96.972 234.715 97.3925C234.507 97.8129 234.403 98.2637 234.403 98.7448V99.5175C234.403 100.177 234.516 100.735 234.744 101.194C234.975 101.648 235.295 101.995 235.704 102.233C236.113 102.468 236.588 102.586 237.13 102.586C237.482 102.586 237.8 102.536 238.085 102.438C238.372 102.336 238.621 102.184 238.829 101.983C239.037 101.779 239.198 101.525 239.312 101.222L240.607 101.586C240.471 102.025 240.242 102.411 239.92 102.745C239.598 103.074 239.2 103.332 238.727 103.517C238.253 103.699 237.721 103.79 237.13 103.79ZM238.107 93.8357L236.925 92.2448L235.744 93.8357H234.471V93.7448L236.312 91.3811H237.539L239.38 93.7448V93.8357H238.107ZM244.124 98.3584V103.608H242.783V94.8811H244.079V96.2448H244.193C244.397 95.8016 244.708 95.4455 245.124 95.1766C245.541 94.9039 246.079 94.7675 246.738 94.7675C247.329 94.7675 247.846 94.8887 248.289 95.1311C248.732 95.3698 249.077 95.7334 249.323 96.222C249.569 96.7069 249.693 97.3205 249.693 98.0629V103.608H248.352V98.1539C248.352 97.4682 248.174 96.9342 247.818 96.5516C247.461 96.1652 246.973 95.972 246.352 95.972C245.924 95.972 245.541 96.0648 245.204 96.2504C244.871 96.436 244.607 96.7069 244.414 97.0629C244.221 97.419 244.124 97.8508 244.124 98.3584ZM255.688 103.79C254.87 103.79 254.166 103.597 253.575 103.211C252.984 102.824 252.529 102.292 252.211 101.614C251.893 100.936 251.734 100.161 251.734 99.2902C251.734 98.4039 251.897 97.6217 252.222 96.9436C252.552 96.2618 253.01 95.7296 253.597 95.347C254.188 94.9607 254.878 94.7675 255.666 94.7675C256.279 94.7675 256.832 94.8811 257.325 95.1084C257.817 95.3357 258.22 95.6539 258.535 96.0629C258.849 96.472 259.044 96.9493 259.12 97.4948H257.779C257.677 97.097 257.45 96.7448 257.097 96.4379C256.749 96.1273 256.279 95.972 255.688 95.972C255.166 95.972 254.707 96.1084 254.313 96.3811C253.923 96.6501 253.618 97.0307 253.398 97.5232C253.183 98.0118 253.075 98.5857 253.075 99.2448C253.075 99.919 253.181 100.506 253.393 101.006C253.609 101.506 253.912 101.894 254.302 102.171C254.696 102.447 255.158 102.586 255.688 102.586C256.037 102.586 256.353 102.525 256.637 102.404C256.921 102.283 257.162 102.108 257.359 101.881C257.556 101.654 257.696 101.381 257.779 101.063H259.12C259.044 101.578 258.857 102.042 258.558 102.455C258.262 102.864 257.87 103.19 257.381 103.432C256.897 103.671 256.332 103.79 255.688 103.79ZM261.08 103.608V94.8811H262.421V103.608H261.08ZM261.762 93.4266C261.501 93.4266 261.275 93.3376 261.086 93.1595C260.9 92.9815 260.808 92.7675 260.808 92.5175C260.808 92.2675 260.9 92.0535 261.086 91.8754C261.275 91.6974 261.501 91.6084 261.762 91.6084C262.023 91.6084 262.247 91.6974 262.433 91.8754C262.622 92.0535 262.717 92.2675 262.717 92.5175C262.717 92.7675 262.622 92.9815 262.433 93.1595C262.247 93.3376 262.023 93.4266 261.762 93.4266ZM267.445 103.813C266.892 103.813 266.39 103.709 265.94 103.5C265.489 103.288 265.131 102.983 264.866 102.586C264.601 102.184 264.468 101.699 264.468 101.131C264.468 100.631 264.567 100.226 264.764 99.9152C264.961 99.6008 265.224 99.3546 265.553 99.1766C265.883 98.9985 266.246 98.866 266.644 98.7789C267.046 98.6879 267.449 98.616 267.854 98.5629C268.385 98.4948 268.815 98.4436 269.144 98.4095C269.478 98.3717 269.72 98.3092 269.871 98.222C270.027 98.1349 270.104 97.9834 270.104 97.7675V97.722C270.104 97.1614 269.951 96.7258 269.644 96.4152C269.341 96.1046 268.881 95.9493 268.264 95.9493C267.623 95.9493 267.121 96.0895 266.758 96.3698C266.394 96.6501 266.139 96.9493 265.991 97.2675L264.718 96.8129C264.945 96.2826 265.248 95.8698 265.627 95.5743C266.01 95.2751 266.426 95.0667 266.877 94.9493C267.332 94.8281 267.779 94.7675 268.218 94.7675C268.498 94.7675 268.82 94.8016 269.184 94.8698C269.551 94.9342 269.906 95.0686 270.246 95.2732C270.591 95.4777 270.877 95.7864 271.104 96.1993C271.332 96.6122 271.445 97.1652 271.445 97.8584V103.608H270.104V102.427H270.036C269.945 102.616 269.794 102.819 269.582 103.035C269.37 103.25 269.087 103.434 268.735 103.586C268.383 103.737 267.953 103.813 267.445 103.813ZM267.65 102.608C268.18 102.608 268.627 102.504 268.991 102.296C269.358 102.088 269.635 101.819 269.82 101.489C270.01 101.16 270.104 100.813 270.104 100.449V99.222C270.048 99.2902 269.923 99.3527 269.729 99.4095C269.54 99.4626 269.32 99.5099 269.07 99.5516C268.824 99.5895 268.584 99.6235 268.349 99.6539C268.118 99.6804 267.93 99.7031 267.786 99.722C267.438 99.7675 267.112 99.8414 266.809 99.9436C266.51 100.042 266.267 100.192 266.082 100.392C265.9 100.589 265.809 100.858 265.809 101.199C265.809 101.665 265.981 102.017 266.326 102.256C266.675 102.491 267.116 102.608 267.65 102.608ZM278.575 103.608V91.972H282.506C283.419 91.972 284.166 92.1368 284.745 92.4664C285.328 92.7921 285.76 93.2334 286.041 93.7902C286.321 94.347 286.461 94.9682 286.461 95.6539C286.461 96.3395 286.321 96.9626 286.041 97.5232C285.764 98.0838 285.336 98.5307 284.756 98.8641C284.177 99.1936 283.434 99.3584 282.529 99.3584H279.711V98.1084H282.484C283.109 98.1084 283.611 98.0004 283.989 97.7845C284.368 97.5686 284.643 97.277 284.813 96.9095C284.987 96.5383 285.075 96.1198 285.075 95.6539C285.075 95.1879 284.987 94.7713 284.813 94.4039C284.643 94.0364 284.366 93.7485 283.984 93.5402C283.601 93.3281 283.094 93.222 282.461 93.222H279.984V103.608H278.575ZM288.549 103.608V94.8811H289.845V96.1993H289.935C290.095 95.7675 290.382 95.4171 290.799 95.1482C291.216 94.8792 291.685 94.7448 292.208 94.7448C292.307 94.7448 292.43 94.7467 292.577 94.7504C292.725 94.7542 292.837 94.7599 292.913 94.7675V96.1311C292.867 96.1198 292.763 96.1027 292.6 96.08C292.441 96.0535 292.273 96.0402 292.095 96.0402C291.67 96.0402 291.291 96.1292 290.958 96.3073C290.629 96.4815 290.367 96.7239 290.174 97.0345C289.985 97.3414 289.89 97.6917 289.89 98.0857V103.608H288.549ZM294.502 103.608V94.8811H295.843V103.608H294.502ZM295.184 93.4266C294.923 93.4266 294.697 93.3376 294.508 93.1595C294.322 92.9815 294.229 92.7675 294.229 92.5175C294.229 92.2675 294.322 92.0535 294.508 91.8754C294.697 91.6974 294.923 91.6084 295.184 91.6084C295.445 91.6084 295.669 91.6974 295.854 91.8754C296.044 92.0535 296.139 92.2675 296.139 92.5175C296.139 92.7675 296.044 92.9815 295.854 93.1595C295.669 93.3376 295.445 93.4266 295.184 93.4266ZM305.435 94.8811L302.208 103.608H300.845L297.617 94.8811L299.072 94.8811L301.481 101.836H301.572L303.981 94.8811H305.435ZM309.508 103.813C308.955 103.813 308.453 103.709 308.002 103.5C307.551 103.288 307.193 102.983 306.928 102.586C306.663 102.184 306.531 101.699 306.531 101.131C306.531 100.631 306.629 100.226 306.826 99.9152C307.023 99.6008 307.286 99.3546 307.616 99.1766C307.945 98.9985 308.309 98.866 308.707 98.7789C309.108 98.6879 309.512 98.616 309.917 98.5629C310.447 98.4948 310.877 98.4436 311.207 98.4095C311.54 98.3717 311.782 98.3092 311.934 98.222C312.089 98.1349 312.167 97.9834 312.167 97.7675V97.722C312.167 97.1614 312.014 96.7258 311.707 96.4152C311.404 96.1046 310.943 95.9493 310.326 95.9493C309.686 95.9493 309.184 96.0895 308.82 96.3698C308.457 96.6501 308.201 96.9493 308.053 97.2675L306.781 96.8129C307.008 96.2826 307.311 95.8698 307.69 95.5743C308.072 95.2751 308.489 95.0667 308.94 94.9493C309.394 94.8281 309.841 94.7675 310.281 94.7675C310.561 94.7675 310.883 94.8016 311.246 94.8698C311.614 94.9342 311.968 95.0686 312.309 95.2732C312.654 95.4777 312.94 95.7864 313.167 96.1993C313.394 96.6122 313.508 97.1652 313.508 97.8584V103.608H312.167V102.427H312.099C312.008 102.616 311.856 102.819 311.644 103.035C311.432 103.25 311.15 103.434 310.798 103.586C310.445 103.737 310.015 103.813 309.508 103.813ZM309.712 102.608C310.243 102.608 310.69 102.504 311.053 102.296C311.421 102.088 311.697 101.819 311.883 101.489C312.072 101.16 312.167 100.813 312.167 100.449V99.222C312.11 99.2902 311.985 99.3527 311.792 99.4095C311.603 99.4626 311.383 99.5099 311.133 99.5516C310.887 99.5895 310.646 99.6235 310.411 99.6539C310.18 99.6804 309.993 99.7031 309.849 99.722C309.5 99.7675 309.175 99.8414 308.871 99.9436C308.572 100.042 308.33 100.192 308.144 100.392C307.962 100.589 307.871 100.858 307.871 101.199C307.871 101.665 308.044 102.017 308.389 102.256C308.737 102.491 309.178 102.608 309.712 102.608ZM319.251 103.79C318.523 103.79 317.881 103.607 317.325 103.239C316.768 102.868 316.332 102.345 316.018 101.671C315.703 100.993 315.546 100.192 315.546 99.2675C315.546 98.3508 315.703 97.5554 316.018 96.8811C316.332 96.2069 316.77 95.686 317.33 95.3186C317.891 94.9512 318.539 94.7675 319.273 94.7675C319.842 94.7675 320.291 94.8622 320.62 95.0516C320.953 95.2372 321.207 95.4493 321.381 95.6879C321.559 95.9228 321.698 96.116 321.796 96.2675H321.91V91.972H323.251V103.608H321.955V102.267H321.796C321.698 102.427 321.558 102.627 321.376 102.87C321.194 103.108 320.934 103.322 320.597 103.512C320.26 103.697 319.811 103.79 319.251 103.79ZM319.433 102.586C319.97 102.586 320.425 102.446 320.796 102.165C321.167 101.881 321.45 101.489 321.643 100.989C321.836 100.485 321.933 99.9039 321.933 99.2448C321.933 98.5932 321.838 98.0232 321.648 97.5345C321.459 97.0421 321.179 96.6595 320.808 96.3868C320.436 96.1103 319.978 95.972 319.433 95.972C318.864 95.972 318.391 96.1179 318.012 96.4095C317.637 96.6974 317.355 97.0895 317.166 97.5857C316.98 98.0781 316.887 98.6311 316.887 99.2448C316.887 99.866 316.982 100.43 317.171 100.938C317.364 101.442 317.648 101.843 318.023 102.142C318.402 102.438 318.872 102.586 319.433 102.586ZM328.461 103.813C327.908 103.813 327.406 103.709 326.955 103.5C326.505 103.288 326.147 102.983 325.881 102.586C325.616 102.184 325.484 101.699 325.484 101.131C325.484 100.631 325.582 100.226 325.779 99.9152C325.976 99.6008 326.239 99.3546 326.569 99.1766C326.898 98.9985 327.262 98.866 327.66 98.7789C328.061 98.6879 328.465 98.616 328.87 98.5629C329.4 98.4948 329.83 98.4436 330.16 98.4095C330.493 98.3717 330.736 98.3092 330.887 98.222C331.042 98.1349 331.12 97.9834 331.12 97.7675V97.722C331.12 97.1614 330.967 96.7258 330.66 96.4152C330.357 96.1046 329.897 95.9493 329.279 95.9493C328.639 95.9493 328.137 96.0895 327.773 96.3698C327.41 96.6501 327.154 96.9493 327.006 97.2675L325.734 96.8129C325.961 96.2826 326.264 95.8698 326.643 95.5743C327.025 95.2751 327.442 95.0667 327.893 94.9493C328.347 94.8281 328.794 94.7675 329.234 94.7675C329.514 94.7675 329.836 94.8016 330.2 94.8698C330.567 94.9342 330.921 95.0686 331.262 95.2732C331.607 95.4777 331.893 95.7864 332.12 96.1993C332.347 96.6122 332.461 97.1652 332.461 97.8584V103.608H331.12V102.427H331.052C330.961 102.616 330.809 102.819 330.597 103.035C330.385 103.25 330.103 103.434 329.751 103.586C329.398 103.737 328.969 103.813 328.461 103.813ZM328.666 102.608C329.196 102.608 329.643 102.504 330.006 102.296C330.374 102.088 330.65 101.819 330.836 101.489C331.025 101.16 331.12 100.813 331.12 100.449V99.222C331.063 99.2902 330.938 99.3527 330.745 99.4095C330.556 99.4626 330.336 99.5099 330.086 99.5516C329.84 99.5895 329.599 99.6235 329.364 99.6539C329.133 99.6804 328.946 99.7031 328.802 99.722C328.453 99.7675 328.128 99.8414 327.825 99.9436C327.525 100.042 327.283 100.192 327.097 100.392C326.916 100.589 326.825 100.858 326.825 101.199C326.825 101.665 326.997 102.017 327.342 102.256C327.69 102.491 328.131 102.608 328.666 102.608Z" fill="white"/>
<circle cx="163.944" cy="139.609" r="4.76803" fill="#F1823D"/>
<path d="M186.122 145.608V133.972H190.19C191 133.972 191.669 134.112 192.195 134.392C192.722 134.669 193.114 135.042 193.372 135.512C193.629 135.978 193.758 136.495 193.758 137.063C193.758 137.563 193.669 137.976 193.491 138.302C193.317 138.627 193.086 138.885 192.798 139.074C192.514 139.264 192.205 139.404 191.872 139.495V139.608C192.228 139.631 192.586 139.756 192.945 139.983C193.305 140.211 193.606 140.536 193.849 140.961C194.091 141.385 194.213 141.904 194.213 142.517C194.213 143.101 194.08 143.625 193.815 144.091C193.55 144.557 193.131 144.927 192.559 145.199C191.987 145.472 191.243 145.608 190.326 145.608H186.122ZM187.531 144.358H190.326C191.247 144.358 191.9 144.18 192.286 143.824C192.677 143.464 192.872 143.029 192.872 142.517C192.872 142.124 192.771 141.76 192.57 141.427C192.37 141.089 192.084 140.821 191.713 140.62C191.341 140.415 190.902 140.313 190.394 140.313H187.531V144.358ZM187.531 139.086H190.144C190.569 139.086 190.951 139.002 191.292 138.836C191.637 138.669 191.909 138.434 192.11 138.131C192.315 137.828 192.417 137.472 192.417 137.063C192.417 136.552 192.239 136.118 191.883 135.762C191.527 135.402 190.963 135.222 190.19 135.222H187.531V139.086ZM199.892 145.79C199.104 145.79 198.412 145.603 197.818 145.228C197.227 144.853 196.765 144.328 196.431 143.654C196.102 142.98 195.937 142.192 195.937 141.29C195.937 140.381 196.102 139.588 196.431 138.91C196.765 138.232 197.227 137.705 197.818 137.33C198.412 136.955 199.104 136.767 199.892 136.767C200.679 136.767 201.369 136.955 201.96 137.33C202.554 137.705 203.017 138.232 203.346 138.91C203.679 139.588 203.846 140.381 203.846 141.29C203.846 142.192 203.679 142.98 203.346 143.654C203.017 144.328 202.554 144.853 201.96 145.228C201.369 145.603 200.679 145.79 199.892 145.79ZM199.892 144.586C200.49 144.586 200.982 144.432 201.369 144.125C201.755 143.819 202.041 143.415 202.227 142.915C202.412 142.415 202.505 141.874 202.505 141.29C202.505 140.707 202.412 140.163 202.227 139.66C202.041 139.156 201.755 138.749 201.369 138.438C200.982 138.127 200.49 137.972 199.892 137.972C199.293 137.972 198.801 138.127 198.414 138.438C198.028 138.749 197.742 139.156 197.556 139.66C197.371 140.163 197.278 140.707 197.278 141.29C197.278 141.874 197.371 142.415 197.556 142.915C197.742 143.415 198.028 143.819 198.414 144.125C198.801 144.432 199.293 144.586 199.892 144.586ZM207.234 133.972V145.608H205.893V133.972H207.234ZM215.872 138.836L214.667 139.177C214.591 138.976 214.48 138.781 214.332 138.591C214.188 138.398 213.991 138.239 213.741 138.114C213.491 137.989 213.171 137.927 212.781 137.927C212.247 137.927 211.802 138.05 211.445 138.296C211.093 138.538 210.917 138.847 210.917 139.222C210.917 139.555 211.038 139.819 211.281 140.012C211.523 140.205 211.902 140.366 212.417 140.495L213.713 140.813C214.493 141.002 215.074 141.292 215.457 141.682C215.839 142.069 216.031 142.567 216.031 143.177C216.031 143.677 215.887 144.124 215.599 144.517C215.315 144.911 214.917 145.222 214.406 145.449C213.894 145.677 213.3 145.79 212.622 145.79C211.731 145.79 210.995 145.597 210.411 145.211C209.828 144.824 209.459 144.26 209.303 143.517L210.576 143.199C210.697 143.669 210.927 144.021 211.264 144.256C211.605 144.491 212.05 144.608 212.599 144.608C213.224 144.608 213.72 144.476 214.088 144.211C214.459 143.942 214.644 143.62 214.644 143.245C214.644 142.942 214.538 142.688 214.326 142.483C214.114 142.275 213.788 142.12 213.349 142.017L211.894 141.677C211.095 141.487 210.508 141.194 210.133 140.796C209.762 140.394 209.576 139.892 209.576 139.29C209.576 138.798 209.714 138.362 209.991 137.983C210.271 137.605 210.652 137.307 211.133 137.091C211.618 136.875 212.167 136.767 212.781 136.767C213.644 136.767 214.322 136.957 214.815 137.336C215.311 137.714 215.663 138.214 215.872 138.836ZM220.617 145.813C220.064 145.813 219.562 145.709 219.112 145.5C218.661 145.288 218.303 144.983 218.038 144.586C217.773 144.184 217.64 143.699 217.64 143.131C217.64 142.631 217.739 142.226 217.936 141.915C218.133 141.601 218.396 141.355 218.725 141.177C219.055 140.999 219.418 140.866 219.816 140.779C220.218 140.688 220.621 140.616 221.026 140.563C221.557 140.495 221.987 140.444 222.316 140.41C222.65 140.372 222.892 140.309 223.043 140.222C223.199 140.135 223.276 139.983 223.276 139.767V139.722C223.276 139.161 223.123 138.726 222.816 138.415C222.513 138.105 222.053 137.949 221.436 137.949C220.795 137.949 220.293 138.089 219.93 138.37C219.566 138.65 219.311 138.949 219.163 139.267L217.89 138.813C218.117 138.283 218.42 137.87 218.799 137.574C219.182 137.275 219.598 137.067 220.049 136.949C220.504 136.828 220.951 136.767 221.39 136.767C221.67 136.767 221.992 136.802 222.356 136.87C222.723 136.934 223.078 137.069 223.418 137.273C223.763 137.478 224.049 137.786 224.276 138.199C224.504 138.612 224.617 139.165 224.617 139.858V145.608H223.276V144.427H223.208C223.117 144.616 222.966 144.819 222.754 145.035C222.542 145.25 222.259 145.434 221.907 145.586C221.555 145.737 221.125 145.813 220.617 145.813ZM220.822 144.608C221.352 144.608 221.799 144.504 222.163 144.296C222.53 144.088 222.807 143.819 222.992 143.489C223.182 143.16 223.276 142.813 223.276 142.449V141.222C223.22 141.29 223.095 141.353 222.901 141.41C222.712 141.463 222.492 141.51 222.242 141.552C221.996 141.589 221.756 141.624 221.521 141.654C221.29 141.68 221.102 141.703 220.958 141.722C220.61 141.767 220.284 141.841 219.981 141.944C219.682 142.042 219.439 142.192 219.254 142.392C219.072 142.589 218.981 142.858 218.981 143.199C218.981 143.665 219.153 144.017 219.498 144.256C219.847 144.491 220.288 144.608 220.822 144.608ZM234.86 145.79C234.133 145.79 233.491 145.607 232.934 145.239C232.377 144.868 231.942 144.345 231.627 143.671C231.313 142.993 231.156 142.192 231.156 141.267C231.156 140.351 231.313 139.555 231.627 138.881C231.942 138.207 232.379 137.686 232.94 137.319C233.5 136.951 234.148 136.767 234.883 136.767C235.451 136.767 235.9 136.862 236.23 137.052C236.563 137.237 236.817 137.449 236.991 137.688C237.169 137.923 237.307 138.116 237.406 138.267H237.519V133.972H238.86V145.608H237.565V144.267H237.406C237.307 144.427 237.167 144.627 236.985 144.87C236.803 145.108 236.544 145.322 236.207 145.512C235.87 145.697 235.421 145.79 234.86 145.79ZM235.042 144.586C235.58 144.586 236.034 144.446 236.406 144.165C236.777 143.881 237.059 143.489 237.252 142.989C237.445 142.485 237.542 141.904 237.542 141.245C237.542 140.593 237.447 140.023 237.258 139.535C237.069 139.042 236.788 138.66 236.417 138.387C236.046 138.11 235.588 137.972 235.042 137.972C234.474 137.972 234 138.118 233.622 138.41C233.247 138.697 232.964 139.089 232.775 139.586C232.589 140.078 232.497 140.631 232.497 141.245C232.497 141.866 232.591 142.43 232.781 142.938C232.974 143.442 233.258 143.843 233.633 144.142C234.012 144.438 234.481 144.586 235.042 144.586ZM245.161 145.79C244.32 145.79 243.595 145.605 242.985 145.233C242.379 144.858 241.911 144.336 241.582 143.665C241.256 142.991 241.093 142.207 241.093 141.313C241.093 140.419 241.256 139.631 241.582 138.949C241.911 138.264 242.37 137.73 242.957 137.347C243.548 136.961 244.237 136.767 245.025 136.767C245.48 136.767 245.928 136.843 246.372 136.995C246.815 137.146 247.218 137.392 247.582 137.733C247.945 138.071 248.235 138.517 248.451 139.074C248.667 139.631 248.775 140.317 248.775 141.131V141.699H242.048V140.54H247.411C247.411 140.048 247.313 139.608 247.116 139.222C246.923 138.836 246.646 138.531 246.286 138.307C245.93 138.084 245.51 137.972 245.025 137.972C244.491 137.972 244.029 138.105 243.639 138.37C243.252 138.631 242.955 138.972 242.747 139.392C242.538 139.813 242.434 140.264 242.434 140.745V141.517C242.434 142.177 242.548 142.735 242.775 143.194C243.006 143.648 243.326 143.995 243.735 144.233C244.144 144.468 244.62 144.586 245.161 144.586C245.514 144.586 245.832 144.536 246.116 144.438C246.404 144.336 246.652 144.184 246.86 143.983C247.069 143.779 247.23 143.525 247.343 143.222L248.639 143.586C248.502 144.025 248.273 144.411 247.951 144.745C247.629 145.074 247.231 145.332 246.758 145.517C246.284 145.699 245.752 145.79 245.161 145.79ZM255.974 133.972L259.428 143.767H259.565L263.019 133.972H264.497L260.224 145.608H258.769L254.497 133.972H255.974ZM267.883 145.813C267.33 145.813 266.828 145.709 266.377 145.5C265.927 145.288 265.569 144.983 265.303 144.586C265.038 144.184 264.906 143.699 264.906 143.131C264.906 142.631 265.004 142.226 265.201 141.915C265.398 141.601 265.661 141.355 265.991 141.177C266.32 140.999 266.684 140.866 267.082 140.779C267.483 140.688 267.887 140.616 268.292 140.563C268.822 140.495 269.252 140.444 269.582 140.41C269.915 140.372 270.158 140.309 270.309 140.222C270.464 140.135 270.542 139.983 270.542 139.767V139.722C270.542 139.161 270.389 138.726 270.082 138.415C269.779 138.105 269.319 137.949 268.701 137.949C268.061 137.949 267.559 138.089 267.195 138.37C266.832 138.65 266.576 138.949 266.428 139.267L265.156 138.813C265.383 138.283 265.686 137.87 266.065 137.574C266.447 137.275 266.864 137.067 267.315 136.949C267.769 136.828 268.216 136.767 268.656 136.767C268.936 136.767 269.258 136.802 269.622 136.87C269.989 136.934 270.343 137.069 270.684 137.273C271.029 137.478 271.315 137.786 271.542 138.199C271.769 138.612 271.883 139.165 271.883 139.858V145.608H270.542V144.427H270.474C270.383 144.616 270.231 144.819 270.019 145.035C269.807 145.25 269.525 145.434 269.173 145.586C268.82 145.737 268.391 145.813 267.883 145.813ZM268.088 144.608C268.618 144.608 269.065 144.504 269.428 144.296C269.796 144.088 270.072 143.819 270.258 143.489C270.447 143.16 270.542 142.813 270.542 142.449V141.222C270.485 141.29 270.36 141.353 270.167 141.41C269.978 141.463 269.758 141.51 269.508 141.552C269.262 141.589 269.021 141.624 268.786 141.654C268.555 141.68 268.368 141.703 268.224 141.722C267.875 141.767 267.55 141.841 267.247 141.944C266.947 142.042 266.705 142.192 266.519 142.392C266.338 142.589 266.247 142.858 266.247 143.199C266.247 143.665 266.419 144.017 266.764 144.256C267.112 144.491 267.553 144.608 268.088 144.608ZM275.671 133.972V145.608H274.33V133.972H275.671ZM281.673 145.79C280.885 145.79 280.194 145.603 279.599 145.228C279.008 144.853 278.546 144.328 278.213 143.654C277.883 142.98 277.718 142.192 277.718 141.29C277.718 140.381 277.883 139.588 278.213 138.91C278.546 138.232 279.008 137.705 279.599 137.33C280.194 136.955 280.885 136.767 281.673 136.767C282.461 136.767 283.15 136.955 283.741 137.33C284.336 137.705 284.798 138.232 285.127 138.91C285.461 139.588 285.627 140.381 285.627 141.29C285.627 142.192 285.461 142.98 285.127 143.654C284.798 144.328 284.336 144.853 283.741 145.228C283.15 145.603 282.461 145.79 281.673 145.79ZM281.673 144.586C282.271 144.586 282.764 144.432 283.15 144.125C283.536 143.819 283.822 143.415 284.008 142.915C284.194 142.415 284.286 141.874 284.286 141.29C284.286 140.707 284.194 140.163 284.008 139.66C283.822 139.156 283.536 138.749 283.15 138.438C282.764 138.127 282.271 137.972 281.673 137.972C281.074 137.972 280.582 138.127 280.195 138.438C279.809 138.749 279.523 139.156 279.338 139.66C279.152 140.163 279.059 140.707 279.059 141.29C279.059 141.874 279.152 142.415 279.338 142.915C279.523 143.415 279.809 143.819 280.195 144.125C280.582 144.432 281.074 144.586 281.673 144.586ZM287.674 145.608V136.881H288.97V138.199H289.061C289.22 137.767 289.508 137.417 289.924 137.148C290.341 136.879 290.811 136.745 291.333 136.745C291.432 136.745 291.555 136.747 291.703 136.75C291.85 136.754 291.962 136.76 292.038 136.767V138.131C291.992 138.12 291.888 138.103 291.725 138.08C291.566 138.053 291.398 138.04 291.22 138.04C290.795 138.04 290.417 138.129 290.083 138.307C289.754 138.482 289.492 138.724 289.299 139.035C289.11 139.341 289.015 139.692 289.015 140.086V145.608H287.674ZM297.021 145.79C296.18 145.79 295.454 145.605 294.845 145.233C294.239 144.858 293.771 144.336 293.441 143.665C293.115 142.991 292.953 142.207 292.953 141.313C292.953 140.419 293.115 139.631 293.441 138.949C293.771 138.264 294.229 137.73 294.816 137.347C295.407 136.961 296.097 136.767 296.884 136.767C297.339 136.767 297.788 136.843 298.231 136.995C298.674 137.146 299.078 137.392 299.441 137.733C299.805 138.071 300.095 138.517 300.311 139.074C300.526 139.631 300.634 140.317 300.634 141.131V141.699H293.907V140.54H299.271C299.271 140.048 299.172 139.608 298.975 139.222C298.782 138.836 298.506 138.531 298.146 138.307C297.79 138.084 297.369 137.972 296.884 137.972C296.35 137.972 295.888 138.105 295.498 138.37C295.112 138.631 294.814 138.972 294.606 139.392C294.398 139.813 294.293 140.264 294.293 140.745V141.517C294.293 142.177 294.407 142.735 294.634 143.194C294.865 143.648 295.186 143.995 295.595 144.233C296.004 144.468 296.479 144.586 297.021 144.586C297.373 144.586 297.691 144.536 297.975 144.438C298.263 144.336 298.511 144.184 298.72 143.983C298.928 143.779 299.089 143.525 299.203 143.222L300.498 143.586C300.362 144.025 300.133 144.411 299.811 144.745C299.489 145.074 299.091 145.332 298.617 145.517C298.144 145.699 297.612 145.79 297.021 145.79ZM308.856 138.836L307.651 139.177C307.576 138.976 307.464 138.781 307.316 138.591C307.172 138.398 306.975 138.239 306.725 138.114C306.475 137.989 306.155 137.927 305.765 137.927C305.231 137.927 304.786 138.05 304.43 138.296C304.078 138.538 303.901 138.847 303.901 139.222C303.901 139.555 304.023 139.819 304.265 140.012C304.508 140.205 304.886 140.366 305.401 140.495L306.697 140.813C307.477 141.002 308.059 141.292 308.441 141.682C308.824 142.069 309.015 142.567 309.015 143.177C309.015 143.677 308.871 144.124 308.583 144.517C308.299 144.911 307.901 145.222 307.39 145.449C306.879 145.677 306.284 145.79 305.606 145.79C304.716 145.79 303.979 145.597 303.396 145.211C302.812 144.824 302.443 144.26 302.288 143.517L303.561 143.199C303.682 143.669 303.911 144.021 304.248 144.256C304.589 144.491 305.034 144.608 305.583 144.608C306.208 144.608 306.704 144.476 307.072 144.211C307.443 143.942 307.629 143.62 307.629 143.245C307.629 142.942 307.523 142.688 307.311 142.483C307.098 142.275 306.773 142.12 306.333 142.017L304.879 141.677C304.079 141.487 303.492 141.194 303.117 140.796C302.746 140.394 302.561 139.892 302.561 139.29C302.561 138.798 302.699 138.362 302.975 137.983C303.256 137.605 303.636 137.307 304.117 137.091C304.602 136.875 305.151 136.767 305.765 136.767C306.629 136.767 307.307 136.957 307.799 137.336C308.295 137.714 308.648 138.214 308.856 138.836Z" fill="white"/>
</svg>
