<svg width="32" height="33" viewBox="0 0 32 33" fill="none"
    xmlns="http://www.w3.org/2000/svg">
    <circle cx="16" cy="16.5535" r="15.5" stroke="#B872FF" />
    <path
        d="M14.5938 21.1472C15 20.741 15.4688 20.5378 16 20.5378C16.5312 20.5378 17 20.741 17.4062 21.1472C17.8125 21.5535 18.0156 22.0222 18.0156 22.5535C18.0156 23.0847 17.8125 23.5535 17.4062 23.9597C17 24.366 16.5312 24.5691 16 24.5691C15.4688 24.5691 15 24.366 14.5938 23.9597C14.1875 23.5535 13.9844 23.0847 13.9844 22.5535C13.9844 22.0222 14.1875 21.5535 14.5938 21.1472ZM14.5938 15.1472C15 14.741 15.4688 14.5378 16 14.5378C16.5312 14.5378 17 14.741 17.4062 15.1472C17.8125 15.5535 18.0156 16.0222 18.0156 16.5535C18.0156 17.0847 17.8125 17.5535 17.4062 17.9597C17 18.366 16.5312 18.5691 16 18.5691C15.4688 18.5691 15 18.366 14.5938 17.9597C14.1875 17.5535 13.9844 17.0847 13.9844 16.5535C13.9844 16.0222 14.1875 15.5535 14.5938 15.1472ZM17.4062 11.9597C17 12.366 16.5312 12.5691 16 12.5691C15.4688 12.5691 15 12.366 14.5938 11.9597C14.1875 11.5535 13.9844 11.0847 13.9844 10.5535C13.9844 10.0222 14.1875 9.55347 14.5938 9.14722C15 8.74097 15.4688 8.53784 16 8.53784C16.5312 8.53784 17 8.74097 17.4062 9.14722C17.8125 9.55347 18.0156 10.0222 18.0156 10.5535C18.0156 11.0847 17.8125 11.5535 17.4062 11.9597Z"
        fill="#B872FF" />
</svg>